SplineFontDB: 3.0
FontName: MerriweatherSans-Book
FullName: Merriweather Sans Book
FamilyName: Merriweather Sans
Weight: Light
Copyright: Copyright (c) 2013, Sorkin Type Co (www.sorkintype.com) with Reserved Font Name 'Merriweather'
Version: 1.003; ttfautohint (v0.93.8-669f) -l 7 -r 28 -G 0 -x 13 -w "" -W -c
ItalicAngle: 0
UnderlinePosition: -212
UnderlineWidth: 137
Ascent: 1638
Descent: 410
sfntRevision: 0x000100c5
LayerCount: 2
Layer: 0 1 "Back"  1
Layer: 1 1 "Fore"  0
XUID: [1021 631 1661839179 3759147]
FSType: 0
OS2Version: 3
OS2_WeightWidthSlopeOnly: 0
OS2_UseTypoMetrics: 1
CreationTime: 1361884560
ModificationTime: 1361883946
PfmFamily: 17
TTFWeight: 300
TTFWidth: 5
LineGap: 0
VLineGap: 0
Panose: 2 0 5 3 6 0 0 2 0 4
OS2TypoAscent: 2014
OS2TypoAOffset: 0
OS2TypoDescent: -560
OS2TypoDOffset: 0
OS2TypoLinegap: 0
OS2WinAscent: 2014
OS2WinAOffset: 0
OS2WinDescent: 560
OS2WinDOffset: 0
HheadAscent: 2014
HheadAOffset: 0
HheadDescent: -560
HheadDOffset: 0
OS2SubXSize: 1331
OS2SubYSize: 1229
OS2SubXOff: 0
OS2SubYOff: 154
OS2SupXSize: 1331
OS2SupYSize: 1229
OS2SupXOff: 0
OS2SupYOff: 717
OS2StrikeYSize: 102
OS2StrikeYPos: 512
OS2FamilyClass: 768
OS2Vendor: 'STC '
OS2CodePages: 20000093.00000000
OS2UnicodeRanges: a00000af.5000204b.00000000.00000000
Lookup: 1 0 0 "'aalt' Access All Alternates in Latin lookup 0"  {"'aalt' Access All Alternates in Latin lookup 0 subtable"  } ['aalt' ('DFLT' <'dflt' > 'latn' <'AZE ' 'CRT ' 'MOL ' 'ROM ' 'TRK ' 'dflt' > ) ]
Lookup: 3 0 0 "'aalt' Access All Alternates in Latin lookup 1"  {"'aalt' Access All Alternates in Latin lookup 1 subtable"  } ['aalt' ('DFLT' <'dflt' > 'latn' <'AZE ' 'CRT ' 'MOL ' 'ROM ' 'TRK ' 'dflt' > ) ]
Lookup: 1 0 0 "'locl' Localized Forms lookup 2"  {"'locl' Localized Forms lookup 2 subtable"  } ['locl' ('DFLT' <'AZE ' > ) ]
Lookup: 1 0 0 "'locl' Localized Forms lookup 3"  {"'locl' Localized Forms lookup 3 subtable"  } ['locl' ('DFLT' <'TRK ' > ) ]

StartChar: .notdef
Encoding: 65536 -1 0
Width: 1872
Flags: W
LayerCount: 2
Fore
SplineSet
228 1416 m 1,0,-1
 1644 1416 l 1,1,-1
 1644 0 l 1,2,-1
 228 0 l 1,3,-1
 228 1416 l 1,0,-1
586 219 m 1,4,-1
 933 587 l 1,5,-1
 1295 219 l 1,6,-1
 1417 341 l 1,7,-1
 1054 709 l 1,8,-1
 1417 1067 l 1,9,-1
 1289 1191 l 1,10,-1
 937 825 l 1,11,-1
 580 1193 l 1,12,-1
 457 1068 l 1,13,-1
 816 705 l 1,14,-1
 458 363 l 1,15,-1
 586 219 l 1,4,-1
EndSplineSet
EndChar

StartChar: exclam
Encoding: 33 33 25
Width: 601
GlyphClass: 2
Flags: W
LayerCount: 2
Fore
SplineSet
211 1780 m 1,0,-1
 398 1780 l 1,1,-1
 380 473 l 1,2,-1
 232 473 l 1,3,-1
 211 1780 l 1,0,-1
417 135 m 0,4,5
 417 29 417 29 342 -6 c 0,6,7
 320 -16 320 -16 285 -16 c 128,-1,8
 250 -16 250 -16 217 19 c 128,-1,9
 184 54 184 54 184 97 c 0,10,11
 184 168 184 168 220.5 208.5 c 128,-1,12
 257 249 257 249 294 249 c 0,13,14
 357 249 357 249 387 213.5 c 128,-1,15
 417 178 417 178 417 135 c 0,4,5
EndSplineSet
EndChar

StartChar: numbersign
Encoding: 35 35 27
Width: 1556
GlyphClass: 2
Flags: W
LayerCount: 2
Fore
SplineSet
415 358 m 1,0,-1
 203 358 l 1,1,-1
 203 477 l 1,2,-1
 426 477 l 1,3,-1
 466 914 l 1,4,-1
 239 914 l 1,5,-1
 239 1031 l 1,6,-1
 477 1031 l 1,7,-1
 508 1369 l 1,8,-1
 653 1369 l 1,9,-1
 621 1031 l 1,10,-1
 995 1031 l 1,11,-1
 1025 1369 l 1,12,-1
 1170 1369 l 1,13,-1
 1139 1031 l 1,14,-1
 1369 1031 l 1,15,-1
 1369 914 l 1,16,-1
 1128 914 l 1,17,-1
 1088 477 l 1,18,-1
 1322 477 l 1,19,-1
 1323 358 l 1,20,-1
 1077 358 l 1,21,-1
 1044 0 l 1,22,-1
 904 0 l 1,23,-1
 935 358 l 1,24,-1
 559 358 l 1,25,-1
 526 0 l 1,26,-1
 383 0 l 1,27,-1
 415 358 l 1,0,-1
946 477 m 1,28,-1
 984 914 l 1,29,-1
 610 914 l 1,30,-1
 570 477 l 1,31,-1
 946 477 l 1,28,-1
EndSplineSet
EndChar

StartChar: dollar
Encoding: 36 36 28
Width: 1382
GlyphClass: 2
Flags: W
LayerCount: 2
Fore
SplineSet
1058 1323 m 1,0,1
 930 1405 930 1405 732 1405 c 0,2,3
 597 1405 597 1405 500.5 1348 c 128,-1,4
 404 1291 404 1291 404 1178.5 c 128,-1,5
 404 1066 404 1066 492 986 c 1,6,7
 555 927 555 927 686 864.5 c 128,-1,8
 817 802 817 802 894 760 c 0,9,10
 1170 611 1170 611 1170 385 c 0,11,12
 1170 204 1170 204 1053 102.5 c 128,-1,13
 936 1 936 1 735 -14 c 1,14,-1
 733 -235 l 1,15,-1
 609 -235 l 1,16,-1
 611 -14 l 1,17,18
 427 -6 427 -6 292 47 c 0,19,20
 256 61 256 61 238 74 c 1,21,-1
 279 213 l 1,22,23
 378 150 378 150 550 126 c 0,24,25
 605 119 605 119 672 119 c 0,26,27
 822 119 822 119 913 181 c 128,-1,28
 1004 243 1004 243 1004 363.5 c 128,-1,29
 1004 484 1004 484 902 565 c 0,30,31
 834 619 834 619 700 679.5 c 128,-1,32
 566 740 566 740 494.5 783.5 c 128,-1,33
 423 827 423 827 367 883 c 0,34,35
 242 1008 242 1008 242 1171.5 c 128,-1,36
 242 1335 242 1335 370 1434 c 1,37,38
 478 1516 478 1516 653 1534 c 1,39,-1
 657 1752 l 1,40,-1
 781 1752 l 1,41,-1
 778 1537 l 1,42,43
 980 1527 980 1527 1093 1456 c 1,44,-1
 1058 1323 l 1,0,1
EndSplineSet
EndChar

StartChar: percent
Encoding: 37 37 29
Width: 1944
GlyphClass: 3
Flags: W
LayerCount: 2
Fore
SplineSet
1225 1530 m 1,0,-1
 1370 1530 l 1,1,-1
 712 0 l 1,2,-1
 567 0 l 1,3,-1
 1225 1530 l 1,0,-1
694.5 795.5 m 128,-1,5
 583 686 583 686 427.5 686 c 128,-1,6
 272 686 272 686 178.5 800.5 c 128,-1,7
 85 915 85 915 85 1092 c 128,-1,8
 85 1269 85 1269 196.5 1380.5 c 128,-1,9
 308 1492 308 1492 471 1492 c 128,-1,10
 634 1492 634 1492 720 1382 c 128,-1,11
 806 1272 806 1272 806 1088.5 c 128,-1,4
 806 905 806 905 694.5 795.5 c 128,-1,5
354 820 m 0,12,13
 392 798 392 798 440 798 c 0,14,15
 538 800 538 800 597.5 877 c 128,-1,16
 657 954 657 954 657 1086 c 0,17,18
 657 1294 657 1294 540 1360 c 0,19,20
 504 1380 504 1380 478.5 1380 c 128,-1,21
 453 1380 453 1380 428 1379.5 c 128,-1,22
 403 1379 403 1379 363 1358.5 c 128,-1,23
 323 1338 323 1338 294 1300 c 0,24,25
 234 1221 234 1221 234 1089 c 0,26,27
 234 890 234 890 354 820 c 0,12,13
1249.5 749.5 m 128,-1,29
 1361 861 1361 861 1525 861 c 128,-1,30
 1689 861 1689 861 1773.5 750.5 c 128,-1,31
 1858 640 1858 640 1858 457.5 c 128,-1,32
 1858 275 1858 275 1746.5 165.5 c 128,-1,33
 1635 56 1635 56 1479.5 56 c 128,-1,34
 1324 56 1324 56 1231 170 c 128,-1,35
 1138 284 1138 284 1138 461 c 128,-1,28
 1138 638 1138 638 1249.5 749.5 c 128,-1,29
1342.5 250.5 m 128,-1,37
 1398 168 1398 168 1493 168 c 0,38,39
 1590 168 1590 168 1649.5 244.5 c 128,-1,40
 1709 321 1709 321 1709 456 c 0,41,42
 1709 664 1709 664 1593 730 c 0,43,44
 1557 750 1557 750 1531.5 750 c 128,-1,45
 1506 750 1506 750 1480.5 749.5 c 128,-1,46
 1455 749 1455 749 1415 728.5 c 128,-1,47
 1375 708 1375 708 1346 670 c 0,48,49
 1287 592 1287 592 1287 462.5 c 128,-1,36
 1287 333 1287 333 1342.5 250.5 c 128,-1,37
EndSplineSet
Ligature2: "'frac' Diagonal Fractions in Latin lookup 10 subtable" zero slash zero
EndChar

StartChar: ampersand
Encoding: 38 38 30
Width: 1532
GlyphClass: 2
Flags: W
LayerCount: 2
Fore
SplineSet
1086 68 m 1,0,1
 923 -16 923 -16 770 -16 c 0,2,3
 475 -16 475 -16 311.5 89 c 128,-1,4
 148 194 148 194 148 392.5 c 128,-1,5
 148 591 148 591 356 718 c 0,6,7
 417 756 417 756 484 786 c 1,8,9
 298 1021 298 1021 298 1189.5 c 128,-1,10
 298 1358 298 1358 407.5 1452 c 128,-1,11
 517 1546 517 1546 693.5 1546 c 128,-1,12
 870 1546 870 1546 971.5 1448 c 128,-1,13
 1073 1350 1073 1350 1073 1214 c 0,14,15
 1073 968 1073 968 848 822 c 0,16,17
 780 778 780 778 698 741 c 1,18,19
 855 527 855 527 964.5 400 c 128,-1,20
 1074 273 1074 273 1102 244 c 1,21,22
 1211 345 1211 345 1211 514 c 0,23,24
 1211 624 1211 624 1173 728 c 1,25,-1
 1320 728 l 1,26,27
 1355 614 1355 614 1355 514 c 0,28,29
 1355 286 1355 286 1203 156 c 1,30,31
 1301 87 1301 87 1424 87 c 0,32,33
 1432 87 1432 87 1440 87 c 1,34,-1
 1440 -1 l 1,35,36
 1388 -16 1388 -16 1327 -16 c 0,37,38
 1202 -16 1202 -16 1086 68 c 1,0,1
625 840 m 1,39,40
 930 965 930 965 930 1212 c 0,41,42
 930 1296 930 1296 866.5 1361.5 c 128,-1,43
 803 1427 803 1427 697 1427 c 0,44,45
 527 1427 527 1427 472 1302 c 0,46,47
 453 1259 453 1259 453 1202 c 128,-1,48
 453 1145 453 1145 465.5 1101.5 c 128,-1,49
 478 1058 478 1058 500.5 1017 c 128,-1,50
 523 976 523 976 555 934 c 128,-1,51
 587 892 587 892 625 840 c 1,39,40
560 687 m 1,52,53
 305 569 305 569 305 390 c 0,54,55
 305 267 305 267 414.5 186.5 c 128,-1,56
 524 106 524 106 743 106 c 0,57,58
 859 106 859 106 982 159 c 1,59,60
 803 353 803 353 560 687 c 1,52,53
EndSplineSet
EndChar

StartChar: quotesingle
Encoding: 39 39 31
Width: 731
GlyphClass: 2
Flags: W
LayerCount: 2
Fore
SplineSet
274 1685 m 1,0,-1
 457 1685 l 1,1,-1
 433 966 l 1,2,-1
 299 966 l 1,3,-1
 274 1685 l 1,0,-1
EndSplineSet
EndChar

StartChar: parenleft
Encoding: 40 40 32
Width: 848
GlyphClass: 2
Flags: W
LayerCount: 2
Fore
SplineSet
598 -327 m 1,0,1
 467 -244 467 -244 344 -45.5 c 128,-1,2
 221 153 221 153 170 416 c 0,3,4
 142 556 142 556 142 712 c 128,-1,5
 142 868 142 868 169.5 995 c 128,-1,6
 197 1122 197 1122 240 1230 c 0,7,8
 318 1424 318 1424 426.5 1560 c 128,-1,9
 535 1696 535 1696 598 1732 c 1,10,-1
 713 1675 l 1,11,12
 601 1592 601 1592 484 1394 c 1,13,14
 305 1086 305 1086 305 688 c 0,15,16
 305 211 305 211 563 -120 c 0,17,18
 635 -212 635 -212 713 -270 c 1,19,-1
 598 -327 l 1,0,1
EndSplineSet
EndChar

StartChar: asterisk
Encoding: 42 42 34
Width: 1226
GlyphClass: 2
Flags: W
LayerCount: 2
Fore
SplineSet
645 1094 m 1,0,-1
 674 929 l 1,1,-1
 690 649 l 1,2,-1
 544 648 l 1,3,-1
 554 929 l 1,4,-1
 579 1096 l 1,5,-1
 451 986 l 1,6,-1
 215 834 l 1,7,-1
 142 959 l 1,8,-1
 388 1093 l 1,9,-1
 545 1153 l 1,10,-1
 387 1210 l 1,11,-1
 139 1340 l 1,12,-1
 210 1466 l 1,13,-1
 447 1315 l 1,14,-1
 578 1211 l 2,15,16
 578 1212 578 1212 576 1224 c 2,17,-1
 571 1254 l 2,18,19
 560 1321 560 1321 554.5 1347 c 128,-1,20
 549 1373 549 1373 549 1375 c 2,21,-1
 535 1658 l 1,22,-1
 681 1658 l 1,23,-1
 671 1377 l 1,24,-1
 645 1212 l 1,25,-1
 773 1320 l 1,26,-1
 1011 1472 l 1,27,-1
 1083 1348 l 1,28,-1
 836 1215 l 1,29,-1
 680 1154 l 1,30,-1
 837 1097 l 1,31,-1
 1087 969 l 1,32,-1
 1013 840 l 1,33,-1
 778 990 l 1,34,-1
 645 1094 l 1,0,-1
EndSplineSet
EndChar

StartChar: plus
Encoding: 43 43 35
Width: 1393
GlyphClass: 2
Flags: W
LayerCount: 2
Fore
SplineSet
627 539 m 1,0,-1
 632 711 l 1,1,-1
 469 706 l 1,2,-1
 232 706 l 1,3,-1
 232 840 l 1,4,-1
 469 840 l 1,5,-1
 632 832 l 1,6,-1
 627 1003 l 1,7,-1
 627 1247 l 1,8,-1
 763 1247 l 1,9,-1
 763 1003 l 1,10,-1
 757 832 l 1,11,-1
 906 840 l 1,12,-1
 1161 840 l 1,13,-1
 1161 706 l 1,14,-1
 906 706 l 1,15,-1
 757 711 l 1,16,-1
 763 539 l 1,17,-1
 763 288 l 1,18,-1
 627 288 l 1,19,-1
 627 539 l 1,0,-1
EndSplineSet
EndChar

StartChar: comma
Encoding: 44 44 36
Width: 601
GlyphClass: 2
Flags: W
LayerCount: 2
Fore
SplineSet
201 159 m 1,0,-1
 306 258 l 1,1,2
 386 221 386 221 425.5 135.5 c 128,-1,3
 465 50 465 50 465 -40 c 0,4,5
 465 -205 465 -205 393.5 -330 c 128,-1,6
 322 -455 322 -455 221 -499 c 1,7,-1
 165 -430 l 1,8,-1
 164 -409 l 1,9,10
 256 -354 256 -354 294 -206 c 0,11,12
 307 -155 307 -155 307 -110 c 0,13,14
 307 -34 307 -34 275.5 31 c 128,-1,15
 244 96 244 96 201 111 c 1,16,-1
 201 159 l 1,0,-1
EndSplineSet
EndChar

StartChar: hyphen
Encoding: 45 45 37
Width: 1350
GlyphClass: 2
Flags: W
LayerCount: 2
Fore
SplineSet
247 840 m 1,0,-1
 1103 840 l 1,1,-1
 1103 705 l 1,2,-1
 247 705 l 1,3,-1
 247 840 l 1,0,-1
EndSplineSet
EndChar

StartChar: period
Encoding: 46 46 38
Width: 601
GlyphClass: 2
Flags: W
LayerCount: 2
Fore
SplineSet
221 207.5 m 128,-1,1
 258 249 258 249 309 249 c 128,-1,2
 360 249 360 249 388.5 212 c 128,-1,3
 417 175 417 175 417 133 c 0,4,5
 417 62 417 62 381.5 23 c 128,-1,6
 346 -16 346 -16 309.5 -16 c 128,-1,7
 273 -16 273 -16 253.5 -7 c 128,-1,8
 234 2 234 2 218 18 c 0,9,10
 185 54 185 54 184.5 110 c 128,-1,0
 184 166 184 166 221 207.5 c 128,-1,1
EndSplineSet
EndChar

StartChar: slash
Encoding: 47 47 39
Width: 854
GlyphClass: 2
Flags: W
LayerCount: 2
Fore
SplineSet
636 1599 m 1,0,-1
 787 1599 l 1,1,-1
 216 -363 l 1,2,-1
 66 -363 l 1,3,-1
 636 1599 l 1,0,-1
EndSplineSet
EndChar

StartChar: zero
Encoding: 48 48 40
Width: 1378
GlyphClass: 2
Flags: W
LayerCount: 2
Fore
SplineSet
202 322 m 0,0,1
 152 456 152 456 152 667 c 0,2,3
 152 782 152 782 197 900.5 c 128,-1,4
 242 1019 242 1019 316 1100 c 0,5,6
 471 1270 471 1270 707 1270 c 0,7,8
 985 1270 985 1270 1116 1085 c 0,9,10
 1227 928 1227 928 1227 640.5 c 128,-1,11
 1227 353 1227 353 1074 170.5 c 128,-1,12
 921 -12 921 -12 682 -12 c 0,13,14
 326 -12 326 -12 202 322 c 0,0,1
402 269 m 0,15,16
 505 96 505 96 685 96 c 128,-1,17
 865 96 865 96 964 239.5 c 128,-1,18
 1063 383 1063 383 1063 630 c 0,19,20
 1063 1000 1063 1000 866 1118 c 0,21,22
 796 1159 796 1159 703 1159 c 0,23,24
 522 1159 522 1159 419.5 1022 c 128,-1,25
 317 885 317 885 316 651 c 128,-1,26
 315 417 315 417 402 269 c 0,15,16
EndSplineSet
EndChar

StartChar: one
Encoding: 49 49 41
Width: 914
GlyphClass: 2
Flags: W
LayerCount: 2
Fore
SplineSet
409 1067 m 1,0,1
 253 1003 253 1003 147 977 c 1,2,-1
 127 1078 l 1,3,4
 273 1122 273 1122 442 1232 c 0,5,6
 485 1260 485 1260 505 1278 c 1,7,-1
 583 1256 l 1,8,-1
 583 0 l 1,9,-1
 409 0 l 1,10,-1
 409 1067 l 1,0,1
EndSplineSet
Substitution2: "'sups' Superscript in Latin lookup 11 subtable" onesuperior
EndChar

StartChar: two
Encoding: 50 50 42
Width: 1266
GlyphClass: 2
Flags: W
LayerCount: 2
Fore
SplineSet
156 86 m 1,0,1
 454 262 454 262 648 458 c 0,2,3
 878 689 878 689 878 884.5 c 128,-1,4
 878 1080 878 1080 720 1135 c 0,5,6
 669 1153 669 1153 610 1153 c 0,7,8
 505 1153 505 1153 407.5 1109.5 c 128,-1,9
 310 1066 310 1066 249 999 c 1,10,-1
 178 1094 l 1,11,12
 280 1218 280 1218 472 1269 c 0,13,14
 541 1287 541 1287 639 1287 c 0,15,16
 841 1287 841 1287 944.5 1180.5 c 128,-1,17
 1048 1074 1048 1074 1048 904 c 0,18,19
 1048 703 1048 703 877 499 c 128,-1,20
 706 295 706 295 432 130 c 1,21,-1
 1120 135 l 1,22,-1
 1120 0 l 1,23,-1
 181 0 l 1,24,-1
 156 86 l 1,0,1
EndSplineSet
Substitution2: "'sups' Superscript in Latin lookup 11 subtable" twosuperior
EndChar

StartChar: three
Encoding: 51 51 43
Width: 1136
GlyphClass: 2
Flags: W
LayerCount: 2
Fore
SplineSet
148 -204 m 1,0,1
 223 -218 223 -218 264 -218 c 0,2,3
 433 -218 433 -218 535 -183.5 c 128,-1,4
 637 -149 637 -149 708 -94 c 1,5,6
 853 21 853 21 853 172.5 c 128,-1,7
 853 324 853 324 765 398.5 c 128,-1,8
 677 473 677 473 539 473 c 0,9,10
 504 473 504 473 464 468 c 1,11,-1
 353 441 l 1,12,-1
 317 557 l 1,13,14
 422 578 422 578 502 610 c 1,15,16
 639 661 639 661 709.5 744.5 c 128,-1,17
 780 828 780 828 780 932.5 c 128,-1,18
 780 1037 780 1037 707.5 1094.5 c 128,-1,19
 635 1152 635 1152 513 1152 c 0,20,21
 326 1152 326 1152 171 1031 c 1,22,-1
 105 1127 l 1,23,24
 221 1227 221 1227 394 1268 c 0,25,26
 458 1284 458 1284 534 1284 c 0,27,28
 705 1284 705 1284 825 1194.5 c 128,-1,29
 945 1105 945 1105 945 928.5 c 128,-1,30
 945 752 945 752 766 622 c 0,31,32
 713 583 713 583 652 556 c 1,33,34
 822 545 822 545 922.5 439 c 128,-1,35
 1023 333 1023 333 1023 192 c 0,36,37
 1023 89 1023 89 975.5 -6.5 c 128,-1,38
 928 -102 928 -102 840 -176 c 0,39,40
 647 -337 647 -337 344 -337 c 0,41,42
 251 -337 251 -337 149 -319 c 1,43,-1
 148 -204 l 1,0,1
EndSplineSet
Substitution2: "'sups' Superscript in Latin lookup 11 subtable" threesuperior
EndChar

StartChar: four
Encoding: 52 52 44
Width: 1314
GlyphClass: 2
Flags: W
LayerCount: 2
Fore
SplineSet
140.5 153 m 128,-1,1
 168 210 168 210 208 292.5 c 128,-1,2
 248 375 248 375 296.5 476 c 128,-1,3
 345 577 345 577 395 682 c 128,-1,4
 445 787 445 787 494 889 c 0,5,6
 634 1180 634 1180 689 1307 c 1,7,-1
 748 1307 l 1,8,-1
 852 1243 l 1,9,10
 792 1104 792 1104 578.5 682 c 128,-1,11
 365 260 365 260 357 244 c 1,12,-1
 290 129 l 1,13,-1
 827 129 l 1,14,-1
 840 616 l 1,15,-1
 993 616 l 1,16,-1
 993 129 l 1,17,-1
 1244 129 l 1,18,-1
 1244 0 l 1,19,-1
 993 0 l 1,20,-1
 993 -376 l 1,21,-1
 827 -376 l 1,22,-1
 827 0 l 1,23,-1
 145 0 l 1,24,-1
 104 79 l 1,25,0
 113 96 113 96 140.5 153 c 128,-1,1
EndSplineSet
EndChar

StartChar: five
Encoding: 53 53 45
Width: 1222
GlyphClass: 2
Flags: W
LayerCount: 2
Fore
SplineSet
204 -222 m 1,0,1
 254 -227 254 -227 284 -227 c 0,2,3
 549 -227 549 -227 725.5 -95.5 c 128,-1,4
 902 36 902 36 902 227 c 0,5,6
 902 552 902 552 558 552 c 0,7,8
 554 552 554 552 550 552 c 0,9,10
 417 552 417 552 252 491 c 1,11,-1
 211 516 l 1,12,-1
 272 1252 l 1,13,-1
 1022 1252 l 1,14,-1
 1006 1108 l 1,15,-1
 403 1108 l 1,16,-1
 354 631 l 1,17,18
 504 677 504 677 620 677 c 0,19,20
 841 677 841 677 956 560 c 128,-1,21
 1071 443 1071 443 1071 238 c 0,22,23
 1071 94 1071 94 983 -39 c 0,24,25
 842 -253 842 -253 546 -323 c 0,26,27
 445 -347 445 -347 345 -347.5 c 128,-1,28
 245 -348 245 -348 203 -335 c 1,29,-1
 204 -222 l 1,0,1
EndSplineSet
EndChar

StartChar: six
Encoding: 54 54 46
Width: 1377
GlyphClass: 2
Flags: W
LayerCount: 2
Fore
SplineSet
515 895 m 1,0,1
 605 985 605 985 822 985 c 0,2,3
 896 985 896 985 972 948.5 c 128,-1,4
 1048 912 1048 912 1100 852 c 0,5,6
 1205 728 1205 728 1205 546 c 0,7,8
 1205 317 1205 317 1067 150.5 c 128,-1,9
 929 -16 929 -16 686.5 -16 c 128,-1,10
 444 -16 444 -16 306 154 c 128,-1,11
 168 324 168 324 168 574 c 128,-1,12
 168 824 168 824 289.5 1037.5 c 128,-1,13
 411 1251 411 1251 602 1390 c 128,-1,14
 793 1529 793 1529 992 1568 c 1,15,-1
 1038 1460 l 1,16,17
 736 1380 736 1380 542.5 1140 c 128,-1,18
 349 900 349 900 349 619 c 0,19,20
 349 265 349 265 532 146 c 0,21,22
 600 101 600 101 694 101 c 0,23,24
 861 101 861 101 948.5 225.5 c 128,-1,25
 1036 350 1036 350 1036 518.5 c 128,-1,26
 1036 687 1036 687 958.5 771 c 128,-1,27
 881 855 881 855 761.5 855 c 128,-1,28
 642 855 642 855 562 795 c 1,29,-1
 515 895 l 1,0,1
EndSplineSet
EndChar

StartChar: seven
Encoding: 55 55 47
Width: 1236
GlyphClass: 2
Flags: W
LayerCount: 2
Fore
SplineSet
377 -278 m 1,0,1
 514 9 514 9 822 820 c 0,2,3
 857 912 857 912 887.5 992 c 128,-1,4
 918 1072 918 1072 941 1134 c 1,5,-1
 150 1135 l 1,6,-1
 151 1271 l 1,7,-1
 1088 1271 l 1,8,-1
 1125 1225 l 1,9,-1
 556 -330 l 1,10,-1
 377 -278 l 1,0,1
EndSplineSet
EndChar

StartChar: eight
Encoding: 56 56 48
Width: 1297
GlyphClass: 2
Flags: W
LayerCount: 2
Fore
SplineSet
202 200.5 m 128,-1,1
 157 277 157 277 157 361 c 0,2,3
 157 656 157 656 488 804 c 1,4,5
 360 879 360 879 288.5 971 c 128,-1,6
 217 1063 217 1063 217 1197 c 0,7,8
 217 1374 217 1374 347 1469.5 c 128,-1,9
 477 1565 477 1565 669 1565 c 128,-1,10
 861 1565 861 1565 981.5 1469.5 c 128,-1,11
 1102 1374 1102 1374 1102 1217 c 0,12,13
 1102 1022 1102 1022 936 876 c 0,14,15
 880 826 880 826 803 790 c 1,16,17
 976 700 976 700 1039 640 c 128,-1,18
 1102 580 1102 580 1132.5 521 c 128,-1,19
 1163 462 1163 462 1163 373.5 c 128,-1,20
 1163 285 1163 285 1122.5 209 c 128,-1,21
 1082 133 1082 133 1013 83 c 0,22,23
 876 -16 876 -16 667 -16 c 128,-1,24
 458 -16 458 -16 320 76 c 0,25,0
 247 124 247 124 202 200.5 c 128,-1,1
688 851 m 1,26,27
 800 890 800 890 874.5 986 c 128,-1,28
 949 1082 949 1082 949 1195.5 c 128,-1,29
 949 1309 949 1309 874.5 1378.5 c 128,-1,30
 800 1448 800 1448 668.5 1448 c 128,-1,31
 537 1448 537 1448 454 1383.5 c 128,-1,32
 371 1319 371 1319 371 1207 c 0,33,34
 371 1046 371 1046 568 922 c 0,35,36
 625 885 625 885 688 851 c 1,26,27
409 181 m 128,-1,38
 500 102 500 102 654.5 102 c 128,-1,39
 809 102 809 102 903.5 175 c 128,-1,40
 998 248 998 248 998 371 c 0,41,42
 998 540 998 540 748 667 c 0,43,44
 677 703 677 703 603 741 c 1,45,46
 479 695 479 695 398.5 603.5 c 128,-1,47
 318 512 318 512 318 386 c 128,-1,37
 318 260 318 260 409 181 c 128,-1,38
EndSplineSet
EndChar

StartChar: nine
Encoding: 57 57 49
Width: 1396
GlyphClass: 2
Flags: W
LayerCount: 2
Fore
SplineSet
875 344 m 1,0,1
 796 254 796 254 570 254 c 0,2,3
 493 254 493 254 416 293.5 c 128,-1,4
 339 333 339 333 286 398 c 0,5,6
 180 531 180 531 180 722 c 0,7,8
 180 960 180 960 321.5 1112 c 128,-1,9
 463 1264 463 1264 704.5 1264 c 128,-1,10
 946 1264 946 1264 1078.5 1096 c 128,-1,11
 1211 928 1211 928 1211 678 c 0,12,13
 1211 281 1211 281 934 -28 c 0,14,15
 769 -211 769 -211 564 -306 c 0,16,17
 464 -353 464 -353 368 -373 c 1,18,-1
 311 -270 l 1,19,20
 627 -192 627 -192 830 78 c 128,-1,21
 1033 348 1033 348 1033 627 c 0,22,23
 1033 986 1033 986 849 1102 c 0,24,25
 782 1145 782 1145 692 1145 c 0,26,27
 530 1145 530 1145 439 1030.5 c 128,-1,28
 348 916 348 916 348 777 c 0,29,30
 348 590 348 590 429 487 c 128,-1,31
 510 384 510 384 626.5 384 c 128,-1,32
 743 384 743 384 835 439 c 1,33,-1
 875 344 l 1,0,1
EndSplineSet
EndChar

StartChar: less
Encoding: 60 60 52
Width: 1368
GlyphClass: 2
Flags: W
LayerCount: 2
Fore
SplineSet
171 834 m 1,0,-1
 1133 1293 l 1,1,-1
 1133 1137 l 1,2,-1
 344 773 l 1,3,-1
 1133 413 l 1,4,-1
 1133 254 l 1,5,-1
 171 712 l 1,6,-1
 171 834 l 1,0,-1
EndSplineSet
EndChar

StartChar: equal
Encoding: 61 61 53
Width: 1397
GlyphClass: 2
Flags: W
LayerCount: 2
Fore
SplineSet
241 1114 m 1,0,-1
 1156 1114 l 1,1,-1
 1156 986 l 1,2,-1
 241 986 l 1,3,-1
 241 1114 l 1,0,-1
241 555 m 1,4,-1
 1156 555 l 1,5,-1
 1156 428 l 1,6,-1
 241 428 l 1,7,-1
 241 555 l 1,4,-1
EndSplineSet
EndChar

StartChar: question
Encoding: 63 63 55
Width: 1047
GlyphClass: 2
Flags: W
LayerCount: 2
Fore
SplineSet
456 712 m 0,0,1
 456 631 456 631 514 466 c 1,2,-1
 387 465 l 1,3,4
 330 541 330 541 304 672 c 0,5,6
 295 721 295 721 295 762 c 128,-1,7
 295 803 295 803 313 837 c 128,-1,8
 331 871 331 871 362 902 c 128,-1,9
 393 933 393 933 433 961 c 128,-1,10
 473 989 473 989 516 1016 c 0,11,12
 640 1097 640 1097 676 1130 c 0,13,14
 750 1199 750 1199 759 1272 c 1,15,16
 767 1317 767 1317 767 1362 c 0,17,18
 767 1497 767 1497 676 1584 c 0,19,20
 557 1696 557 1696 317 1696 c 0,21,22
 193 1696 193 1696 134 1672 c 1,23,-1
 134 1795 l 1,24,25
 160 1818 160 1818 234.5 1827.5 c 128,-1,26
 309 1837 309 1837 343 1837 c 0,27,28
 668 1837 668 1837 823 1666 c 1,29,30
 932 1544 932 1544 932 1364 c 0,31,32
 932 1226 932 1226 887 1158 c 128,-1,33
 842 1090 842 1090 791 1046 c 128,-1,34
 740 1002 740 1002 682.5 967 c 128,-1,35
 625 932 625 932 575.5 898 c 128,-1,36
 526 864 526 864 493 827 c 128,-1,37
 460 790 460 790 458 758.5 c 128,-1,38
 456 727 456 727 456 712 c 0,0,1
617 131 m 0,39,40
 617 28 617 28 543 -6 c 0,41,42
 521 -16 521 -16 487.5 -16 c 128,-1,43
 454 -16 454 -16 421.5 18.5 c 128,-1,44
 389 53 389 53 389 94 c 0,45,46
 389 162 389 162 425 202 c 128,-1,47
 461 242 461 242 498 242 c 0,48,49
 559 242 559 242 588 207 c 128,-1,50
 617 172 617 172 617 131 c 0,39,40
EndSplineSet
EndChar

StartChar: at
Encoding: 64 64 56
Width: 2218
GlyphClass: 2
Flags: W
LayerCount: 2
Fore
SplineSet
1863 808 m 0,0,1
 1863 1432 1863 1432 1224 1432 c 0,2,3
 993 1432 993 1432 796 1309 c 0,4,5
 486 1115 486 1115 391 724 c 0,6,7
 359 591 359 591 359 443.5 c 128,-1,8
 359 296 359 296 386 181.5 c 128,-1,9
 413 67 413 67 462 -21 c 0,10,11
 555 -189 555 -189 718.5 -270.5 c 128,-1,12
 882 -352 882 -352 1112.5 -352 c 128,-1,13
 1343 -352 1343 -352 1502 -259 c 1,14,-1
 1532 -359 l 1,15,16
 1423 -430 1423 -430 1212 -456 c 0,17,18
 1144 -465 1144 -465 1074 -465 c 0,19,20
 696 -465 696 -465 460 -237.5 c 128,-1,21
 224 -10 224 -10 224 425 c 0,22,23
 224 756 224 756 359.5 1010 c 128,-1,24
 495 1264 495 1264 730 1404 c 128,-1,25
 965 1544 965 1544 1253 1544 c 0,26,27
 1591 1544 1591 1544 1795 1355.5 c 128,-1,28
 1999 1167 1999 1167 1999 835 c 0,29,30
 1999 452 1999 452 1829.5 227 c 128,-1,31
 1660 2 1660 2 1443 2 c 0,32,33
 1308 2 1308 2 1308 213 c 0,34,35
 1308 301 1308 301 1324 404 c 1,36,37
 1195 128 1195 128 1044 32 c 0,38,39
 990 -2 990 -2 936 -2 c 128,-1,40
 882 -2 882 -2 831 24 c 0,41,42
 722 79 722 79 674 240 c 0,43,44
 652 317 652 317 652 372 c 128,-1,45
 652 427 652 427 652.5 466 c 128,-1,46
 653 505 653 505 668.5 579.5 c 128,-1,47
 684 654 684 654 714 724 c 0,48,49
 778 878 778 878 902 974.5 c 128,-1,50
 1026 1071 1026 1071 1191 1071 c 128,-1,51
 1356 1071 1356 1071 1450 1014 c 1,52,-1
 1583 1040 l 1,53,54
 1492 722 1492 722 1450 401 c 0,55,56
 1436 296 1436 296 1436 210 c 128,-1,57
 1436 124 1436 124 1481 124 c 0,58,59
 1549 124 1549 124 1617 177 c 128,-1,60
 1685 230 1685 230 1740 322 c 0,61,62
 1863 529 1863 529 1863 808 c 0,0,1
823 636.5 m 128,-1,64
 797 549 797 549 796 500.5 c 128,-1,65
 795 452 795 452 795 415 c 0,66,67
 795 306 795 306 838 219.5 c 128,-1,68
 881 133 881 133 966 133 c 0,69,70
 1069 133 1069 133 1214 407 c 128,-1,71
 1359 681 1359 681 1392 885 c 1,72,73
 1337 956 1337 956 1190 956 c 0,74,75
 1011 956 1011 956 898 795 c 0,76,63
 849 724 849 724 823 636.5 c 128,-1,64
EndSplineSet
EndChar

StartChar: A
Encoding: 65 65 57
Width: 1393
GlyphClass: 2
Flags: W
LayerCount: 2
Fore
SplineSet
621 1538 m 1,0,-1
 787 1538 l 1,1,-1
 1361 0 l 1,2,-1
 1178 0 l 1,3,-1
 1031 418 l 1,4,-1
 366 418 l 1,5,-1
 213 0 l 1,6,-1
 33 0 l 1,7,-1
 621 1538 l 1,0,-1
987 545 m 1,8,-1
 743 1240 l 1,9,-1
 705 1360 l 1,10,-1
 667 1239 l 1,11,-1
 412 545 l 1,12,-1
 987 545 l 1,8,-1
EndSplineSet
EndChar

StartChar: B
Encoding: 66 66 58
Width: 1350
GlyphClass: 2
Flags: W
LayerCount: 2
Fore
SplineSet
923 18.5 m 128,-1,1
 808 -14 808 -14 681 -14 c 128,-1,2
 554 -14 554 -14 295 0 c 1,3,-1
 206 0 l 1,4,-1
 206 1523 l 1,5,-1
 298 1522 l 1,6,-1
 638 1535 l 1,7,8
 888 1535 888 1535 1012 1441 c 128,-1,9
 1136 1347 1136 1347 1136 1162.5 c 128,-1,10
 1136 978 1136 978 1006 869 c 0,11,12
 959 830 959 830 892 814 c 1,13,14
 1033 808 1033 808 1137 704 c 128,-1,15
 1241 600 1241 600 1241 453 c 0,16,17
 1241 225 1241 225 1108 112 c 1,18,0
 1038 51 1038 51 923 18.5 c 128,-1,1
606 1415 m 0,19,20
 458 1415 458 1415 374 1403 c 1,21,-1
 374 848 l 1,22,23
 414 843 414 843 544 843 c 2,24,-1
 721 844 l 1,25,26
 838 852 838 852 905 934.5 c 128,-1,27
 972 1017 972 1017 972 1155 c 0,28,29
 972 1415 972 1415 606 1415 c 0,19,20
703 723 m 1,30,-1
 506 723 l 2,31,32
 412 723 412 723 374 719 c 1,33,-1
 374 130 l 1,34,35
 479 110 479 110 618.5 110 c 128,-1,36
 758 110 758 110 834 126 c 0,37,38
 1069 178 1069 178 1069 433 c 0,39,40
 1069 714 1069 714 703 723 c 1,30,-1
EndSplineSet
EndChar

StartChar: C
Encoding: 67 67 59
Width: 1328
GlyphClass: 2
Flags: W
LayerCount: 2
Fore
SplineSet
155.5 439 m 128,-1,1
 107 581 107 581 107 762 c 128,-1,2
 107 943 107 943 162 1089 c 128,-1,3
 217 1235 217 1235 312 1335 c 0,4,5
 505 1538 505 1538 803 1538 c 0,6,7
 1005 1538 1005 1538 1144 1495 c 0,8,9
 1177 1485 1177 1485 1200 1480 c 1,10,-1
 1176 1330 l 1,11,12
 1159 1336 1159 1336 1132 1347.5 c 128,-1,13
 1105 1359 1105 1359 1029 1379.5 c 128,-1,14
 953 1400 953 1400 823 1400 c 0,15,16
 570 1400 570 1400 422.5 1232 c 128,-1,17
 275 1064 275 1064 275 773 c 128,-1,18
 275 482 275 482 416 300 c 128,-1,19
 557 118 557 118 802 118 c 0,20,21
 997 118 997 118 1140 179 c 0,22,23
 1177 195 1177 195 1197 208 c 1,24,-1
 1199 64 l 1,25,26
 1164 53 1164 53 1127 39 c 128,-1,27
 1090 25 1090 25 1010.5 4.5 c 128,-1,28
 931 -16 931 -16 784.5 -16 c 128,-1,29
 638 -16 638 -16 511 39.5 c 128,-1,30
 384 95 384 95 294 196 c 128,-1,0
 204 297 204 297 155.5 439 c 128,-1,1
EndSplineSet
EndChar

StartChar: D
Encoding: 68 68 60
Width: 1479
GlyphClass: 2
Flags: W
LayerCount: 2
Fore
SplineSet
317 -2 m 1,0,-1
 224 0 l 1,1,-1
 206 0 l 1,2,-1
 206 1522 l 1,3,4
 236 1522 236 1522 266 1522 c 2,5,-1
 326 1523 l 1,6,-1
 664 1536 l 1,7,8
 1022 1536 1022 1536 1203 1346 c 128,-1,9
 1384 1156 1384 1156 1384 791 c 128,-1,10
 1384 426 1384 426 1189.5 205 c 128,-1,11
 995 -16 995 -16 657 -16 c 1,12,-1
 317 -2 l 1,0,-1
879 1377 m 0,13,14
 769 1413 769 1413 645 1413 c 128,-1,15
 521 1413 521 1413 375 1399 c 1,16,-1
 375 128 l 1,17,18
 712 81 712 81 885 152 c 0,19,20
 985 192 985 192 1056 274 c 0,21,22
 1208 448 1208 448 1208 789 c 0,23,24
 1208 1269 1208 1269 879 1377 c 0,13,14
EndSplineSet
EndChar

StartChar: E
Encoding: 69 69 61
Width: 1203
GlyphClass: 2
Flags: W
LayerCount: 2
Fore
SplineSet
206 1522 m 1,0,-1
 1064 1522 l 1,1,-1
 1064 1391 l 1,2,-1
 375 1391 l 1,3,-1
 375 852 l 1,4,-1
 878 852 l 1,5,-1
 878 721 l 1,6,-1
 375 721 l 1,7,-1
 375 133 l 1,8,-1
 1137 133 l 1,9,-1
 1137 0 l 1,10,-1
 206 0 l 1,11,-1
 206 1522 l 1,0,-1
EndSplineSet
EndChar

StartChar: F
Encoding: 70 70 62
Width: 1085
GlyphClass: 2
Flags: W
LayerCount: 2
Fore
SplineSet
206 1522 m 1,0,-1
 1057 1522 l 1,1,-1
 1057 1391 l 1,2,-1
 375 1391 l 1,3,-1
 375 830 l 1,4,-1
 884 830 l 1,5,-1
 884 699 l 1,6,-1
 375 699 l 1,7,-1
 375 0 l 1,8,-1
 206 0 l 1,9,-1
 206 1522 l 1,0,-1
EndSplineSet
EndChar

StartChar: G
Encoding: 71 71 63
Width: 1442
GlyphClass: 2
Flags: W
LayerCount: 2
Fore
SplineSet
1228 1325 m 1,0,1
 1057 1405 1057 1405 818.5 1405 c 128,-1,2
 580 1405 580 1405 433 1237 c 128,-1,3
 286 1069 286 1069 286 773.5 c 128,-1,4
 286 478 286 478 422 296 c 128,-1,5
 558 114 558 114 791 114 c 128,-1,6
 1024 114 1024 114 1158 181 c 1,7,-1
 1158 617 l 1,8,-1
 842 628 l 1,9,-1
 842 750 l 1,10,-1
 1321 750 l 1,11,-1
 1321 91 l 1,12,13
 1289 89 1289 89 1248 72 c 0,14,15
 1033 -16 1033 -16 836 -16 c 128,-1,16
 639 -16 639 -16 510.5 42 c 128,-1,17
 382 100 382 100 293 202 c 0,18,19
 110 413 110 413 110 769 c 128,-1,20
 110 1125 110 1125 308 1331.5 c 128,-1,21
 506 1538 506 1538 815 1538 c 0,22,23
 989 1538 989 1538 1150 1496 c 0,24,25
 1190 1486 1190 1486 1235 1477 c 1,26,-1
 1228 1325 l 1,0,1
EndSplineSet
EndChar

StartChar: H
Encoding: 72 72 64
Width: 1542
GlyphClass: 2
Flags: W
LayerCount: 2
Fore
SplineSet
206 1522 m 1,0,-1
 375 1522 l 1,1,-1
 375 840 l 1,2,-1
 1167 840 l 1,3,-1
 1167 1522 l 1,4,-1
 1336 1522 l 1,5,-1
 1336 0 l 1,6,-1
 1167 0 l 1,7,-1
 1167 710 l 1,8,-1
 375 710 l 1,9,-1
 375 0 l 1,10,-1
 206 0 l 1,11,-1
 206 1522 l 1,0,-1
EndSplineSet
EndChar

StartChar: I
Encoding: 73 73 65
Width: 613
GlyphClass: 2
Flags: W
LayerCount: 2
Fore
SplineSet
221 1522 m 1,0,-1
 392 1522 l 1,1,-1
 392 0 l 1,2,-1
 221 0 l 1,3,-1
 221 1522 l 1,0,-1
EndSplineSet
EndChar

StartChar: J
Encoding: 74 74 66
Width: 694
GlyphClass: 2
Flags: W
LayerCount: 2
Fore
SplineSet
-39 -243 m 1,0,1
 123 -197 123 -197 211 -70 c 0,2,3
 279 28 279 28 289 258 c 0,4,5
 293 348 293 348 293 554 c 2,6,-1
 293 1522 l 1,7,-1
 465 1522 l 1,8,-1
 465 537 l 2,9,10
 465 403 465 403 464.5 284 c 128,-1,11
 464 165 464 165 446 70 c 1,12,13
 415 -104 415 -104 288 -208 c 128,-1,14
 161 -312 161 -312 14 -332 c 1,15,-1
 -39 -243 l 1,0,1
EndSplineSet
EndChar

StartChar: K
Encoding: 75 75 67
Width: 1364
GlyphClass: 2
Flags: W
LayerCount: 2
Fore
SplineSet
206 1522 m 1,0,-1
 375 1522 l 1,1,-1
 375 701 l 1,2,-1
 1050 1522 l 1,3,-1
 1251 1522 l 1,4,-1
 710 876 l 1,5,6
 742 825 742 825 822 706 c 0,7,8
 996 448 996 448 1070.5 336 c 128,-1,9
 1145 224 1145 224 1210 111 c 1,10,-1
 1277 0 l 1,11,-1
 1081 0 l 1,12,13
 1075 9 1075 9 1069.5 19.5 c 128,-1,14
 1064 30 1064 30 1057 43 c 128,-1,15
 1050 56 1050 56 1041 73 c 128,-1,16
 1032 90 1032 90 1006 135.5 c 128,-1,17
 980 181 980 181 927 264.5 c 128,-1,18
 874 348 874 348 816.5 434 c 128,-1,19
 759 520 759 520 703 603 c 128,-1,20
 647 686 647 686 604 753 c 1,21,-1
 375 488 l 1,22,-1
 375 0 l 1,23,-1
 206 0 l 1,24,-1
 206 1522 l 1,0,-1
EndSplineSet
EndChar

StartChar: L
Encoding: 76 76 68
Width: 1066
GlyphClass: 2
Flags: W
LayerCount: 2
Fore
SplineSet
206 1522 m 1,0,-1
 378 1522 l 1,1,-1
 378 133 l 1,2,-1
 1007 133 l 1,3,-1
 1007 0 l 1,4,-1
 206 0 l 1,5,-1
 206 1522 l 1,0,-1
EndSplineSet
EndChar

StartChar: M
Encoding: 77 77 69
Width: 1925
GlyphClass: 2
Flags: W
LayerCount: 2
Fore
SplineSet
311 1522 m 1,0,-1
 551 1522 l 1,1,-1
 888 533 l 1,2,-1
 963 247 l 1,3,-1
 1036 533 l 1,4,-1
 1354 1522 l 1,5,-1
 1582 1522 l 1,6,-1
 1778 0 l 1,7,-1
 1607 0 l 1,8,-1
 1501 947 l 1,9,-1
 1457 1397 l 1,10,-1
 1333 947 l 1,11,-1
 1010 -15 l 1,12,-1
 917 -15 l 1,13,-1
 578 947 l 1,14,-1
 442 1397 l 1,15,-1
 404 947 l 1,16,-1
 313 0 l 1,17,-1
 149 -1 l 1,18,-1
 311 1522 l 1,0,-1
EndSplineSet
EndChar

StartChar: N
Encoding: 78 78 70
Width: 1553
GlyphClass: 2
Flags: W
LayerCount: 2
Fore
SplineSet
205 1522 m 1,0,-1
 362 1522 l 1,1,-1
 1063 462 l 1,2,-1
 1205 215 l 1,3,-1
 1193 526 l 1,4,-1
 1193 1522 l 1,5,-1
 1348 1522 l 1,6,-1
 1348 0 l 1,7,-1
 1193 0 l 1,8,-1
 506 1034 l 1,9,-1
 350 1299 l 1,10,-1
 361 970 l 1,11,-1
 361 0 l 1,12,-1
 205 0 l 1,13,-1
 205 1522 l 1,0,-1
EndSplineSet
EndChar

StartChar: O
Encoding: 79 79 71
Width: 1572
GlyphClass: 2
Flags: W
LayerCount: 2
Fore
SplineSet
497 38 m 0,0,1
 245 154 245 154 154 446 c 0,2,3
 111 587 111 587 111 767.5 c 128,-1,4
 111 948 111 948 168.5 1097 c 128,-1,5
 226 1246 226 1246 320 1342 c 0,6,7
 510 1538 510 1538 812 1538 c 128,-1,8
 1114 1538 1114 1538 1287.5 1330 c 128,-1,9
 1461 1122 1461 1122 1461 786 c 0,10,11
 1461 404 1461 404 1267 194 c 128,-1,12
 1073 -16 1073 -16 764 -16 c 0,13,14
 616 -16 616 -16 497 38 c 0,0,1
313 510 m 0,15,16
 380 267 380 267 565 165 c 0,17,18
 658 114 658 114 777 114 c 0,19,20
 1014 114 1014 114 1151 286.5 c 128,-1,21
 1288 459 1288 459 1289 754.5 c 128,-1,22
 1290 1050 1290 1050 1162.5 1229.5 c 128,-1,23
 1035 1409 1035 1409 806 1409 c 128,-1,24
 577 1409 577 1409 429.5 1239.5 c 128,-1,25
 282 1070 282 1070 282 750 c 0,26,27
 282 623 282 623 313 510 c 0,15,16
EndSplineSet
EndChar

StartChar: P
Encoding: 80 80 72
Width: 1279
GlyphClass: 2
Flags: W
LayerCount: 2
Fore
SplineSet
622 527 m 1,0,-1
 375 535 l 1,1,-1
 375 0 l 1,2,-1
 206 0 l 1,3,-1
 206 1522 l 1,4,-1
 288 1522 l 1,5,-1
 666 1536 l 1,6,7
 1193 1536 1193 1536 1193 1045 c 0,8,9
 1193 799 1193 799 1041.5 664 c 128,-1,10
 890 529 890 529 622 527 c 1,0,-1
798 1395 m 0,11,12
 725 1414 725 1414 604.5 1414 c 128,-1,13
 484 1414 484 1414 375 1398 c 1,14,-1
 375 664 l 1,15,16
 467 652 467 652 583 652 c 0,17,18
 800 653 800 653 912 746 c 128,-1,19
 1024 839 1024 839 1024 1044 c 0,20,21
 1024 1336 1024 1336 798 1395 c 0,11,12
EndSplineSet
EndChar

StartChar: Q
Encoding: 81 81 73
Width: 1570
GlyphClass: 2
Flags: W
LayerCount: 2
Fore
SplineSet
800 -15 m 1,0,-1
 779 -16 l 2,1,2
 771 -16 771 -16 763 -16 c 0,3,4
 464 -16 464 -16 287 197.5 c 128,-1,5
 110 411 110 411 110 747 c 0,6,7
 110 948 110 948 167.5 1097 c 128,-1,8
 225 1246 225 1246 319 1342 c 0,9,10
 509 1538 509 1538 811 1538 c 128,-1,11
 1113 1538 1113 1538 1286.5 1330 c 128,-1,12
 1460 1122 1460 1122 1460 794 c 128,-1,13
 1460 466 1460 466 1322 267.5 c 128,-1,14
 1184 69 1184 69 959 9 c 1,15,16
 1092 -149 1092 -149 1332 -149 c 0,17,18
 1457 -149 1457 -149 1510 -126 c 1,19,-1
 1510 -249 l 1,20,21
 1453 -287 1453 -287 1354 -287 c 0,22,23
 1164 -287 1164 -287 1037.5 -227 c 128,-1,24
 911 -167 911 -167 800 -15 c 1,0,-1
312 510 m 0,25,26
 379 267 379 267 564 165 c 0,27,28
 657 114 657 114 776 114 c 0,29,30
 1013 114 1013 114 1150 286.5 c 128,-1,31
 1287 459 1287 459 1288 754.5 c 128,-1,32
 1289 1050 1289 1050 1161.5 1229.5 c 128,-1,33
 1034 1409 1034 1409 805 1409 c 128,-1,34
 576 1409 576 1409 428.5 1239.5 c 128,-1,35
 281 1070 281 1070 281 750 c 0,36,37
 281 623 281 623 312 510 c 0,25,26
EndSplineSet
EndChar

StartChar: R
Encoding: 82 82 74
Width: 1359
GlyphClass: 2
Flags: W
LayerCount: 2
Fore
SplineSet
684 664 m 1,0,1
 606 661 606 661 530.5 661 c 128,-1,2
 455 661 455 661 375 663 c 1,3,-1
 375 0 l 1,4,-1
 206 0 l 1,5,-1
 206 1522 l 1,6,-1
 252 1522 l 1,7,-1
 306 1523 l 2,8,9
 378 1524 378 1524 472.5 1530 c 128,-1,10
 567 1536 567 1536 666 1536 c 0,11,12
 1188 1536 1188 1536 1188 1116 c 0,13,14
 1188 863 1188 863 1006 746 c 0,15,16
 949 710 949 710 879 690 c 1,17,18
 975 631 975 631 1076 430 c 0,19,20
 1115 352 1115 352 1163 249.5 c 128,-1,21
 1211 147 1211 147 1231.5 110 c 128,-1,22
 1252 73 1252 73 1266 47 c 128,-1,23
 1280 21 1280 21 1294 0 c 1,24,-1
 1102 0 l 1,25,26
 1068 46 1068 46 1023.5 152.5 c 128,-1,27
 979 259 979 259 952 318 c 0,28,29
 883 470 883 470 834 540 c 0,30,31
 761 644 761 644 684 664 c 1,0,1
807 1394 m 128,-1,33
 736 1411 736 1411 601.5 1411 c 128,-1,34
 467 1411 467 1411 375 1395 c 1,35,-1
 375 783 l 1,36,37
 429 777 429 777 533 777 c 2,38,-1
 659 777 l 1,39,40
 912 780 912 780 989 963 c 0,41,42
 1015 1025 1015 1025 1015 1107 c 128,-1,43
 1015 1189 1015 1189 993 1246.5 c 128,-1,44
 971 1304 971 1304 924.5 1340.5 c 128,-1,32
 878 1377 878 1377 807 1394 c 128,-1,33
EndSplineSet
EndChar

StartChar: S
Encoding: 83 83 75
Width: 1154
GlyphClass: 2
Flags: W
LayerCount: 2
Fore
SplineSet
956 1323 m 1,0,1
 828 1405 828 1405 630 1405 c 0,2,3
 495 1405 495 1405 398.5 1348 c 128,-1,4
 302 1291 302 1291 302 1178.5 c 128,-1,5
 302 1066 302 1066 390 986 c 1,6,7
 453 927 453 927 584 864.5 c 128,-1,8
 715 802 715 802 792 760 c 0,9,10
 1068 611 1068 611 1068 385 c 0,11,12
 1068 190 1068 190 932 87 c 128,-1,13
 796 -16 796 -16 579.5 -16 c 128,-1,14
 363 -16 363 -16 199 44 c 0,15,16
 157 60 157 60 136 74 c 1,17,-1
 177 213 l 1,18,19
 276 150 276 150 448 126 c 0,20,21
 503 119 503 119 570 119 c 0,22,23
 720 119 720 119 811 181 c 128,-1,24
 902 243 902 243 902 363.5 c 128,-1,25
 902 484 902 484 800 565 c 0,26,27
 732 619 732 619 598 679.5 c 128,-1,28
 464 740 464 740 392.5 783.5 c 128,-1,29
 321 827 321 827 265 883 c 0,30,31
 140 1008 140 1008 140 1162 c 0,32,33
 140 1415 140 1415 401 1502 c 0,34,35
 507 1538 507 1538 605 1538 c 0,36,37
 865 1538 865 1538 991 1456 c 1,38,-1
 956 1323 l 1,0,1
EndSplineSet
EndChar

StartChar: T
Encoding: 84 84 76
Width: 1279
GlyphClass: 2
Flags: W
LayerCount: 2
Fore
SplineSet
553 1391 m 1,0,-1
 62 1391 l 1,1,-1
 62 1522 l 1,2,-1
 1222 1522 l 1,3,-1
 1222 1391 l 1,4,-1
 724 1391 l 1,5,-1
 724 0 l 1,6,-1
 553 0 l 1,7,-1
 553 1391 l 1,0,-1
EndSplineSet
EndChar

StartChar: U
Encoding: 85 85 77
Width: 1474
GlyphClass: 2
Flags: W
LayerCount: 2
Fore
SplineSet
171 1523 m 1,0,-1
 340 1523 l 1,1,-1
 339 684 l 2,2,3
 339 226 339 226 576 144 c 0,4,5
 653 117 653 117 746 117 c 0,6,7
 941 117 941 117 1038.5 244.5 c 128,-1,8
 1136 372 1136 372 1136 685 c 2,9,-1
 1136 1522 l 1,10,-1
 1304 1522 l 1,11,-1
 1304 645 l 2,12,13
 1304 -16 1304 -16 744 -16 c 0,14,15
 305 -16 305 -16 204 360 c 0,16,17
 171 483 171 483 171 644 c 2,18,-1
 171 1523 l 1,0,-1
EndSplineSet
EndChar

StartChar: V
Encoding: 86 86 78
Width: 1331
GlyphClass: 2
Flags: W
LayerCount: 2
Fore
SplineSet
31 1522 m 1,0,-1
 210 1522 l 1,1,-1
 601 437 l 1,2,-1
 677 193 l 1,3,-1
 753 437 l 1,4,-1
 1123 1522 l 1,5,-1
 1301 1522 l 1,6,-1
 747 -16 l 1,7,-1
 605 -16 l 1,8,-1
 31 1522 l 1,0,-1
EndSplineSet
EndChar

StartChar: W
Encoding: 87 87 79
Width: 1909
GlyphClass: 2
Flags: W
LayerCount: 2
Fore
SplineSet
32 1522 m 1,0,-1
 206 1522 l 1,1,-1
 455 516 l 1,2,-1
 524 181 l 1,3,-1
 598 516 l 1,4,-1
 896 1522 l 1,5,-1
 1021 1522 l 1,6,-1
 1322 516 l 1,7,-1
 1407 184 l 1,8,-1
 1471 515 l 1,9,-1
 1707 1522 l 1,10,-1
 1878 1522 l 1,11,-1
 1486 -16 l 1,12,-1
 1320 -16 l 1,13,-1
 995 1080 l 1,14,-1
 958 1262 l 1,15,-1
 921 1080 l 1,16,-1
 592 -16 l 1,17,-1
 444 -16 l 1,18,-1
 32 1522 l 1,0,-1
EndSplineSet
EndChar

StartChar: X
Encoding: 88 88 80
Width: 1330
GlyphClass: 2
Flags: W
LayerCount: 2
Fore
SplineSet
563 782 m 1,0,-1
 79 1522 l 1,1,-1
 270 1523 l 1,2,-1
 565 1058 l 1,3,-1
 672 881 l 1,4,-1
 777 1058 l 1,5,-1
 1060 1522 l 1,6,-1
 1243 1522 l 1,7,-1
 763 758 l 1,8,-1
 1257 0 l 1,9,-1
 1064 0 l 1,10,-1
 656 655 l 1,11,-1
 256 0 l 1,12,-1
 73 0 l 1,13,-1
 563 782 l 1,0,-1
EndSplineSet
EndChar

StartChar: Y
Encoding: 89 89 81
Width: 1249
GlyphClass: 2
Flags: W
LayerCount: 2
Fore
SplineSet
548 584 m 1,0,-1
 31 1522 l 1,1,-1
 212 1522 l 1,2,-1
 586 821 l 1,3,-1
 637 706 l 1,4,-1
 681 821 l 1,5,-1
 1040 1522 l 1,6,-1
 1219 1522 l 1,7,-1
 720 587 l 1,8,-1
 720 0 l 1,9,-1
 548 0 l 1,10,-1
 548 584 l 1,0,-1
EndSplineSet
EndChar

StartChar: Z
Encoding: 90 90 82
Width: 1309
GlyphClass: 2
Flags: W
LayerCount: 2
Fore
SplineSet
914 1275 m 1,0,-1
 999 1387 l 1,1,-1
 189 1387 l 1,2,-1
 189 1522 l 1,3,-1
 1184 1522 l 1,4,-1
 1220 1458 l 1,5,-1
 415 239 l 1,6,-1
 329 133 l 1,7,-1
 1178 133 l 1,8,-1
 1178 0 l 1,9,-1
 142 0 l 1,10,-1
 106 66 l 1,11,-1
 914 1275 l 1,0,-1
EndSplineSet
EndChar

StartChar: bracketleft
Encoding: 91 91 83
Width: 841
GlyphClass: 2
Flags: W
LayerCount: 2
Fore
SplineSet
688 -171 m 1,0,1
 550 -191 550 -191 440 -191 c 128,-1,2
 330 -191 330 -191 301 -182 c 128,-1,3
 272 -173 272 -173 249 -143 c 128,-1,4
 226 -113 226 -113 226 2 c 2,5,-1
 226 1544 l 2,6,7
 226 1659 226 1659 249 1689 c 128,-1,8
 272 1719 272 1719 301 1728 c 128,-1,9
 330 1737 330 1737 395.5 1737 c 128,-1,10
 461 1737 461 1737 688 1717 c 1,11,-1
 688 1627 l 1,12,-1
 386 1627 l 1,13,-1
 386 -82 l 1,14,-1
 688 -84 l 1,15,-1
 688 -171 l 1,0,1
EndSplineSet
EndChar

StartChar: asciicircum
Encoding: 94 94 86
Width: 1363
GlyphClass: 2
Flags: W
LayerCount: 2
Fore
SplineSet
603 1531 m 1,0,-1
 757 1531 l 1,1,-1
 1174 509 l 1,2,-1
 1014 509 l 1,3,-1
 680 1348 l 1,4,-1
 350 509 l 1,5,-1
 189 509 l 1,6,-1
 603 1531 l 1,0,-1
EndSplineSet
EndChar

StartChar: underscore
Encoding: 95 95 87
Width: 1692
GlyphClass: 2
Flags: W
LayerCount: 2
Fore
SplineSet
1732 -297 m 1,0,-1
 1732 -402 l 1,1,-1
 -40 -402 l 1,2,-1
 -40 -297 l 1,3,-1
 1732 -297 l 1,0,-1
EndSplineSet
EndChar

StartChar: grave
Encoding: 96 96 88
Width: 557
GlyphClass: 2
Flags: W
LayerCount: 2
Fore
SplineSet
170 1781 m 1,0,1
 260 1663 260 1663 507 1383 c 1,2,-1
 422 1315 l 1,3,4
 350 1363 350 1363 230 1477.5 c 128,-1,5
 110 1592 110 1592 50 1678 c 1,6,-1
 170 1781 l 1,0,1
EndSplineSet
EndChar

StartChar: a
Encoding: 97 97 89
Width: 1145
GlyphClass: 2
Flags: W
LayerCount: 2
Fore
SplineSet
136 168 m 128,-1,1
 110 227 110 227 110 320.5 c 128,-1,2
 110 414 110 414 173 492 c 0,3,4
 304 654 304 654 700 678 c 0,5,6
 756 682 756 682 801 682 c 1,7,-1
 801 814 l 2,8,9
 801 944 801 944 737.5 987 c 128,-1,10
 674 1030 674 1030 541 1030 c 128,-1,11
 408 1030 408 1030 261 966 c 0,12,13
 222 949 222 949 200 933 c 1,14,-1
 159 1043 l 1,15,16
 252 1105 252 1105 440 1143 c 0,17,18
 509 1157 509 1157 587 1157 c 0,19,20
 770 1157 770 1157 860 1089 c 0,21,22
 967 1008 967 1008 967 807 c 2,23,-1
 967 -16 l 1,24,-1
 899 -16 l 2,25,26
 850 -16 850 -16 830.5 -2 c 128,-1,27
 811 12 811 12 811 64 c 1,28,-1
 810 106 l 1,29,30
 722 26 722 26 572 -5 c 0,31,32
 518 -16 518 -16 449.5 -16 c 128,-1,33
 381 -16 381 -16 317.5 5.5 c 128,-1,34
 254 27 254 27 208 68 c 128,-1,0
 162 109 162 109 136 168 c 128,-1,1
448 522 m 1,35,36
 275 458 275 458 275 330 c 0,37,38
 275 109 275 109 506 109 c 0,39,40
 647 109 647 109 764 180 c 0,41,42
 791 197 791 197 801 208 c 1,43,-1
 801 575 l 1,44,45
 668 575 668 575 576 556 c 128,-1,46
 484 537 484 537 448 522 c 1,35,36
EndSplineSet
Substitution2: "Single Substitution lookup 16 subtable" ordfeminine
Substitution2: "'aalt' Access All Alternates in Latin lookup 0 subtable" ordfeminine
EndChar

StartChar: b
Encoding: 98 98 90
Width: 1244
GlyphClass: 2
Flags: W
LayerCount: 2
Fore
SplineSet
344 1016 m 1,0,1
 491 1156 491 1156 689.5 1156 c 128,-1,2
 888 1156 888 1156 1014.5 1015 c 128,-1,3
 1141 874 1141 874 1141 603 c 128,-1,4
 1141 332 1141 332 982 157.5 c 128,-1,5
 823 -17 823 -17 567 -17 c 0,6,7
 392 -17 392 -17 237 40 c 0,8,9
 199 54 199 54 184 64 c 1,10,-1
 184 1661 l 1,11,-1
 351 1661 l 1,12,-1
 351 1186 l 1,13,-1
 344 1016 l 1,0,1
351 155 m 1,14,15
 416 106 416 106 581 106 c 128,-1,16
 746 106 746 106 858.5 232.5 c 128,-1,17
 971 359 971 359 971 582 c 0,18,19
 971 1025 971 1025 646 1025 c 0,20,21
 519 1025 519 1025 403 948 c 0,22,23
 372 928 372 928 351 909 c 1,24,-1
 351 155 l 1,14,15
EndSplineSet
EndChar

StartChar: c
Encoding: 99 99 91
Width: 1012
GlyphClass: 2
Flags: W
LayerCount: 2
Fore
SplineSet
892 965 m 1,0,1
 808 1027 808 1027 646.5 1027 c 128,-1,2
 485 1027 485 1027 376.5 909 c 128,-1,3
 268 791 268 791 268 571.5 c 128,-1,4
 268 352 268 352 368.5 231 c 128,-1,5
 469 110 469 110 631.5 110 c 128,-1,6
 794 110 794 110 912 189 c 1,7,-1
 947 93 l 1,8,9
 829 -16 829 -16 599 -16 c 128,-1,10
 369 -16 369 -16 237.5 143.5 c 128,-1,11
 106 303 106 303 106 561.5 c 128,-1,12
 106 820 106 820 247 988 c 128,-1,13
 388 1156 388 1156 644 1156 c 0,14,15
 782 1156 782 1156 880 1118 c 0,16,17
 906 1107 906 1107 921 1097 c 1,18,-1
 892 965 l 1,0,1
EndSplineSet
EndChar

StartChar: d
Encoding: 100 100 92
Width: 1239
GlyphClass: 2
Flags: W
LayerCount: 2
Fore
SplineSet
902 126 m 1,0,1
 760 -16 760 -16 560.5 -16 c 128,-1,2
 361 -16 361 -16 231.5 122 c 128,-1,3
 102 260 102 260 102 533.5 c 128,-1,4
 102 807 102 807 259.5 981.5 c 128,-1,5
 417 1156 417 1156 674 1156 c 0,6,7
 796 1156 796 1156 895 1118 c 1,8,-1
 892 1186 l 1,9,-1
 892 1664 l 1,10,-1
 1059 1664 l 1,11,-1
 1059 -12 l 1,12,-1
 987 -12 l 2,13,14
 922 -12 922 -12 908 20 c 0,15,16
 902 33 902 33 902 57 c 2,17,-1
 902 126 l 1,0,1
892 978 m 1,18,19
 827 1034 827 1034 658.5 1034 c 128,-1,20
 490 1034 490 1034 381.5 905.5 c 128,-1,21
 273 777 273 777 273 555.5 c 128,-1,22
 273 334 273 334 356.5 224.5 c 128,-1,23
 440 115 440 115 599.5 115 c 128,-1,24
 759 115 759 115 892 229 c 1,25,-1
 892 978 l 1,18,19
EndSplineSet
EndChar

StartChar: e
Encoding: 101 101 93
Width: 1128
GlyphClass: 2
Flags: W
LayerCount: 2
Fore
SplineSet
986 89 m 1,0,1
 858 -16 858 -16 568 -16 c 0,2,3
 481 -16 481 -16 388 24 c 0,4,5
 104 145 104 145 104 565 c 0,6,7
 104 829 104 829 240.5 992.5 c 128,-1,8
 377 1156 377 1156 621 1156 c 0,9,10
 798 1156 798 1156 909 1039 c 128,-1,11
 1020 922 1020 922 1022 712 c 0,12,13
 1024 598 1024 598 1015 553 c 1,14,-1
 267 553 l 1,15,16
 267 543 267 543 267 533 c 0,17,18
 267 312 267 312 380 202 c 0,19,20
 475 110 475 110 644 110 c 0,21,22
 766 110 766 110 894 158 c 0,23,24
 931 171 931 171 954 186 c 1,25,-1
 986 89 l 1,0,1
867 665 m 1,26,27
 868 686 868 686 868 723 c 0,28,29
 868 848 868 848 818 930 c 0,30,31
 752 1037 752 1037 605 1037 c 0,32,33
 399 1037 399 1037 314 834 c 0,34,35
 285 764 285 764 274 665 c 1,36,-1
 867 665 l 1,26,27
EndSplineSet
EndChar

StartChar: f
Encoding: 102 102 94
Width: 801
GlyphClass: 2
Flags: W
LayerCount: 2
Fore
SplineSet
800 1528 m 1,0,1
 746 1548 746 1548 648.5 1548 c 128,-1,2
 551 1548 551 1548 495 1477.5 c 128,-1,3
 439 1407 439 1407 439 1268 c 2,4,-1
 439 1140 l 1,5,-1
 742 1140 l 1,6,-1
 742 1014 l 1,7,-1
 439 1014 l 1,8,-1
 439 0 l 1,9,-1
 272 0 l 1,10,-1
 272 1014 l 1,11,-1
 76 1014 l 1,12,-1
 76 1106 l 1,13,-1
 272 1140 l 1,14,-1
 272 1232 l 2,15,16
 272 1465 272 1465 400 1584 c 0,17,18
 506 1682 506 1682 664 1682 c 0,19,20
 744 1682 744 1682 800 1661 c 1,21,-1
 800 1528 l 1,0,1
EndSplineSet
EndChar

StartChar: g
Encoding: 103 103 95
Width: 1224
GlyphClass: 2
Flags: W
LayerCount: 2
Fore
SplineSet
121 -215 m 0,0,1
 121 -42 121 -42 280 46 c 1,2,3
 194 94 194 94 194 217 c 1,4,5
 195 275 195 275 232 335.5 c 128,-1,6
 269 396 269 396 330 440 c 1,7,8
 243 488 243 488 192.5 569 c 128,-1,9
 142 650 142 650 142 755 c 0,10,11
 142 952 142 952 268 1054 c 128,-1,12
 394 1156 394 1156 600 1156 c 0,13,14
 752 1156 752 1156 864 1088 c 1,15,16
 962 1137 962 1137 1084 1137 c 2,17,-1
 1191 1137 l 1,18,-1
 1191 1003 l 1,19,-1
 959 1003 l 1,20,21
 1028 908 1028 908 1028 795 c 0,22,23
 1028 591 1028 591 900.5 485.5 c 128,-1,24
 773 380 773 380 577 380 c 0,25,26
 493 380 493 380 423 401 c 1,27,28
 347 341 347 341 347 264 c 128,-1,29
 347 187 347 187 382 159.5 c 128,-1,30
 417 132 417 132 510 132 c 2,31,-1
 757 132 l 2,32,33
 1079 132 1079 132 1134 -46 c 0,34,35
 1149 -97 1149 -97 1149 -166.5 c 128,-1,36
 1149 -236 1149 -236 1106 -304 c 128,-1,37
 1063 -372 1063 -372 988 -420 c 0,38,39
 834 -517 834 -517 599 -517 c 0,40,41
 254 -517 254 -517 155 -340 c 0,42,43
 121 -279 121 -279 121 -215 c 0,0,1
580 492 m 0,44,45
 862 492 862 492 862 772 c 0,46,47
 862 908 862 908 790 975 c 128,-1,48
 718 1042 718 1042 596 1042 c 0,49,50
 395 1042 395 1042 332 899 c 0,51,52
 308 846 308 846 308 776 c 0,53,54
 308 644 308 644 380 568 c 128,-1,55
 452 492 452 492 580 492 c 0,44,45
376 10 m 1,56,57
 284 -66 284 -66 284 -180 c 128,-1,58
 284 -294 284 -294 363 -348 c 128,-1,59
 442 -402 442 -402 605 -402 c 0,60,61
 860 -402 860 -402 956 -282 c 0,62,63
 989 -241 989 -241 989 -189 c 0,64,65
 989 -85 989 -85 922 -42.5 c 128,-1,66
 855 0 855 0 689 0 c 2,67,-1
 535 0 l 2,68,69
 435 0 435 0 376 10 c 1,56,57
EndSplineSet
EndChar

StartChar: h
Encoding: 104 104 96
Width: 1309
GlyphClass: 2
Flags: W
LayerCount: 2
Fore
SplineSet
193 1664 m 1,0,-1
 360 1664 l 1,1,-1
 360 1157 l 1,2,-1
 352 1001 l 1,3,4
 478 1099 478 1099 648 1141 c 0,5,6
 713 1157 713 1157 790 1157 c 0,7,8
 962 1157 962 1157 1042.5 1050 c 128,-1,9
 1123 943 1123 943 1123 677 c 2,10,-1
 1123 0 l 1,11,-1
 956 0 l 1,12,-1
 956 689 l 2,13,14
 956 876 956 876 902.5 946.5 c 128,-1,15
 849 1017 849 1017 718 1017 c 0,16,17
 541 1017 541 1017 360 879 c 1,18,-1
 360 0 l 1,19,-1
 193 0 l 1,20,-1
 193 1664 l 1,0,-1
EndSplineSet
EndChar

StartChar: k
Encoding: 107 107 99
Width: 1166
GlyphClass: 2
Flags: W
LayerCount: 2
Fore
SplineSet
188 1661 m 1,0,-1
 354 1661 l 1,1,-1
 354 708 l 1,2,-1
 350 585 l 1,3,-1
 887 1139 l 1,4,-1
 1085 1139 l 1,5,-1
 640 692 l 1,6,-1
 1134 0 l 1,7,-1
 943 0 l 1,8,-1
 529 581 l 1,9,-1
 350 401 l 1,10,-1
 354 224 l 1,11,-1
 354 0 l 1,12,-1
 188 0 l 1,13,-1
 188 1661 l 1,0,-1
EndSplineSet
EndChar

StartChar: l
Encoding: 108 108 100
Width: 594
GlyphClass: 2
Flags: W
LayerCount: 2
Fore
SplineSet
214 1664 m 1,0,-1
 381 1664 l 1,1,-1
 381 0 l 1,2,-1
 214 0 l 1,3,-1
 214 1664 l 1,0,-1
EndSplineSet
EndChar

StartChar: m
Encoding: 109 109 101
Width: 1978
GlyphClass: 2
Flags: W
LayerCount: 2
Fore
SplineSet
1073 894 m 1,0,1
 1086 822 1086 822 1086 708 c 2,2,-1
 1086 0 l 1,3,-1
 919 0 l 1,4,-1
 919 697 l 2,5,6
 919 879 919 879 876 947.5 c 128,-1,7
 833 1016 833 1016 708 1016 c 128,-1,8
 583 1016 583 1016 436 930 c 0,9,10
 394 906 394 906 360 878 c 1,11,-1
 360 0 l 1,12,-1
 193 0 l 1,13,-1
 193 1139 l 1,14,-1
 342 1139 l 1,15,-1
 343 993 l 1,16,17
 465 1092 465 1092 642 1140 c 0,18,19
 707 1157 707 1157 764 1157 c 0,20,21
 877 1157 877 1157 942.5 1123 c 128,-1,22
 1008 1089 1008 1089 1044 1004 c 1,23,24
 1168 1101 1168 1101 1337 1142 c 0,25,26
 1401 1157 1401 1157 1476 1157 c 0,27,28
 1641 1157 1641 1157 1716.5 1056.5 c 128,-1,29
 1792 956 1792 956 1792 703 c 2,30,-1
 1792 0 l 1,31,-1
 1626 0 l 1,32,-1
 1626 695 l 2,33,34
 1626 870 1626 870 1582 943.5 c 128,-1,35
 1538 1017 1538 1017 1395 1017 c 128,-1,36
 1252 1017 1252 1017 1073 894 c 1,0,1
EndSplineSet
EndChar

StartChar: n
Encoding: 110 110 102
Width: 1288
GlyphClass: 2
Flags: W
LayerCount: 2
Fore
SplineSet
193 1139 m 1,0,-1
 342 1139 l 1,1,-1
 343 993 l 1,2,3
 471 1091 471 1091 638 1138 c 0,4,5
 704 1157 704 1157 781 1157 c 0,6,7
 951 1157 951 1157 1027 1056 c 128,-1,8
 1103 955 1103 955 1103 705 c 2,9,-1
 1103 0 l 1,10,-1
 936 0 l 1,11,-1
 936 706 l 2,12,13
 936 883 936 883 887 950.5 c 128,-1,14
 838 1018 838 1018 709 1018 c 128,-1,15
 580 1018 580 1018 433 929 c 0,16,17
 392 904 392 904 360 878 c 1,18,-1
 360 0 l 1,19,-1
 193 0 l 1,20,-1
 193 1139 l 1,0,-1
EndSplineSet
EndChar

StartChar: o
Encoding: 111 111 103
Width: 1223
GlyphClass: 2
Flags: W
LayerCount: 2
Fore
SplineSet
216 166 m 1,0,1
 105 323 105 323 105 592 c 0,2,3
 105 721 105 721 146.5 829.5 c 128,-1,4
 188 938 188 938 258 1010 c 0,5,6
 398 1156 398 1156 637 1156 c 128,-1,7
 876 1156 876 1156 1006 976 c 0,8,9
 1118 820 1118 820 1118 556 c 128,-1,10
 1118 292 1118 292 973.5 138 c 128,-1,11
 829 -16 829 -16 588 -16 c 128,-1,12
 347 -16 347 -16 216 166 c 1,0,1
949 561 m 0,13,14
 949 888 949 888 767 997 c 0,15,16
 703 1035 703 1035 620 1035 c 0,17,18
 457 1035 457 1035 366 918.5 c 128,-1,19
 275 802 275 802 275 590 c 128,-1,20
 275 378 275 378 359 240.5 c 128,-1,21
 443 103 443 103 606 103 c 128,-1,22
 769 103 769 103 859 225 c 128,-1,23
 949 347 949 347 949 561 c 0,13,14
EndSplineSet
Substitution2: "Single Substitution lookup 16 subtable" ordmasculine
Substitution2: "'aalt' Access All Alternates in Latin lookup 0 subtable" ordmasculine
EndChar

StartChar: p
Encoding: 112 112 104
Width: 1247
GlyphClass: 2
Flags: W
LayerCount: 2
Fore
SplineSet
575 -16 m 0,0,1
 449 -16 449 -16 350 22 c 1,2,-1
 353 -139 l 1,3,-1
 353 -506 l 1,4,-1
 187 -506 l 1,5,-1
 187 1140 l 1,6,-1
 337 1140 l 1,7,-1
 338 1007 l 1,8,9
 487 1156 487 1156 686 1156 c 128,-1,10
 885 1156 885 1156 1014.5 1017.5 c 128,-1,11
 1144 879 1144 879 1144 606 c 128,-1,12
 1144 333 1144 333 987 158.5 c 128,-1,13
 830 -16 830 -16 575 -16 c 0,0,1
888.5 917 m 128,-1,15
 803 1025 803 1025 645.5 1025 c 128,-1,16
 488 1025 488 1025 353 909 c 1,17,-1
 353 163 l 1,18,19
 420 106 420 106 588 106 c 128,-1,20
 756 106 756 106 865 235 c 128,-1,21
 974 364 974 364 974 586.5 c 128,-1,14
 974 809 974 809 888.5 917 c 128,-1,15
EndSplineSet
EndChar

StartChar: q
Encoding: 113 113 105
Width: 1238
GlyphClass: 2
Flags: W
LayerCount: 2
Fore
SplineSet
897 120 m 1,0,1
 755 -16 755 -16 558 -16 c 128,-1,2
 361 -16 361 -16 231.5 122 c 128,-1,3
 102 260 102 260 102 533.5 c 128,-1,4
 102 807 102 807 259.5 981.5 c 128,-1,5
 417 1156 417 1156 674 1156 c 0,6,7
 805 1156 805 1156 915 1114 c 1,8,-1
 915 1116 l 1,9,-1
 1060 1144 l 1,10,-1
 1060 -506 l 1,11,-1
 893 -506 l 1,12,-1
 893 -139 l 1,13,-1
 897 120 l 1,0,1
893 978 m 1,14,15
 827 1034 827 1034 658.5 1034 c 128,-1,16
 490 1034 490 1034 381.5 905.5 c 128,-1,17
 273 777 273 777 273 555.5 c 128,-1,18
 273 334 273 334 356.5 224.5 c 128,-1,19
 440 115 440 115 600 115 c 128,-1,20
 760 115 760 115 893 229 c 1,21,-1
 893 978 l 1,14,15
EndSplineSet
EndChar

StartChar: r
Encoding: 114 114 106
Width: 826
GlyphClass: 2
Flags: W
LayerCount: 2
Fore
SplineSet
675 1009 m 0,0,1
 484 1009 484 1009 352 877 c 1,2,-1
 352 0 l 1,3,-1
 185 0 l 1,4,-1
 185 1139 l 1,5,-1
 327 1139 l 1,6,-1
 337 987 l 1,7,8
 413 1085 413 1085 574 1138 c 0,9,10
 628 1156 628 1156 694.5 1156 c 128,-1,11
 761 1156 761 1156 792 1143 c 1,12,-1
 792 986 l 1,13,14
 746 1009 746 1009 675 1009 c 0,0,1
EndSplineSet
EndChar

StartChar: s
Encoding: 115 115 107
Width: 984
GlyphClass: 2
Flags: W
LayerCount: 2
Fore
SplineSet
149 192 m 1,0,1
 217 145 217 145 374 118 c 0,2,3
 558 86 558 86 657 152 c 0,4,5
 727 199 727 199 727 285 c 0,6,7
 727 397 727 397 555 471 c 0,8,9
 506 492 506 492 447.5 516 c 128,-1,10
 389 540 389 540 330 572 c 0,11,12
 132 682 132 682 132 863 c 0,13,14
 132 1007 132 1007 245.5 1081.5 c 128,-1,15
 359 1156 359 1156 511 1156 c 128,-1,16
 663 1156 663 1156 779 1116 c 0,17,18
 808 1106 808 1106 823 1097 c 1,19,-1
 795 970 l 1,20,21
 741 1010 741 1010 618 1026 c 0,22,23
 578 1032 578 1032 536 1032 c 0,24,25
 413 1032 413 1032 350 988 c 128,-1,26
 287 944 287 944 287 872 c 0,27,28
 287 758 287 758 434 686 c 0,29,30
 480 664 480 664 536 642 c 0,31,32
 689 584 689 584 766 522 c 0,33,34
 883 428 883 428 883 288 c 128,-1,35
 883 148 883 148 775.5 66 c 128,-1,36
 668 -16 668 -16 494 -16 c 128,-1,37
 320 -16 320 -16 187 35 c 0,38,39
 148 50 148 50 123 66 c 1,40,-1
 149 192 l 1,0,1
EndSplineSet
EndChar

StartChar: t
Encoding: 116 116 108
Width: 849
GlyphClass: 2
Flags: W
LayerCount: 2
Fore
SplineSet
240 1014 m 1,0,-1
 81 1014 l 1,1,-1
 81 1105 l 1,2,3
 109 1113 109 1113 137 1119 c 128,-1,4
 165 1125 165 1125 204.5 1136.5 c 128,-1,5
 244 1148 244 1148 253.5 1172.5 c 128,-1,6
 263 1197 263 1197 278.5 1279.5 c 128,-1,7
 294 1362 294 1362 306 1400 c 1,8,-1
 406 1400 l 1,9,-1
 406 1140 l 1,10,-1
 760 1140 l 1,11,-1
 760 1014 l 1,12,-1
 406 1014 l 1,13,-1
 406 364 l 2,14,15
 406 203 406 203 440 156 c 0,16,17
 467 118 467 118 550 118 c 0,18,19
 611 118 611 118 678.5 137 c 128,-1,20
 746 156 746 156 772 175 c 1,21,-1
 801 78 l 1,22,23
 729 19 729 19 582 -8 c 0,24,25
 539 -16 539 -16 493 -16 c 0,26,27
 377 -16 377 -16 318 36 c 1,28,29
 240 102 240 102 240 270 c 2,30,-1
 240 1014 l 1,0,-1
EndSplineSet
EndChar

StartChar: u
Encoding: 117 117 109
Width: 1249
GlyphClass: 2
Flags: W
LayerCount: 2
Fore
SplineSet
916 117 m 1,0,1
 726 -16 726 -16 487 -16 c 0,2,3
 407 -16 407 -16 341 19.5 c 128,-1,4
 275 55 275 55 240 119 c 0,5,6
 183 223 183 223 183 471 c 2,7,-1
 183 1140 l 1,8,-1
 349 1140 l 1,9,-1
 349 464 l 2,10,11
 349 255 349 255 398 188.5 c 128,-1,12
 447 122 447 122 575.5 122 c 128,-1,13
 704 122 704 122 837 192 c 0,14,15
 873 211 873 211 897 229 c 1,16,-1
 897 1140 l 1,17,-1
 1064 1140 l 1,18,-1
 1064 -12 l 1,19,-1
 1000 -12 l 2,20,21
 934 -12 934 -12 922 20 c 1,22,23
 916 33 916 33 916 56 c 2,24,-1
 916 117 l 1,0,1
EndSplineSet
EndChar

StartChar: v
Encoding: 118 118 110
Width: 1114
GlyphClass: 2
Flags: W
LayerCount: 2
Fore
SplineSet
37 1140 m 1,0,-1
 217 1140 l 1,1,-1
 476 432 l 1,2,-1
 566 154 l 1,3,-1
 650 432 l 1,4,-1
 899 1140 l 1,5,-1
 1077 1140 l 1,6,-1
 635 -18 l 1,7,-1
 493 -18 l 1,8,-1
 37 1140 l 1,0,-1
EndSplineSet
EndChar

StartChar: w
Encoding: 119 119 111
Width: 1635
GlyphClass: 2
Flags: W
LayerCount: 2
Fore
SplineSet
39 1140 m 1,0,-1
 206 1140 l 1,1,-1
 435 357 l 1,2,-1
 478 177 l 1,3,-1
 518 357 l 1,4,-1
 739 1140 l 1,5,-1
 904 1140 l 1,6,-1
 1127 357 l 1,7,-1
 1169 173 l 1,8,-1
 1212 352 l 1,9,-1
 1433 1140 l 1,10,-1
 1596 1140 l 1,11,-1
 1241 -18 l 1,12,-1
 1087 -18 l 1,13,-1
 850 819 l 1,14,-1
 820 966 l 1,15,-1
 788 819 l 1,16,-1
 556 -18 l 1,17,-1
 398 -18 l 1,18,-1
 39 1140 l 1,0,-1
EndSplineSet
EndChar

StartChar: x
Encoding: 120 120 112
Width: 1137
GlyphClass: 2
Flags: W
LayerCount: 2
Fore
SplineSet
480 576 m 1,0,-1
 74 1140 l 1,1,-1
 263 1140 l 1,2,-1
 535 742 l 1,3,-1
 573 680 l 1,4,-1
 609 747 l 1,5,-1
 881 1140 l 1,6,-1
 1068 1140 l 1,7,-1
 660 579 l 1,8,-1
 1071 0 l 1,9,-1
 878 0 l 1,10,-1
 603 407 l 1,11,-1
 563 470 l 1,12,-1
 526 400 l 1,13,-1
 265 0 l 1,14,-1
 74 0 l 1,15,-1
 480 576 l 1,0,-1
EndSplineSet
EndChar

StartChar: y
Encoding: 121 121 113
Width: 1107
GlyphClass: 2
Flags: W
LayerCount: 2
Fore
SplineSet
120 -356 m 1,0,1
 161 -368 161 -368 211 -368 c 0,2,3
 318 -368 318 -368 399.5 -285.5 c 128,-1,4
 481 -203 481 -203 533 0 c 1,5,-1
 484 0 l 1,6,-1
 56 1140 l 1,7,-1
 234 1140 l 1,8,-1
 584 134 l 1,9,-1
 887 1140 l 1,10,-1
 1067 1140 l 1,11,-1
 675 -29 l 2,12,13
 570 -343 570 -343 438 -442 c 0,14,15
 351 -507 351 -507 210 -507 c 0,16,17
 139 -507 139 -507 120 -493 c 1,18,-1
 120 -356 l 1,0,1
EndSplineSet
EndChar

StartChar: z
Encoding: 122 122 114
Width: 1072
GlyphClass: 2
Flags: W
LayerCount: 2
Fore
SplineSet
93 65 m 1,0,-1
 758 1012 l 1,1,-1
 142 1012 l 1,2,-1
 142 1140 l 1,3,-1
 954 1140 l 1,4,-1
 983 1066 l 1,5,-1
 318 122 l 1,6,-1
 973 122 l 1,7,-1
 973 0 l 1,8,-1
 127 0 l 1,9,-1
 93 65 l 1,0,-1
EndSplineSet
EndChar

StartChar: braceleft
Encoding: 123 123 115
Width: 986
GlyphClass: 2
Flags: W
LayerCount: 2
Fore
SplineSet
823 -167 m 1,0,1
 702 -195 702 -195 591 -195 c 128,-1,2
 480 -195 480 -195 450 -185.5 c 128,-1,3
 420 -176 420 -176 402 -154 c 0,4,5
 369 -112 369 -112 369 2 c 2,6,-1
 369 585 l 2,7,8
 369 633 369 633 211 693 c 0,9,10
 166 710 166 710 118 724 c 1,11,-1
 118 834 l 1,12,13
 252 879 252 879 291 897 c 0,14,15
 369 935 369 935 369 969 c 2,16,-1
 369 1544 l 2,17,18
 369 1660 369 1660 394 1691 c 128,-1,19
 419 1722 419 1722 449.5 1731.5 c 128,-1,20
 480 1741 480 1741 564.5 1741 c 128,-1,21
 649 1741 649 1741 823 1721 c 1,22,-1
 823 1629 l 1,23,-1
 528 1629 l 1,24,-1
 528 972 l 2,25,26
 528 923 528 923 491 892 c 1,27,28
 456 857 456 857 382 823 c 128,-1,29
 308 789 308 789 283 778 c 1,30,31
 445 707 445 707 486.5 665.5 c 128,-1,32
 528 624 528 624 528 582 c 2,33,-1
 528 -82 l 1,34,-1
 823 -82 l 1,35,-1
 823 -167 l 1,0,1
EndSplineSet
EndChar

StartChar: bar
Encoding: 124 124 116
Width: 842
GlyphClass: 2
Flags: W
LayerCount: 2
Fore
SplineSet
344 1780 m 1,0,-1
 498 1780 l 1,1,-1
 498 -187 l 1,2,-1
 344 -187 l 1,3,-1
 344 1780 l 1,0,-1
EndSplineSet
EndChar

StartChar: asciitilde
Encoding: 126 126 118
Width: 1438
GlyphClass: 2
Flags: W
LayerCount: 2
Fore
SplineSet
523 833 m 0,0,1
 399 833 399 833 310 707 c 1,2,-1
 222 776 l 1,3,4
 254 848 254 848 338 911.5 c 128,-1,5
 422 975 422 975 529 975 c 128,-1,6
 636 975 636 975 738 889 c 0,7,8
 802 834 802 834 840 818.5 c 128,-1,9
 878 803 878 803 916 803 c 0,10,11
 1046 803 1046 803 1136 928 c 1,12,-1
 1215 852 l 1,13,14
 1161 725 1161 725 1018 677 c 0,15,16
 967 660 967 660 912.5 660 c 128,-1,17
 858 660 858 660 822 673 c 128,-1,18
 786 686 786 686 756 705 c 128,-1,19
 726 724 726 724 700 746 c 0,20,21
 602 833 602 833 523 833 c 0,0,1
EndSplineSet
EndChar

StartChar: cent
Encoding: 162 162 122
Width: 1194
GlyphClass: 2
Flags: W
LayerCount: 2
Fore
SplineSet
956 965 m 1,0,1
 872 1027 872 1027 710.5 1027 c 128,-1,2
 549 1027 549 1027 440.5 909 c 128,-1,3
 332 791 332 791 332 571.5 c 128,-1,4
 332 352 332 352 432.5 231 c 128,-1,5
 533 110 533 110 695.5 110 c 128,-1,6
 858 110 858 110 976 189 c 1,7,-1
 1011 93 l 1,8,9
 910 1 910 1 715 -14 c 1,10,-1
 712 -216 l 1,11,-1
 597 -216 l 1,12,-1
 601 -12 l 1,13,14
 398 9 398 9 284 165 c 128,-1,15
 170 321 170 321 170 561 c 128,-1,16
 170 801 170 801 293.5 964.5 c 128,-1,17
 417 1128 417 1128 640 1152 c 1,18,-1
 646 1373 l 1,19,-1
 760 1373 l 1,20,-1
 754 1154 l 1,21,22
 917 1144 917 1144 985 1097 c 1,23,-1
 956 965 l 1,0,1
EndSplineSet
EndChar

StartChar: sterling
Encoding: 163 163 123
Width: 1546
GlyphClass: 2
Flags: W
LayerCount: 2
Fore
SplineSet
962 96 m 0,0,1
 1235 96 1235 96 1235 327 c 0,2,3
 1235 408 1235 408 1182 470 c 0,4,5
 1166 490 1166 490 1146 500 c 1,6,-1
 1265 561 l 1,7,8
 1346 512 1346 512 1382 395 c 0,9,10
 1393 357 1393 357 1393 299.5 c 128,-1,11
 1393 242 1393 242 1370 179 c 0,12,13
 1296 -24 1296 -24 982 -24 c 0,14,15
 861 -24 861 -24 769.5 -0.5 c 128,-1,16
 678 23 678 23 594 49.5 c 128,-1,17
 510 76 510 76 464 76 c 128,-1,18
 418 76 418 76 391 68 c 1,19,20
 323 -10 323 -10 227 -10 c 0,21,22
 175 -10 175 -10 149 28 c 0,23,24
 141 39 141 39 141 60 c 0,25,26
 141 111 141 111 194 149.5 c 128,-1,27
 247 188 247 188 353 194 c 1,28,29
 361 209 361 209 376 232 c 0,30,31
 442 336 442 336 442 465 c 2,32,-1
 442 764 l 1,33,-1
 259 764 l 1,34,-1
 259 880 l 1,35,-1
 442 880 l 1,36,-1
 442 1057 l 2,37,38
 442 1271 442 1271 567.5 1404.5 c 128,-1,39
 693 1538 693 1538 904 1538 c 128,-1,40
 1115 1538 1115 1538 1234 1444 c 1,41,-1
 1154 1322 l 1,42,43
 1056 1411 1056 1411 888 1411 c 0,44,45
 697 1411 697 1411 632 1216 c 0,46,47
 609 1146 609 1146 609 1044 c 0,48,49
 609 1039 609 1039 609 1035 c 2,50,-1
 609 880 l 1,51,-1
 994 880 l 1,52,-1
 994 764 l 1,53,-1
 610 764 l 1,54,-1
 610 659 l 2,55,56
 610 647 610 647 610 636 c 0,57,58
 610 280 610 280 504 169 c 1,59,60
 513 169 513 169 541 169 c 0,61,62
 588 169 588 169 722 132.5 c 128,-1,63
 856 96 856 96 962 96 c 0,0,1
EndSplineSet
EndChar

StartChar: currency
Encoding: 164 164 124
Width: 1530
GlyphClass: 2
Flags: W
LayerCount: 2
Fore
SplineSet
1016 388 m 1,0,1
 902 310 902 310 765 310 c 128,-1,2
 628 310 628 310 516 385 c 1,3,-1
 313 180 l 1,4,-1
 216 277 l 1,5,-1
 416 477 l 1,6,7
 322 596 322 596 322 751 c 0,8,9
 322 905 322 905 415 1023 c 1,10,-1
 216 1223 l 1,11,-1
 311 1321 l 1,12,-1
 514 1116 l 1,13,14
 628 1192 628 1192 765 1192 c 128,-1,15
 902 1192 902 1192 1016 1114 c 1,16,-1
 1221 1318 l 1,17,-1
 1318 1222 l 1,18,-1
 1115 1019 l 1,19,20
 1206 900 1206 900 1206 749.5 c 128,-1,21
 1206 599 1206 599 1114 482 c 1,22,-1
 1314 282 l 1,23,-1
 1218 186 l 1,24,-1
 1016 388 l 1,0,1
457 751 m 256,25,26
 457 620 457 620 547.5 527.5 c 128,-1,27
 638 435 638 435 764.5 435 c 128,-1,28
 891 435 891 435 980.5 528 c 128,-1,29
 1070 621 1070 621 1070 751 c 256,30,31
 1070 881 1070 881 980.5 974 c 128,-1,32
 891 1067 891 1067 764.5 1067 c 128,-1,33
 638 1067 638 1067 547.5 974.5 c 128,-1,34
 457 882 457 882 457 751 c 256,25,26
EndSplineSet
EndChar

StartChar: yen
Encoding: 165 165 125
Width: 1542
GlyphClass: 2
Flags: W
LayerCount: 2
Fore
SplineSet
283 432 m 1,0,-1
 689 432 l 1,1,-1
 689 689 l 1,2,-1
 283 689 l 1,3,-1
 283 799 l 1,4,-1
 657 799 l 1,5,-1
 188 1522 l 1,6,-1
 370 1522 l 1,7,-1
 700 988 l 1,8,-1
 773 849 l 1,9,-1
 842 993 l 1,10,-1
 1178 1522 l 1,11,-1
 1356 1522 l 1,12,-1
 880 799 l 1,13,-1
 1245 799 l 1,14,-1
 1245 689 l 1,15,-1
 855 689 l 1,16,-1
 855 432 l 1,17,-1
 1245 432 l 1,18,-1
 1245 322 l 1,19,-1
 855 322 l 1,20,-1
 855 0 l 1,21,-1
 689 0 l 1,22,-1
 689 322 l 1,23,-1
 283 322 l 1,24,-1
 283 432 l 1,0,-1
EndSplineSet
EndChar

StartChar: brokenbar
Encoding: 166 166 126
Width: 842
GlyphClass: 2
Flags: W
LayerCount: 2
Fore
SplineSet
344 1780 m 1,0,-1
 498 1780 l 1,1,-1
 498 946 l 1,2,-1
 344 946 l 1,3,-1
 344 1780 l 1,0,-1
344 645 m 1,4,-1
 498 645 l 1,5,-1
 498 -186 l 1,6,-1
 344 -186 l 1,7,-1
 344 645 l 1,4,-1
EndSplineSet
EndChar

StartChar: section
Encoding: 167 167 127
Width: 1358
GlyphClass: 2
Flags: W
LayerCount: 2
Fore
SplineSet
1028 356 m 1,0,1
 1136 266 1136 266 1136 140 c 0,2,3
 1136 -88 1136 -88 871 -164 c 0,4,5
 772 -193 772 -193 673 -193 c 0,6,7
 512 -193 512 -193 397 -164.5 c 128,-1,8
 282 -136 282 -136 227 -100 c 1,9,-1
 260 27 l 1,10,11
 339 -32 339 -32 516 -58 c 0,12,13
 579 -67 579 -67 647 -67 c 0,14,15
 792 -67 792 -67 888 -20.5 c 128,-1,16
 984 26 984 26 984 123 c 128,-1,17
 984 220 984 220 864 292 c 0,18,19
 801 330 801 330 665 384 c 128,-1,20
 529 438 529 438 460 472 c 0,21,22
 218 590 218 590 218 783 c 0,23,24
 218 953 218 953 358 1086 c 1,25,26
 230 1190 230 1190 230 1342 c 0,27,28
 230 1522 230 1522 386 1606 c 0,29,30
 511 1673 511 1673 726.5 1673 c 128,-1,31
 942 1673 942 1673 1060 1600 c 1,32,-1
 1027 1473 l 1,33,34
 922 1547 922 1547 702 1547 c 128,-1,35
 482 1547 482 1547 410 1448 c 0,36,37
 383 1412 383 1412 383 1355 c 128,-1,38
 383 1298 383 1298 415.5 1251.5 c 128,-1,39
 448 1205 448 1205 501.5 1167.5 c 128,-1,40
 555 1130 555 1130 623.5 1099 c 128,-1,41
 692 1068 692 1068 764 1036 c 0,42,43
 945 955 945 955 1026 884 c 0,44,45
 1144 780 1144 780 1144 630.5 c 128,-1,46
 1144 481 1144 481 1028 356 c 1,0,1
446 1028 m 1,47,48
 371 907 371 907 371 810 c 0,49,50
 371 665 371 665 568 574 c 0,51,52
 631 544 631 544 754.5 495.5 c 128,-1,53
 878 447 878 447 935 417 c 1,54,55
 992 524 992 524 992 595 c 128,-1,56
 992 666 992 666 967.5 712 c 128,-1,57
 943 758 943 758 901 794.5 c 128,-1,58
 859 831 859 831 804 860 c 128,-1,59
 749 889 749 889 688 916 c 128,-1,60
 627 943 627 943 564.5 969.5 c 128,-1,61
 502 996 502 996 446 1028 c 1,47,48
EndSplineSet
EndChar

StartChar: dieresis
Encoding: 168 168 128
Width: 782
GlyphClass: 2
Flags: W
LayerCount: 2
Fore
SplineSet
626 1633 m 0,0,1
 725 1633 725 1633 725 1528 c 0,2,3
 725 1474 725 1474 690.5 1441 c 128,-1,4
 656 1408 656 1408 611 1408 c 128,-1,5
 566 1408 566 1408 537.5 1435.5 c 128,-1,6
 509 1463 509 1463 509 1502 c 0,7,8
 509 1565 509 1565 545 1599 c 128,-1,9
 581 1633 581 1633 626 1633 c 0,0,1
175 1633 m 0,10,11
 274 1633 274 1633 274 1528 c 0,12,13
 274 1474 274 1474 239.5 1441 c 128,-1,14
 205 1408 205 1408 160 1408 c 128,-1,15
 115 1408 115 1408 86 1435.5 c 128,-1,16
 57 1463 57 1463 57 1502 c 0,17,18
 57 1565 57 1565 93 1599 c 128,-1,19
 129 1633 129 1633 175 1633 c 0,10,11
EndSplineSet
EndChar

StartChar: copyright
Encoding: 169 169 129
Width: 2133
GlyphClass: 2
Flags: W
LayerCount: 2
Fore
SplineSet
204 964 m 0,0,1
 204 1324 204 1324 455 1578 c 0,2,3
 533 1657 533 1657 629 1713 c 0,4,5
 831 1831 831 1831 1066 1831 c 256,6,7
 1301 1831 1301 1831 1499 1715.5 c 128,-1,8
 1697 1600 1697 1600 1813 1401 c 128,-1,9
 1929 1202 1929 1202 1929 965 c 0,10,11
 1929 727 1929 727 1813 527.5 c 128,-1,12
 1697 328 1697 328 1499.5 211.5 c 128,-1,13
 1302 95 1302 95 1066 95 c 256,14,15
 830 95 830 95 633 211 c 128,-1,16
 436 327 436 327 320 527 c 128,-1,17
 204 727 204 727 204 964 c 0,0,1
313 965 m 0,18,19
 313 643 313 643 529 420 c 1,20,21
 667 276 667 276 862 222 c 1,22,23
 959 194 959 194 1066 194 c 0,24,25
 1276 194 1276 194 1448.5 297 c 128,-1,26
 1621 400 1621 400 1720 577 c 128,-1,27
 1819 754 1819 754 1819 965 c 0,28,29
 1819 1285 1819 1285 1603 1508 c 1,30,31
 1465 1652 1465 1652 1270 1706 c 1,32,33
 1173 1734 1173 1734 1066 1734 c 0,34,35
 856 1734 856 1734 683.5 1631 c 128,-1,36
 511 1528 511 1528 412 1351 c 128,-1,37
 313 1174 313 1174 313 965 c 0,18,19
1342 667 m 1,38,-1
 1377 571 l 1,39,40
 1331 534 1331 534 1251 507.5 c 128,-1,41
 1171 481 1171 481 1070 481 c 0,42,43
 871 481 871 481 749 621 c 128,-1,44
 627 761 627 761 627 968.5 c 128,-1,45
 627 1176 627 1176 755 1313.5 c 128,-1,46
 883 1451 883 1451 1115 1451 c 0,47,48
 1257 1451 1257 1451 1357 1387 c 1,49,-1
 1331 1263 l 1,50,51
 1235 1331 1235 1331 1092.5 1331 c 128,-1,52
 950 1331 950 1331 862.5 1232 c 128,-1,53
 775 1133 775 1133 775 968.5 c 128,-1,54
 775 804 775 804 861 702.5 c 128,-1,55
 947 601 947 601 1084.5 601 c 128,-1,56
 1222 601 1222 601 1342 667 c 1,38,-1
EndSplineSet
EndChar

StartChar: ordfeminine
Encoding: 170 170 130
Width: 1032
GlyphClass: 2
Flags: W
LayerCount: 2
Fore
SplineSet
432 678 m 0,0,1
 307 678 307 678 223 742 c 128,-1,2
 139 806 139 806 139 924 c 0,3,4
 139 1098 139 1098 318 1165 c 0,5,6
 469 1222 469 1222 717 1222 c 1,7,-1
 717 1301 l 2,8,9
 717 1405 717 1405 668 1442 c 128,-1,10
 619 1479 619 1479 504.5 1479 c 128,-1,11
 390 1479 390 1479 255 1420 c 0,12,13
 222 1405 222 1405 206 1393 c 1,14,-1
 163 1486 l 1,15,16
 198 1518 198 1518 314 1557.5 c 128,-1,17
 430 1597 430 1597 520 1597 c 0,18,19
 698 1597 698 1597 783 1530.5 c 128,-1,20
 868 1464 868 1464 868 1304 c 2,21,-1
 868 685 l 1,22,-1
 814 685 l 2,23,24
 762 685 762 685 744 693 c 128,-1,25
 726 701 726 701 726 741 c 2,26,-1
 726 772 l 1,27,28
 610 678 610 678 432 678 c 0,0,1
672 837 m 0,29,30
 700 849 700 849 717 860 c 1,31,-1
 717 1128 l 1,32,33
 481 1128 481 1128 412 1095.5 c 128,-1,34
 343 1063 343 1063 315 1029 c 128,-1,35
 287 995 287 995 287 930.5 c 128,-1,36
 287 866 287 866 336 828 c 128,-1,37
 385 790 385 790 473.5 790 c 128,-1,38
 562 790 562 790 672 837 c 0,29,30
EndSplineSet
EndChar

StartChar: logicalnot
Encoding: 172 172 132
Width: 1470
GlyphClass: 2
Flags: W
LayerCount: 2
Fore
SplineSet
235 852 m 1,0,-1
 1225 852 l 1,1,-1
 1225 323 l 1,2,-1
 1073 323 l 1,3,-1
 1073 726 l 1,4,-1
 235 726 l 1,5,-1
 235 852 l 1,0,-1
EndSplineSet
EndChar

StartChar: registered
Encoding: 174 174 133
Width: 2133
GlyphClass: 2
Flags: W
LayerCount: 2
Fore
SplineSet
204 964 m 0,0,1
 204 1324 204 1324 455 1578 c 0,2,3
 533 1657 533 1657 629 1713 c 0,4,5
 831 1831 831 1831 1066 1831 c 256,6,7
 1301 1831 1301 1831 1499 1715.5 c 128,-1,8
 1697 1600 1697 1600 1813 1401 c 128,-1,9
 1929 1202 1929 1202 1929 965 c 0,10,11
 1929 727 1929 727 1813 527.5 c 128,-1,12
 1697 328 1697 328 1499.5 211.5 c 128,-1,13
 1302 95 1302 95 1066 95 c 256,14,15
 830 95 830 95 633 211 c 128,-1,16
 436 327 436 327 320 527 c 128,-1,17
 204 727 204 727 204 964 c 0,0,1
313 965 m 0,18,19
 313 643 313 643 529 420 c 1,20,21
 667 276 667 276 862 222 c 1,22,23
 959 194 959 194 1066 194 c 0,24,25
 1276 194 1276 194 1448.5 297 c 128,-1,26
 1621 400 1621 400 1720 577 c 128,-1,27
 1819 754 1819 754 1819 965 c 0,28,29
 1819 1285 1819 1285 1603 1508 c 1,30,31
 1465 1652 1465 1652 1270 1706 c 1,32,33
 1173 1734 1173 1734 1066 1734 c 0,34,35
 856 1734 856 1734 683.5 1631 c 128,-1,36
 511 1528 511 1528 412 1351 c 128,-1,37
 313 1174 313 1174 313 965 c 0,18,19
1433 1181 m 0,38,39
 1433 933 1433 933 1213 883 c 1,40,41
 1283 839 1283 839 1356 680 c 0,42,43
 1391 605 1391 605 1424.5 556.5 c 128,-1,44
 1458 508 1458 508 1476 482 c 1,45,-1
 1320 483 l 1,46,47
 1276 537 1276 537 1240 621.5 c 128,-1,48
 1204 706 1204 706 1181 746 c 0,49,50
 1126 843 1126 843 1059 863 c 1,51,-1
 887 863 l 1,52,-1
 887 482 l 1,53,-1
 752 482 l 1,54,-1
 752 1444 l 1,55,-1
 826 1444 l 1,56,-1
 1076 1450 l 1,57,58
 1254 1450 1254 1450 1343.5 1375 c 128,-1,59
 1433 1300 1433 1300 1433 1181 c 0,38,39
1050 1349 m 0,60,61
 988 1349 988 1349 887 1339 c 1,62,-1
 887 964 l 1,63,64
 911 961 911 961 982 961 c 2,65,-1
 1061 961 l 1,66,67
 1174 963 1174 963 1233.5 1010.5 c 128,-1,68
 1293 1058 1293 1058 1293 1164 c 0,69,70
 1293 1349 1293 1349 1050 1349 c 0,60,61
EndSplineSet
EndChar

StartChar: macron
Encoding: 175 175 134
Width: 643
GlyphClass: 2
Flags: W
LayerCount: 2
Fore
SplineSet
50 1576 m 1,0,-1
 593 1576 l 1,1,-1
 593 1452 l 1,2,-1
 50 1452 l 1,3,-1
 50 1576 l 1,0,-1
EndSplineSet
EndChar

StartChar: degree
Encoding: 176 176 135
Width: 909
GlyphClass: 2
Flags: W
LayerCount: 2
Fore
SplineSet
219 1041.5 m 128,-1,1
 121 1136 121 1136 121 1278.5 c 128,-1,2
 121 1421 121 1421 217 1515 c 128,-1,3
 313 1609 313 1609 453.5 1609 c 128,-1,4
 594 1609 594 1609 690.5 1514 c 128,-1,5
 787 1419 787 1419 787 1277.5 c 128,-1,6
 787 1136 787 1136 692.5 1041.5 c 128,-1,7
 598 947 598 947 457.5 947 c 128,-1,0
 317 947 317 947 219 1041.5 c 128,-1,1
613.5 1115 m 128,-1,9
 677 1180 677 1180 677 1276.5 c 128,-1,10
 677 1373 677 1373 612.5 1439 c 128,-1,11
 548 1505 548 1505 453.5 1505 c 128,-1,12
 359 1505 359 1505 295.5 1440 c 128,-1,13
 232 1375 232 1375 232 1278.5 c 128,-1,14
 232 1182 232 1182 296.5 1116 c 128,-1,15
 361 1050 361 1050 455.5 1050 c 128,-1,8
 550 1050 550 1050 613.5 1115 c 128,-1,9
EndSplineSet
EndChar

StartChar: plusminus
Encoding: 177 177 136
Width: 1393
GlyphClass: 2
Flags: W
LayerCount: 2
Fore
SplineSet
251 126 m 1,0,-1
 1141 126 l 1,1,-1
 1141 0 l 1,2,-1
 251 0 l 1,3,-1
 251 126 l 1,0,-1
627 539 m 1,4,-1
 632 711 l 1,5,-1
 469 706 l 1,6,-1
 232 706 l 1,7,-1
 232 840 l 1,8,-1
 469 840 l 1,9,-1
 632 832 l 1,10,-1
 627 1003 l 1,11,-1
 627 1247 l 1,12,-1
 763 1247 l 1,13,-1
 763 1003 l 1,14,-1
 757 832 l 1,15,-1
 906 840 l 1,16,-1
 1161 840 l 1,17,-1
 1161 706 l 1,18,-1
 906 706 l 1,19,-1
 757 711 l 1,20,-1
 763 539 l 1,21,-1
 763 288 l 1,22,-1
 627 288 l 1,23,-1
 627 539 l 1,4,-1
EndSplineSet
EndChar

StartChar: twosuperior
Encoding: 178 178 137
Width: 1194
GlyphClass: 2
Flags: W
LayerCount: 2
Fore
SplineSet
552 1576 m 0,0,1
 372 1576 372 1576 247 1417 c 1,2,-1
 177 1501 l 1,3,4
 258 1627 258 1627 446 1680 c 0,5,6
 509 1697 509 1697 592 1697 c 0,7,8
 756 1697 756 1697 847 1609 c 128,-1,9
 938 1521 938 1521 938 1394 c 1,10,11
 934 1075 934 1075 460 801 c 1,12,-1
 1005 805 l 1,13,-1
 1005 679 l 1,14,-1
 231 679 l 1,15,-1
 198 765 l 1,16,17
 398 861 398 861 570 1018 c 0,18,19
 775 1204 775 1204 775 1367 c 0,20,21
 775 1472 775 1472 716.5 1524 c 128,-1,22
 658 1576 658 1576 552 1576 c 0,0,1
EndSplineSet
EndChar

StartChar: threesuperior
Encoding: 179 179 138
Width: 1194
GlyphClass: 2
Flags: W
LayerCount: 2
Fore
SplineSet
917 1462 m 0,0,1
 917 1279 917 1279 701 1190 c 1,2,3
 844 1186 844 1186 916 1109 c 128,-1,4
 988 1032 988 1032 988 946 c 0,5,6
 988 781 988 781 873 684.5 c 128,-1,7
 758 588 758 588 537 588 c 0,8,9
 429 588 429 588 308 626 c 1,10,-1
 298 736 l 1,11,12
 404 702 404 702 505 702 c 0,13,14
 680 703 680 703 753.5 764.5 c 128,-1,15
 827 826 827 826 827 926 c 0,16,17
 827 929 827 929 827 950.5 c 128,-1,18
 827 972 827 972 811 1007.5 c 128,-1,19
 795 1043 795 1043 764 1069 c 0,20,21
 697 1124 697 1124 584 1126 c 1,22,-1
 465 1093 l 1,23,-1
 436 1191 l 1,24,25
 515 1207 515 1207 599 1241 c 0,26,27
 764 1309 764 1309 764 1439 c 0,28,29
 764 1547 764 1547 643 1580 c 0,30,31
 612 1589 612 1589 572 1589 c 0,32,33
 428 1589 428 1589 303 1499 c 1,34,-1
 255 1591 l 1,35,36
 340 1662 340 1662 494 1690 c 0,37,38
 543 1699 543 1699 603 1699 c 0,39,40
 739 1699 739 1699 828 1633.5 c 128,-1,41
 917 1568 917 1568 917 1462 c 0,0,1
EndSplineSet
EndChar

StartChar: acute
Encoding: 180 180 139
Width: 557
GlyphClass: 2
Flags: W
LayerCount: 2
Fore
SplineSet
50 1383 m 1,0,1
 277 1630 277 1630 387 1781 c 1,2,-1
 507 1678 l 1,3,4
 436 1574 436 1574 256 1412 c 0,5,6
 180 1343 180 1343 136 1315 c 1,7,-1
 50 1383 l 1,0,1
EndSplineSet
EndChar

StartChar: mu
Encoding: 181 181 140
Width: 1359
GlyphClass: 2
Flags: W
LayerCount: 2
Fore
SplineSet
955 138 m 1,0,1
 809 -16 809 -16 619 -16 c 128,-1,2
 429 -16 429 -16 348 113 c 1,3,-1
 372 -371 l 1,4,-1
 216 -371 l 1,5,-1
 216 1140 l 1,6,-1
 382 1140 l 1,7,-1
 382 384 l 2,8,9
 382 117 382 117 645 115 c 1,10,11
 779 115 779 115 933 235 c 1,12,-1
 933 1140 l 1,13,-1
 1099 1140 l 1,14,-1
 1099 228 l 2,15,16
 1099 140 1099 140 1122 126 c 0,17,18
 1130 121 1130 121 1140 121 c 0,19,20
 1180 121 1180 121 1230 163 c 1,21,-1
 1254 87 l 1,22,23
 1239 59 1239 59 1181.5 23 c 128,-1,24
 1124 -13 1124 -13 1063 -13 c 0,25,26
 955 -13 955 -13 955 120 c 0,27,28
 955 129 955 129 955 138 c 1,0,1
EndSplineSet
EndChar

StartChar: paragraph
Encoding: 182 182 141
Width: 1319
GlyphClass: 2
Flags: W
LayerCount: 2
Fore
SplineSet
954 1579 m 1,0,-1
 702 1586 l 1,1,-1
 672 1586 l 1,2,-1
 672 0 l 1,3,-1
 532 0 l 1,4,-1
 532 832 l 1,5,6
 309 832 309 832 200 938.5 c 128,-1,7
 91 1045 91 1045 91 1261.5 c 128,-1,8
 91 1478 91 1478 234 1594.5 c 128,-1,9
 377 1711 377 1711 649 1711 c 1,10,-1
 1094 1689 l 1,11,-1
 1094 0 l 1,12,-1
 954 0 l 1,13,-1
 954 1579 l 1,0,-1
EndSplineSet
EndChar

StartChar: cedilla
Encoding: 184 184 143
Width: 468
GlyphClass: 2
Flags: W
LayerCount: 2
Fore
SplineSet
293 -180 m 1,0,1
 296 -146 296 -146 296 -93.5 c 128,-1,2
 296 -41 296 -41 268 21 c 1,3,-1
 332 25 l 1,4,-1
 366 21 l 1,5,6
 418 -48 418 -48 418 -188 c 0,7,8
 418 -405 418 -405 271 -452 c 0,9,10
 231 -464 231 -464 200 -464 c 0,11,12
 90 -464 90 -464 48 -436 c 1,13,-1
 60 -327 l 1,14,15
 89 -345 89 -345 149.5 -345 c 128,-1,16
 210 -345 210 -345 249 -307 c 128,-1,17
 288 -269 288 -269 293 -180 c 1,0,1
EndSplineSet
EndChar

StartChar: onesuperior
Encoding: 185 185 144
Width: 1009
GlyphClass: 2
Flags: W
LayerCount: 2
Fore
SplineSet
479 1487 m 1,0,1
 450 1479 450 1479 371 1446 c 128,-1,2
 292 1413 292 1413 240 1402 c 1,3,-1
 208 1494 l 1,4,5
 329 1529 329 1529 500 1646 c 0,6,7
 540 1673 540 1673 558 1688 c 1,8,-1
 640 1667 l 1,9,-1
 640 662 l 1,10,-1
 479 662 l 1,11,-1
 479 1487 l 1,0,1
EndSplineSet
EndChar

StartChar: ordmasculine
Encoding: 186 186 145
Width: 1033
GlyphClass: 2
Flags: W
LayerCount: 2
Fore
SplineSet
502 675 m 0,0,1
 417 675 417 675 342 708 c 0,2,3
 194 775 194 775 140 953 c 0,4,5
 114 1037 114 1037 114 1140 c 0,6,7
 114 1371 114 1371 253 1494 c 0,8,9
 368 1597 368 1597 543 1597 c 128,-1,10
 718 1597 718 1597 818.5 1472 c 128,-1,11
 919 1347 919 1347 919 1126.5 c 128,-1,12
 919 906 919 906 788 780 c 0,13,14
 679 675 679 675 502 675 c 0,0,1
415 813 m 0,15,16
 459 789 459 789 516 789 c 0,17,18
 630 789 630 789 694.5 872 c 128,-1,19
 759 955 759 955 761 1129 c 1,20,21
 761 1385 761 1385 626 1460 c 0,22,23
 537 1510 537 1510 428 1466 c 0,24,25
 383 1447 383 1447 348 1407 c 0,26,27
 273 1319 273 1319 273 1148 c 0,28,29
 273 891 273 891 415 813 c 0,15,16
EndSplineSet
EndChar

StartChar: Aring
Encoding: 197 197 156
Width: 1393
GlyphClass: 2
Flags: W
LayerCount: 2
Fore
SplineSet
594 1469 m 1,0,1
 495 1492 495 1492 441.5 1555.5 c 128,-1,2
 388 1619 388 1619 388 1714 c 0,3,4
 388 1848 388 1848 480 1910 c 128,-1,5
 572 1972 572 1972 699 1972 c 0,6,7
 920 1972 920 1972 986 1828 c 0,8,9
 1007 1781 1007 1781 1006 1724 c 1,10,11
 1006 1621 1006 1621 952.5 1558.5 c 128,-1,12
 899 1496 899 1496 811 1473 c 1,13,-1
 1361 0 l 1,14,-1
 1178 0 l 1,15,-1
 1031 418 l 1,16,-1
 366 418 l 1,17,-1
 213 0 l 1,18,-1
 33 0 l 1,19,-1
 594 1469 l 1,0,1
695 1556 m 1,20,21
 832 1556 832 1556 874 1643 c 0,22,23
 889 1674 889 1674 889 1716 c 0,24,25
 889 1796 889 1796 836 1836.5 c 128,-1,26
 783 1877 783 1877 698 1877 c 0,27,28
 570 1877 570 1877 524 1796 c 0,29,30
 507 1766 507 1766 507 1705 c 128,-1,31
 507 1644 507 1644 556 1601 c 128,-1,32
 605 1558 605 1558 695 1556 c 1,20,21
987 545 m 1,33,-1
 743 1240 l 1,34,-1
 705 1360 l 1,35,-1
 667 1239 l 1,36,-1
 412 545 l 1,37,-1
 987 545 l 1,33,-1
EndSplineSet
EndChar

StartChar: AE
Encoding: 198 198 157
Width: 1850
GlyphClass: 2
Flags: W
LayerCount: 2
Fore
SplineSet
676 1522 m 1,0,-1
 1710 1522 l 1,1,-1
 1710 1391 l 1,2,-1
 1008 1391 l 1,3,-1
 1008 850 l 1,4,-1
 1534 850 l 1,5,-1
 1534 719 l 1,6,-1
 1008 719 l 1,7,-1
 1008 133 l 1,8,-1
 1784 133 l 1,9,-1
 1784 0 l 1,10,-1
 839 0 l 1,11,-1
 839 417 l 1,12,-1
 333 417 l 1,13,-1
 134 0 l 1,14,-1
 -55 0 l 1,15,-1
 676 1522 l 1,0,-1
839 544 m 1,16,-1
 839 1410 l 1,17,-1
 807 1410 l 1,18,-1
 393 544 l 1,19,-1
 839 544 l 1,16,-1
EndSplineSet
EndChar

StartChar: Ccedilla
Encoding: 199 199 158
Width: 1328
GlyphClass: 2
Flags: W
LayerCount: 2
Fore
SplineSet
522 -327 m 1,0,1
 551 -345 551 -345 611.5 -345 c 128,-1,2
 672 -345 672 -345 711 -307 c 0,3,4
 758 -261 758 -261 758 -124 c 0,5,6
 758 -62 758 -62 743 -14 c 1,7,8
 452 4 452 4 279.5 214 c 128,-1,9
 107 424 107 424 107 771.5 c 128,-1,10
 107 1119 107 1119 306 1328.5 c 128,-1,11
 505 1538 505 1538 803 1538 c 0,12,13
 1005 1538 1005 1538 1144 1495 c 0,14,15
 1177 1485 1177 1485 1200 1480 c 1,16,-1
 1176 1330 l 1,17,18
 1159 1336 1159 1336 1132 1347.5 c 128,-1,19
 1105 1359 1105 1359 1029 1379.5 c 128,-1,20
 953 1400 953 1400 823 1400 c 0,21,22
 570 1400 570 1400 422.5 1232 c 128,-1,23
 275 1064 275 1064 275 773 c 128,-1,24
 275 482 275 482 416 300 c 128,-1,25
 557 118 557 118 802 118 c 0,26,27
 997 118 997 118 1140 179 c 0,28,29
 1177 195 1177 195 1197 208 c 1,30,-1
 1199 64 l 1,31,32
 1167 53 1167 53 1134 40 c 0,33,34
 1009 -7 1009 -7 849 -14 c 1,35,36
 880 -84 880 -84 880 -188 c 0,37,38
 880 -405 880 -405 733 -452 c 0,39,40
 693 -464 693 -464 662 -464 c 0,41,42
 552 -464 552 -464 510 -436 c 1,43,-1
 522 -327 l 1,0,1
EndSplineSet
EndChar

StartChar: Eth
Encoding: 208 208 167
Width: 1479
GlyphClass: 2
Flags: W
LayerCount: 2
Fore
SplineSet
317 -2 m 1,0,-1
 224 0 l 1,1,-1
 206 0 l 1,2,-1
 206 737 l 1,3,-1
 62 737 l 1,4,-1
 62 851 l 1,5,-1
 206 851 l 1,6,-1
 206 1522 l 1,7,8
 236 1522 236 1522 266 1522 c 2,9,-1
 326 1523 l 1,10,-1
 664 1536 l 1,11,12
 1022 1536 1022 1536 1203 1346 c 128,-1,13
 1384 1156 1384 1156 1384 791 c 128,-1,14
 1384 426 1384 426 1189.5 205 c 128,-1,15
 995 -16 995 -16 657 -16 c 1,16,-1
 317 -2 l 1,0,-1
879 1377 m 0,17,18
 769 1413 769 1413 645 1413 c 128,-1,19
 521 1413 521 1413 375 1399 c 1,20,-1
 375 851 l 1,21,-1
 809 851 l 1,22,-1
 809 737 l 1,23,-1
 375 737 l 1,24,-1
 375 128 l 1,25,26
 712 81 712 81 885 152 c 0,27,28
 985 192 985 192 1056 274 c 0,29,30
 1208 448 1208 448 1208 789 c 0,31,32
 1208 1269 1208 1269 879 1377 c 0,17,18
EndSplineSet
EndChar

StartChar: multiply
Encoding: 215 215 174
Width: 1370
GlyphClass: 2
Flags: W
LayerCount: 2
Fore
SplineSet
250 424 m 1,0,-1
 598 771 l 1,1,-1
 250 1127 l 1,2,-1
 349 1224 l 1,3,-1
 686 862 l 1,4,-1
 1022 1224 l 1,5,-1
 1121 1127 l 1,6,-1
 773 774 l 1,7,-1
 1121 424 l 1,8,-1
 1022 326 l 1,9,-1
 686 680 l 1,10,-1
 349 326 l 1,11,-1
 250 424 l 1,0,-1
EndSplineSet
EndChar

StartChar: Oslash
Encoding: 216 216 175
Width: 1572
GlyphClass: 2
Flags: W
LayerCount: 2
Fore
SplineSet
476 48 m 1,0,1
 299 135 299 135 205 320.5 c 128,-1,2
 111 506 111 506 111 741 c 0,3,4
 111 1128 111 1128 320 1342 c 1,5,6
 508 1536 508 1536 810 1538 c 0,7,8
 911 1538 911 1538 1003 1512 c 1,9,-1
 1081 1730 l 1,10,-1
 1177 1702 l 1,11,-1
 1096 1477 l 1,12,13
 1272 1393 1272 1393 1366.5 1211 c 128,-1,14
 1461 1029 1461 1029 1461 784 c 0,15,16
 1461 404 1461 404 1267 194 c 128,-1,17
 1073 -16 1073 -16 765 -16 c 0,18,19
 659 -16 659 -16 569 11 c 1,20,-1
 495 -194 l 1,21,-1
 399 -167 l 1,22,-1
 476 48 l 1,0,1
957 1385 m 1,23,24
 886 1409 886 1409 790.5 1408.5 c 128,-1,25
 695 1408 695 1408 600 1367 c 128,-1,26
 505 1326 505 1326 434 1245 c 0,27,28
 282 1070 282 1070 282 768 c 128,-1,29
 282 466 282 466 420 289 c 0,30,31
 466 229 466 229 527 188 c 1,32,-1
 957 1385 l 1,23,24
616 142 m 1,33,34
 692 114 692 114 774 114 c 0,35,36
 1014 114 1014 114 1151 286.5 c 128,-1,37
 1288 459 1288 459 1289 760.5 c 128,-1,38
 1290 1062 1290 1062 1152 1242 c 0,39,40
 1107 1301 1107 1301 1047 1340 c 1,41,-1
 616 142 l 1,33,34
EndSplineSet
EndChar

StartChar: Thorn
Encoding: 222 222 181
Width: 1269
GlyphClass: 2
Flags: W
LayerCount: 2
Fore
SplineSet
617 292 m 0,0,1
 591 292 591 292 375 304 c 1,2,-1
 375 0 l 1,3,-1
 206 0 l 1,4,-1
 206 1522 l 1,5,-1
 375 1522 l 1,6,-1
 375 1230 l 1,7,8
 616 1248 616 1248 702 1248 c 128,-1,9
 788 1248 788 1248 884 1221.5 c 128,-1,10
 980 1195 980 1195 1046 1139 c 0,11,12
 1185 1022 1185 1022 1185 785 c 128,-1,13
 1185 548 1185 548 1035.5 420 c 128,-1,14
 886 292 886 292 617 292 c 0,0,1
631 1126 m 0,15,16
 508 1126 508 1126 375 1104 c 1,17,-1
 375 429 l 1,18,19
 492 415 492 415 592 415 c 0,20,21
 798 415 798 415 907 501 c 128,-1,22
 1016 587 1016 587 1016 790 c 0,23,24
 1016 1126 1016 1126 631 1126 c 0,15,16
EndSplineSet
EndChar

StartChar: germandbls
Encoding: 223 223 182
Width: 1271
GlyphClass: 2
Flags: W
LayerCount: 2
Fore
SplineSet
602 149 m 1,0,1
 693 102 693 102 839.5 102 c 128,-1,2
 986 102 986 102 1040 207 c 0,3,4
 1058 243 1058 243 1058 299 c 128,-1,5
 1058 355 1058 355 1031.5 400.5 c 128,-1,6
 1005 446 1005 446 965 484.5 c 128,-1,7
 925 523 925 523 879 558 c 0,8,9
 701 696 701 696 701 855 c 0,10,11
 701 949 701 949 808.5 1064.5 c 128,-1,12
 916 1180 916 1180 916 1286 c 0,13,14
 916 1377 916 1377 853 1418.5 c 128,-1,15
 790 1460 790 1460 703 1460 c 0,16,17
 358 1460 358 1460 358 975 c 2,18,-1
 358 0 l 1,19,-1
 191 0 l 1,20,-1
 191 1014 l 1,21,-1
 44 1014 l 1,22,-1
 44 1113 l 1,23,-1
 204 1143 l 1,24,25
 242 1362 242 1362 381 1470.5 c 128,-1,26
 520 1579 520 1579 717 1579 c 0,27,28
 869 1579 869 1579 975.5 1509 c 128,-1,29
 1082 1439 1082 1439 1082 1305.5 c 128,-1,30
 1082 1172 1082 1172 969 1055 c 0,31,32
 895 978 895 978 875.5 943.5 c 128,-1,33
 856 909 856 909 856 866 c 128,-1,34
 856 823 856 823 883.5 784.5 c 128,-1,35
 911 746 911 746 952 711 c 128,-1,36
 993 676 993 676 1042 640 c 0,37,38
 1227 505 1227 505 1227 311 c 0,39,40
 1227 144 1227 144 1100 58 c 0,41,42
 992 -16 992 -16 838 -16 c 128,-1,43
 684 -16 684 -16 602 17 c 1,44,-1
 602 149 l 1,0,1
EndSplineSet
EndChar

StartChar: ae
Encoding: 230 230 189
Width: 1826
GlyphClass: 2
Flags: W
LayerCount: 2
Fore
SplineSet
889 188 m 1,0,1
 722 -16 722 -16 461 -16 c 0,2,3
 306 -16 306 -16 208 69.5 c 128,-1,4
 110 155 110 155 110 284.5 c 128,-1,5
 110 414 110 414 175 492 c 0,6,7
 333 682 333 682 799 682 c 1,8,-1
 799 801 l 2,9,10
 799 941 799 941 730 991 c 0,11,12
 676 1030 676 1030 548 1030 c 128,-1,13
 420 1030 420 1030 268 964 c 0,14,15
 228 947 228 947 204 931 c 1,16,-1
 162 1043 l 1,17,18
 252 1103 252 1103 450 1143 c 0,19,20
 519 1157 519 1157 585 1157 c 0,21,22
 724 1157 724 1157 807 1116.5 c 128,-1,23
 890 1076 890 1076 924 975 c 1,24,25
 1065 1156 1065 1156 1319 1156 c 0,26,27
 1497 1156 1497 1156 1607 1038.5 c 128,-1,28
 1717 921 1717 921 1721 728 c 1,29,30
 1721 593 1721 593 1713 553 c 1,31,-1
 965 553 l 1,32,33
 965 543 965 543 965 533 c 0,34,35
 965 308 965 308 1078 200 c 0,36,37
 1171 111 1171 111 1340 111 c 0,38,39
 1466 111 1466 111 1593 158 c 0,40,41
 1630 171 1630 171 1653 186 c 1,42,-1
 1686 89 l 1,43,44
 1594 16 1594 16 1408 -8 c 0,45,46
 1351 -16 1351 -16 1298 -16 c 0,47,48
 1016 -16 1016 -16 889 188 c 1,0,1
1564 665 m 1,49,50
 1565 686 1565 686 1565 723 c 0,51,52
 1565 848 1565 848 1515 930 c 0,53,54
 1449 1037 1449 1037 1302 1037 c 0,55,56
 1097 1037 1097 1037 1012 834 c 0,57,58
 983 764 983 764 972 665 c 1,59,-1
 1564 665 l 1,49,50
448 522 m 1,60,61
 278 459 278 459 278 329 c 0,62,63
 278 109 278 109 503 109 c 0,64,65
 606 109 606 109 704 163.5 c 128,-1,66
 802 218 802 218 844 282 c 1,67,68
 801 399 801 399 801 565 c 2,69,-1
 801 575 l 1,70,71
 573 575 573 575 448 522 c 1,60,61
EndSplineSet
EndChar

StartChar: ccedilla
Encoding: 231 231 190
Width: 1012
GlyphClass: 2
Flags: W
LayerCount: 2
Fore
SplineSet
304 -327 m 1,0,1
 333 -345 333 -345 393.5 -345 c 128,-1,2
 454 -345 454 -345 493 -307 c 0,3,4
 540 -261 540 -261 540 -122 c 0,5,6
 540 -57 540 -57 524 -11 c 1,7,8
 328 15 328 15 217 169.5 c 128,-1,9
 106 324 106 324 106 572 c 128,-1,10
 106 820 106 820 247 988 c 128,-1,11
 388 1156 388 1156 644 1156 c 0,12,13
 782 1156 782 1156 880 1118 c 0,14,15
 906 1107 906 1107 921 1097 c 1,16,-1
 892 965 l 1,17,18
 808 1027 808 1027 646.5 1027 c 128,-1,19
 485 1027 485 1027 376.5 909 c 128,-1,20
 268 791 268 791 268 571.5 c 128,-1,21
 268 352 268 352 368.5 231 c 128,-1,22
 469 110 469 110 631.5 110 c 128,-1,23
 794 110 794 110 912 189 c 1,24,-1
 947 93 l 1,25,26
 839 -4 839 -4 631 -15 c 1,27,28
 662 -85 662 -85 662 -188 c 0,29,30
 662 -405 662 -405 515 -452 c 0,31,32
 475 -464 475 -464 444 -464 c 0,33,34
 334 -464 334 -464 292 -436 c 1,35,-1
 304 -327 l 1,0,1
EndSplineSet
EndChar

StartChar: idieresis
Encoding: 239 239 198
Width: 588
GlyphClass: 2
Flags: W
LayerCount: 2
Fore
SplineSet
507 1633 m 0,0,1
 606 1633 606 1633 606 1528 c 0,2,3
 606 1474 606 1474 571.5 1441 c 128,-1,4
 537 1408 537 1408 492 1408 c 128,-1,5
 447 1408 447 1408 418 1435.5 c 128,-1,6
 389 1463 389 1463 389 1502 c 0,7,8
 389 1565 389 1565 425 1599 c 128,-1,9
 461 1633 461 1633 507 1633 c 0,0,1
101 1633 m 0,10,11
 199 1633 199 1633 199 1528 c 0,12,13
 199 1474 199 1474 164.5 1441 c 128,-1,14
 130 1408 130 1408 85.5 1408 c 128,-1,15
 41 1408 41 1408 12 1435.5 c 128,-1,16
 -17 1463 -17 1463 -17 1502 c 0,17,18
 -17 1565 -17 1565 19 1599 c 128,-1,19
 55 1633 55 1633 101 1633 c 0,10,11
211 1139 m 1,20,-1
 377 1139 l 1,21,-1
 377 0 l 1,22,-1
 211 0 l 1,23,-1
 211 1139 l 1,20,-1
EndSplineSet
EndChar

StartChar: eth
Encoding: 240 240 199
Width: 1207
GlyphClass: 2
Flags: W
LayerCount: 2
Fore
SplineSet
563 1634 m 1,0,1
 628 1705 628 1705 698 1793 c 1,2,-1
 788 1724 l 1,3,4
 765 1697 765 1697 743 1672.5 c 128,-1,5
 721 1648 721 1648 697.5 1621.5 c 128,-1,6
 674 1595 674 1595 653 1573 c 1,7,8
 754 1506 754 1506 846 1393 c 1,9,10
 1116 1066 1116 1066 1116 612 c 0,11,12
 1116 301 1116 301 979 137 c 128,-1,13
 842 -27 842 -27 612 -27 c 128,-1,14
 382 -27 382 -27 245.5 129 c 128,-1,15
 109 285 109 285 109 560 c 128,-1,16
 109 835 109 835 250.5 995 c 128,-1,17
 392 1155 392 1155 620 1155 c 1,18,19
 776 1153 776 1153 884 1043 c 1,20,21
 794 1310 794 1310 571 1483 c 1,22,-1
 430 1323 l 1,23,-1
 341 1393 l 1,24,-1
 482 1546 l 1,25,26
 351 1629 351 1629 245 1662 c 1,27,-1
 285 1759 l 1,28,29
 421 1717 421 1717 563 1634 c 1,0,1
371 214 m 128,-1,31
 467 88 467 88 613.5 88 c 128,-1,32
 760 88 760 88 854.5 212.5 c 128,-1,33
 949 337 949 337 949 552.5 c 128,-1,34
 949 768 949 768 940 851 c 1,35,36
 903 972 903 972 744 1016 c 0,37,38
 690 1030 690 1030 616.5 1030 c 128,-1,39
 543 1030 543 1030 477.5 996.5 c 128,-1,40
 412 963 412 963 367 902 c 0,41,42
 275 777 275 777 275 558.5 c 128,-1,30
 275 340 275 340 371 214 c 128,-1,31
EndSplineSet
EndChar

StartChar: divide
Encoding: 247 247 206
Width: 1393
GlyphClass: 2
Flags: W
LayerCount: 2
Fore
SplineSet
819 1196 m 0,0,1
 819 1098 819 1098 741 1067 c 0,2,3
 718 1058 718 1058 683.5 1058 c 128,-1,4
 649 1058 649 1058 618 1087 c 128,-1,5
 587 1116 587 1116 587 1157 c 0,6,7
 587 1226 587 1226 625 1262.5 c 128,-1,8
 663 1299 663 1299 714.5 1299 c 128,-1,9
 766 1299 766 1299 792.5 1267.5 c 128,-1,10
 819 1236 819 1236 819 1196 c 0,0,1
232 839 m 1,11,-1
 1161 839 l 1,12,-1
 1161 709 l 1,13,-1
 232 709 l 1,14,-1
 232 839 l 1,11,-1
617.5 290 m 128,-1,16
 586 319 586 319 586 360 c 0,17,18
 586 428 586 428 624 464.5 c 128,-1,19
 662 501 662 501 713.5 501 c 128,-1,20
 765 501 765 501 791.5 469.5 c 128,-1,21
 818 438 818 438 818 398 c 0,22,23
 818 332 818 332 781 296.5 c 128,-1,24
 744 261 744 261 696.5 261 c 128,-1,15
 649 261 649 261 617.5 290 c 128,-1,16
EndSplineSet
EndChar

StartChar: oslash
Encoding: 248 248 207
Width: 1225
GlyphClass: 2
Flags: W
LayerCount: 2
Fore
SplineSet
378 30 m 1,0,1
 166 130 166 130 117 413 c 0,2,3
 103 494 103 494 103 539 c 0,4,5
 103 722 103 722 144.5 830 c 128,-1,6
 186 938 186 938 256 1010 c 0,7,8
 398 1156 398 1156 624 1156 c 0,9,10
 691 1156 691 1156 752 1142 c 1,11,-1
 817 1336 l 1,12,-1
 913 1308 l 1,13,-1
 846 1110 l 1,14,15
 1057 1009 1057 1009 1108 732 c 0,16,17
 1122 651 1122 651 1122 605 c 0,18,19
 1122 423 1122 423 1081 314.5 c 128,-1,20
 1040 206 1040 206 971 133 c 0,21,22
 830 -16 830 -16 603 -16 c 0,23,24
 535 -16 535 -16 473 -2 c 1,25,-1
 408 -195 l 1,26,-1
 312 -168 l 1,27,-1
 378 30 l 1,0,1
711 1021 m 1,28,29
 671 1035 671 1035 604 1035 c 0,30,31
 457 1035 457 1035 365 918.5 c 128,-1,32
 273 802 273 802 273 589 c 0,33,34
 273 286 273 286 424 166 c 1,35,-1
 711 1021 l 1,28,29
513 117 m 1,36,37
 557 103 557 103 624 103 c 128,-1,38
 691 103 691 103 754 134 c 128,-1,39
 817 165 817 165 861 224 c 0,40,41
 952 346 952 346 952 558.5 c 128,-1,42
 952 771 952 771 868 902 c 0,43,44
 840 945 840 945 801 975 c 1,45,-1
 513 117 l 1,36,37
EndSplineSet
EndChar

StartChar: thorn
Encoding: 254 254 213
Width: 1248
GlyphClass: 2
Flags: W
LayerCount: 2
Fore
SplineSet
805 29 m 128,-1,1
 699 -17 699 -17 584.5 -17 c 128,-1,2
 470 -17 470 -17 345 10 c 1,3,-1
 355 -151 l 1,4,-1
 355 -507 l 1,5,-1
 188 -507 l 1,6,-1
 188 1661 l 1,7,-1
 355 1661 l 1,8,-1
 355 1186 l 1,9,-1
 348 1016 l 1,10,11
 495 1156 495 1156 693.5 1156 c 128,-1,12
 892 1156 892 1156 1018.5 1015 c 128,-1,13
 1145 874 1145 874 1145 603 c 128,-1,14
 1145 332 1145 332 986 158 c 0,15,0
 911 75 911 75 805 29 c 128,-1,1
355 155 m 1,16,17
 420 106 420 106 585 106 c 128,-1,18
 750 106 750 106 862.5 232.5 c 128,-1,19
 975 359 975 359 975 582 c 0,20,21
 975 1025 975 1025 650 1025 c 0,22,23
 523 1025 523 1025 407 948 c 0,24,25
 376 928 376 928 355 909 c 1,26,-1
 355 155 l 1,16,17
EndSplineSet
EndChar

StartChar: Aogonek
Encoding: 260 260 219
Width: 1393
GlyphClass: 2
Flags: W
LayerCount: 2
Fore
SplineSet
1377 -450 m 1,0,1
 1294 -512 1294 -512 1135.5 -512 c 128,-1,2
 977 -512 977 -512 921 -400 c 0,3,4
 902 -363 902 -363 902 -311 c 0,5,6
 902 -216 902 -216 990 -135.5 c 128,-1,7
 1078 -55 1078 -55 1190 0 c 1,8,-1
 1178 0 l 1,9,-1
 1031 418 l 1,10,-1
 366 418 l 1,11,-1
 213 0 l 1,12,-1
 33 0 l 1,13,-1
 621 1538 l 1,14,-1
 787 1538 l 1,15,-1
 1361 0 l 1,16,-1
 1324 0 l 1,17,18
 1066 -143 1066 -143 1066 -280 c 1,19,20
 1069 -399 1069 -399 1216 -399 c 1,21,22
 1299 -397 1299 -397 1377 -358 c 1,23,-1
 1377 -450 l 1,0,1
987 545 m 1,24,-1
 743 1240 l 1,25,-1
 705 1360 l 1,26,-1
 667 1239 l 1,27,-1
 412 545 l 1,28,-1
 987 545 l 1,24,-1
EndSplineSet
EndChar

StartChar: aogonek
Encoding: 261 261 220
Width: 1145
GlyphClass: 2
Flags: W
LayerCount: 2
Fore
SplineSet
1053 -450 m 1,0,1
 970 -512 970 -512 811.5 -512 c 128,-1,2
 653 -512 653 -512 597 -400 c 0,3,4
 578 -363 578 -363 578 -312 c 0,5,6
 577 -221 577 -221 654 -136.5 c 128,-1,7
 731 -52 731 -52 831 -2 c 1,8,9
 811 12 811 12 811 64 c 1,10,-1
 810 106 l 1,11,12
 722 26 722 26 572 -5 c 0,13,14
 518 -16 518 -16 450 -16 c 0,15,16
 302 -16 302 -16 206 69.5 c 128,-1,17
 110 155 110 155 110 284.5 c 128,-1,18
 110 414 110 414 173 492 c 0,19,20
 304 654 304 654 700 678 c 0,21,22
 756 682 756 682 801 682 c 1,23,-1
 801 814 l 2,24,25
 801 944 801 944 737.5 987 c 128,-1,26
 674 1030 674 1030 541 1030 c 128,-1,27
 408 1030 408 1030 261 966 c 0,28,29
 222 949 222 949 200 933 c 1,30,-1
 159 1043 l 1,31,32
 252 1105 252 1105 440 1143 c 0,33,34
 509 1157 509 1157 587 1157 c 0,35,36
 770 1157 770 1157 860 1089 c 0,37,38
 967 1008 967 1008 967 807 c 2,39,-1
 967 -16 l 1,40,-1
 952 -16 l 1,41,42
 860 -76 860 -76 821 -117 c 0,43,44
 742 -200 742 -200 742 -280 c 0,45,46
 742 -399 742 -399 892 -399 c 1,47,48
 975 -397 975 -397 1053 -358 c 1,49,-1
 1053 -450 l 1,0,1
448 522 m 1,50,51
 275 458 275 458 275 330 c 0,52,53
 275 109 275 109 506 109 c 0,54,55
 647 109 647 109 764 180 c 0,56,57
 791 197 791 197 801 208 c 1,58,-1
 801 575 l 1,59,60
 668 575 668 575 576 556 c 128,-1,61
 484 537 484 537 448 522 c 1,50,51
EndSplineSet
EndChar

StartChar: dcroat
Encoding: 273 273 232
Width: 1239
GlyphClass: 2
Flags: W
LayerCount: 2
Fore
SplineSet
902 126 m 1,0,1
 760 -16 760 -16 560.5 -16 c 128,-1,2
 361 -16 361 -16 231.5 122 c 128,-1,3
 102 260 102 260 102 533.5 c 128,-1,4
 102 807 102 807 259.5 981.5 c 128,-1,5
 417 1156 417 1156 674 1156 c 0,6,7
 796 1156 796 1156 895 1118 c 1,8,-1
 892 1186 l 1,9,-1
 892 1325 l 1,10,-1
 598 1325 l 1,11,-1
 598 1433 l 1,12,-1
 892 1433 l 1,13,-1
 892 1664 l 1,14,-1
 1059 1664 l 1,15,-1
 1059 1433 l 1,16,-1
 1214 1433 l 1,17,-1
 1214 1325 l 1,18,-1
 1059 1325 l 1,19,-1
 1059 -12 l 1,20,-1
 987 -12 l 2,21,22
 922 -12 922 -12 908 20 c 0,23,24
 902 33 902 33 902 57 c 2,25,-1
 902 126 l 1,0,1
892 978 m 1,26,27
 827 1034 827 1034 658.5 1034 c 128,-1,28
 490 1034 490 1034 381.5 905.5 c 128,-1,29
 273 777 273 777 273 555.5 c 128,-1,30
 273 334 273 334 356.5 224.5 c 128,-1,31
 440 115 440 115 599.5 115 c 128,-1,32
 759 115 759 115 892 229 c 1,33,-1
 892 978 l 1,26,27
EndSplineSet
EndChar

StartChar: Eogonek
Encoding: 280 280 239
Width: 1203
GlyphClass: 2
Flags: W
LayerCount: 2
Fore
SplineSet
1099 -450 m 1,0,1
 1016 -512 1016 -512 858.5 -512 c 128,-1,2
 701 -512 701 -512 646 -406 c 0,3,4
 627 -370 627 -370 627 -318 c 0,5,6
 627 -221 627 -221 716 -134 c 128,-1,7
 805 -47 805 -47 923 0 c 1,8,-1
 206 0 l 1,9,-1
 206 1522 l 1,10,-1
 1064 1522 l 1,11,-1
 1064 1391 l 1,12,-1
 375 1391 l 1,13,-1
 375 852 l 1,14,-1
 878 852 l 1,15,-1
 878 721 l 1,16,-1
 375 721 l 1,17,-1
 375 133 l 1,18,-1
 1137 133 l 1,19,-1
 1137 0 l 1,20,-1
 1058 0 l 1,21,22
 884 -89 884 -89 816 -194 c 0,23,24
 791 -234 791 -234 791 -275 c 0,25,26
 791 -345 791 -345 831 -372 c 128,-1,27
 871 -399 871 -399 947 -398 c 128,-1,28
 1023 -397 1023 -397 1099 -358 c 1,29,-1
 1099 -450 l 1,0,1
EndSplineSet
EndChar

StartChar: eogonek
Encoding: 281 281 240
Width: 1128
GlyphClass: 2
Flags: W
LayerCount: 2
Fore
SplineSet
743 -3 m 1,0,1
 665 -16 665 -16 573 -16 c 128,-1,2
 481 -16 481 -16 388 24 c 0,3,4
 104 145 104 145 104 565 c 0,5,6
 104 829 104 829 240.5 992.5 c 128,-1,7
 377 1156 377 1156 621 1156 c 0,8,9
 798 1156 798 1156 908 1040 c 128,-1,10
 1018 924 1018 924 1024 728 c 1,11,12
 1024 598 1024 598 1015 553 c 1,13,-1
 267 553 l 1,14,15
 267 543 267 543 267 533 c 0,16,17
 267 312 267 312 380 202 c 0,18,19
 475 110 475 110 644 110 c 0,20,21
 766 110 766 110 894 158 c 0,22,23
 931 171 931 171 954 186 c 1,24,-1
 986 89 l 1,25,-1
 961 71 l 1,26,-1
 963 70 l 1,27,28
 865 9 865 9 779 -93 c 128,-1,29
 693 -195 693 -195 693 -277 c 0,30,31
 693 -399 693 -399 845 -399 c 1,32,33
 929 -397 929 -397 1007 -358 c 1,34,-1
 1007 -450 l 1,35,36
 924 -512 924 -512 764.5 -512 c 128,-1,37
 605 -512 605 -512 548 -400 c 1,38,39
 489 -288 489 -288 594 -144 c 0,40,41
 652 -63 652 -63 743 -3 c 1,0,1
867 665 m 1,42,43
 868 686 868 686 868 723 c 0,44,45
 868 848 868 848 818 930 c 0,46,47
 752 1037 752 1037 605 1037 c 0,48,49
 399 1037 399 1037 314 834 c 0,50,51
 285 764 285 764 274 665 c 1,52,-1
 867 665 l 1,42,43
EndSplineSet
EndChar

StartChar: gcommaaccent
Encoding: 291 291 250
Width: 1224
GlyphClass: 2
Flags: W
LayerCount: 2
Fore
SplineSet
582 1331 m 1,0,1
 514 1358 514 1358 489 1464 c 0,2,3
 481 1499 481 1499 481 1545 c 0,4,5
 481 1635 481 1635 530.5 1710 c 128,-1,6
 580 1785 580 1785 635 1809 c 1,7,-1
 692 1777 l 1,8,-1
 692 1756 l 1,9,10
 648 1723 648 1723 630 1638 c 0,11,12
 624 1609 624 1609 624 1580 c 0,13,14
 624 1528 624 1528 647 1486 c 128,-1,15
 670 1444 670 1444 701 1438 c 1,16,-1
 701 1400 l 1,17,-1
 582 1331 l 1,0,1
121 -215 m 0,18,19
 121 -42 121 -42 280 46 c 1,20,21
 194 94 194 94 194 217 c 1,22,23
 195 275 195 275 232 335.5 c 128,-1,24
 269 396 269 396 330 440 c 1,25,26
 243 488 243 488 192.5 569 c 128,-1,27
 142 650 142 650 142 755 c 0,28,29
 142 952 142 952 268 1054 c 128,-1,30
 394 1156 394 1156 600 1156 c 0,31,32
 752 1156 752 1156 864 1088 c 1,33,34
 962 1137 962 1137 1084 1137 c 2,35,-1
 1191 1137 l 1,36,-1
 1191 1003 l 1,37,-1
 959 1003 l 1,38,39
 1028 908 1028 908 1028 795 c 0,40,41
 1028 591 1028 591 900.5 485.5 c 128,-1,42
 773 380 773 380 577 380 c 0,43,44
 493 380 493 380 423 401 c 1,45,46
 347 341 347 341 347 264 c 128,-1,47
 347 187 347 187 382 159.5 c 128,-1,48
 417 132 417 132 510 132 c 2,49,-1
 757 132 l 2,50,51
 1079 132 1079 132 1134 -46 c 0,52,53
 1149 -97 1149 -97 1149 -166.5 c 128,-1,54
 1149 -236 1149 -236 1106 -304 c 128,-1,55
 1063 -372 1063 -372 988 -420 c 0,56,57
 834 -517 834 -517 599 -517 c 0,58,59
 254 -517 254 -517 155 -340 c 0,60,61
 121 -279 121 -279 121 -215 c 0,18,19
580 492 m 0,62,63
 862 492 862 492 862 772 c 0,64,65
 862 908 862 908 790 975 c 128,-1,66
 718 1042 718 1042 596 1042 c 0,67,68
 395 1042 395 1042 332 899 c 0,69,70
 308 846 308 846 308 776 c 0,71,72
 308 644 308 644 380 568 c 128,-1,73
 452 492 452 492 580 492 c 0,62,63
376 10 m 1,74,75
 284 -66 284 -66 284 -180 c 128,-1,76
 284 -294 284 -294 363 -348 c 128,-1,77
 442 -402 442 -402 605 -402 c 0,78,79
 860 -402 860 -402 956 -282 c 0,80,81
 989 -241 989 -241 989 -189 c 0,82,83
 989 -85 989 -85 922 -42.5 c 128,-1,84
 855 0 855 0 689 0 c 2,85,-1
 535 0 l 2,86,87
 435 0 435 0 376 10 c 1,74,75
EndSplineSet
EndChar

StartChar: Hbar
Encoding: 294 294 253
Width: 1550
GlyphClass: 2
Flags: W
LayerCount: 2
Fore
SplineSet
206 1085 m 1,0,-1
 11 1085 l 1,1,-1
 11 1193 l 1,2,-1
 206 1193 l 1,3,-1
 206 1522 l 1,4,-1
 375 1522 l 1,5,-1
 375 1193 l 1,6,-1
 1175 1193 l 1,7,-1
 1175 1522 l 1,8,-1
 1344 1522 l 1,9,-1
 1344 1193 l 1,10,-1
 1559 1193 l 1,11,-1
 1559 1085 l 1,12,-1
 1344 1085 l 1,13,-1
 1344 0 l 1,14,-1
 1175 0 l 1,15,-1
 1175 703 l 1,16,-1
 375 703 l 1,17,-1
 375 0 l 1,18,-1
 206 0 l 1,19,-1
 206 1085 l 1,0,-1
1175 833 m 1,20,-1
 1175 1085 l 1,21,-1
 375 1085 l 1,22,-1
 375 833 l 1,23,-1
 1175 833 l 1,20,-1
EndSplineSet
EndChar

StartChar: hbar
Encoding: 295 295 254
Width: 1309
GlyphClass: 2
Flags: W
LayerCount: 2
Fore
SplineSet
193 1309 m 1,0,-1
 44 1309 l 1,1,-1
 44 1410 l 1,2,-1
 193 1410 l 1,3,-1
 193 1664 l 1,4,-1
 360 1664 l 1,5,-1
 360 1410 l 1,6,-1
 631 1410 l 1,7,-1
 631 1309 l 1,8,-1
 360 1309 l 1,9,-1
 360 1157 l 1,10,-1
 352 1001 l 1,11,12
 478 1099 478 1099 648 1141 c 0,13,14
 713 1157 713 1157 790 1157 c 0,15,16
 962 1157 962 1157 1042.5 1050 c 128,-1,17
 1123 943 1123 943 1123 677 c 2,18,-1
 1123 0 l 1,19,-1
 956 0 l 1,20,-1
 956 689 l 2,21,22
 956 876 956 876 902.5 946.5 c 128,-1,23
 849 1017 849 1017 718 1017 c 0,24,25
 541 1017 541 1017 360 879 c 1,26,-1
 360 0 l 1,27,-1
 193 0 l 1,28,-1
 193 1309 l 1,0,-1
EndSplineSet
EndChar

StartChar: Iogonek
Encoding: 302 302 261
Width: 613
GlyphClass: 2
Flags: W
LayerCount: 2
Fore
SplineSet
515 -450 m 1,0,1
 432 -512 432 -512 274 -512 c 128,-1,2
 116 -512 116 -512 54 -390 c 0,3,4
 -9 -265 -9 -265 102 -123 c 0,5,6
 159 -49 159 -49 241 0 c 1,7,-1
 221 0 l 1,8,-1
 221 1522 l 1,9,-1
 392 1522 l 1,10,-1
 392 0 l 1,11,-1
 371 0 l 1,12,13
 253 -74 253 -74 212 -183 c 0,14,15
 198 -220 198 -220 198 -242 c 128,-1,16
 198 -264 198 -264 198 -283 c 0,17,18
 198 -331 198 -331 241 -365 c 128,-1,19
 284 -399 284 -399 360.5 -398 c 128,-1,20
 437 -397 437 -397 515 -358 c 1,21,-1
 515 -450 l 1,0,1
EndSplineSet
EndChar

StartChar: iogonek
Encoding: 303 303 262
Width: 588
GlyphClass: 2
Flags: W
LayerCount: 2
Fore
SplineSet
412 1527 m 0,0,1
 412 1428 412 1428 335 1397 c 0,2,3
 313 1388 313 1388 290 1388 c 0,4,5
 242 1388 242 1388 212 1419.5 c 128,-1,6
 182 1451 182 1451 182 1490 c 0,7,8
 182 1557 182 1557 220 1593.5 c 128,-1,9
 258 1630 258 1630 308.5 1630 c 128,-1,10
 359 1630 359 1630 385.5 1598 c 128,-1,11
 412 1566 412 1566 412 1527 c 0,0,1
502 -450 m 1,12,13
 420 -512 420 -512 292.5 -512 c 128,-1,14
 165 -512 165 -512 93 -454.5 c 128,-1,15
 21 -397 21 -397 21 -299 c 1,16,17
 18 -170 18 -170 156 -52 c 0,18,19
 193 -21 193 -21 228 0 c 1,20,-1
 211 0 l 1,21,-1
 211 1139 l 1,22,-1
 377 1139 l 1,23,-1
 377 0 l 1,24,-1
 358 0 l 1,25,26
 241 -73 241 -73 200 -183 c 0,27,28
 154 -306 154 -306 232 -368 c 0,29,30
 272 -399 272 -399 348 -398 c 128,-1,31
 424 -397 424 -397 502 -358 c 1,32,-1
 502 -450 l 1,12,13
EndSplineSet
EndChar

StartChar: dotlessi
Encoding: 305 305 264
Width: 588
GlyphClass: 2
Flags: W
LayerCount: 2
Fore
SplineSet
211 1139 m 1,0,-1
 377 1139 l 1,1,-1
 377 0 l 1,2,-1
 211 0 l 1,3,-1
 211 1139 l 1,0,-1
EndSplineSet
EndChar

StartChar: kgreenlandic
Encoding: 312 312 271
Width: 1171
GlyphClass: 2
Flags: W
LayerCount: 2
Fore
SplineSet
197 1140 m 1,0,-1
 364 1140 l 1,1,-1
 364 640 l 1,2,-1
 361 541 l 1,3,-1
 915 1139 l 1,4,-1
 1107 1139 l 1,5,-1
 657 667 l 1,6,-1
 1146 0 l 1,7,-1
 955 0 l 1,8,-1
 549 554 l 1,9,-1
 361 358 l 1,10,-1
 366 200 l 1,11,-1
 366 0 l 1,12,-1
 199 0 l 1,13,-1
 197 1140 l 1,0,-1
EndSplineSet
EndChar

StartChar: lacute
Encoding: 314 314 273
Width: 608
GlyphClass: 2
Flags: W
LayerCount: 2
Fore
SplineSet
214 1533 m 1,0,-1
 381 1533 l 1,1,-1
 381 0 l 1,2,-1
 214 0 l 1,3,-1
 214 1533 l 1,0,-1
215 1660 m 1,4,5
 257 1694 257 1694 304 1736.5 c 128,-1,6
 351 1779 351 1779 390 1814 c 0,7,8
 529 1939 529 1939 562 1975 c 1,9,-1
 673 1873 l 1,10,11
 547 1747 547 1747 384 1644 c 0,12,13
 333 1612 333 1612 287 1589 c 1,14,-1
 215 1660 l 1,4,5
EndSplineSet
EndChar

StartChar: Lslash
Encoding: 321 321 280
Width: 1066
GlyphClass: 2
Flags: W
LayerCount: 2
Fore
SplineSet
206 624 m 1,0,-1
 53 568 l 1,1,-1
 12 672 l 1,2,-1
 206 743 l 1,3,-1
 206 1522 l 1,4,-1
 378 1522 l 1,5,-1
 378 807 l 1,6,-1
 806 965 l 1,7,-1
 847 859 l 1,8,-1
 378 687 l 1,9,-1
 378 133 l 1,10,-1
 1007 133 l 1,11,-1
 1007 0 l 1,12,-1
 206 0 l 1,13,-1
 206 624 l 1,0,-1
EndSplineSet
EndChar

StartChar: lslash
Encoding: 322 322 281
Width: 594
GlyphClass: 2
Flags: W
LayerCount: 2
Fore
SplineSet
214 761 m 1,0,-1
 44 696 l 1,1,-1
 44 811 l 1,2,-1
 214 879 l 1,3,-1
 214 1664 l 1,4,-1
 381 1664 l 1,5,-1
 381 945 l 1,6,-1
 602 1034 l 1,7,-1
 602 911 l 1,8,-1
 381 826 l 1,9,-1
 381 0 l 1,10,-1
 214 0 l 1,11,-1
 214 761 l 1,0,-1
EndSplineSet
EndChar

StartChar: Eng
Encoding: 330 330 289
Width: 1580
GlyphClass: 2
Flags: W
LayerCount: 2
Fore
SplineSet
205 1522 m 1,0,-1
 363 1522 l 1,1,-1
 1083 455 l 1,2,-1
 1216 219 l 1,3,-1
 1202 523 l 1,4,-1
 1202 1522 l 1,5,-1
 1368 1522 l 1,6,-1
 1368 405 l 2,7,8
 1368 130 1368 130 1331.5 18 c 128,-1,9
 1295 -94 1295 -94 1240 -162.5 c 128,-1,10
 1185 -231 1185 -231 1116 -280 c 0,11,12
 978 -379 978 -379 822 -403 c 1,13,-1
 778 -323 l 1,14,15
 930 -281 930 -281 1058.5 -172 c 128,-1,16
 1187 -63 1187 -63 1189 35 c 1,17,-1
 506 1040 l 1,18,-1
 362 1286 l 1,19,-1
 371 972 l 1,20,-1
 371 0 l 1,21,-1
 206 0 l 1,22,-1
 205 1522 l 1,0,-1
EndSplineSet
EndChar

StartChar: eng
Encoding: 331 331 290
Width: 1294
GlyphClass: 2
Flags: W
LayerCount: 2
Fore
SplineSet
650 -377 m 1,0,1
 678 -389 678 -389 743 -389 c 128,-1,2
 808 -389 808 -389 843 -370 c 128,-1,3
 878 -351 878 -351 900 -309 c 0,4,5
 942 -229 942 -229 942 -36 c 2,6,-1
 942 704 l 2,7,8
 942 887 942 887 891.5 952 c 128,-1,9
 841 1017 841 1017 715.5 1017 c 128,-1,10
 590 1017 590 1017 436 928 c 0,11,12
 394 904 394 904 361 879 c 1,13,-1
 361 0 l 1,14,-1
 193 0 l 1,15,-1
 193 1139 l 1,16,-1
 342 1139 l 1,17,-1
 342 993 l 1,18,19
 476 1093 476 1093 646 1138 c 0,20,21
 717 1157 717 1157 794 1157 c 0,22,23
 961 1157 961 1157 1034.5 1057.5 c 128,-1,24
 1108 958 1108 958 1108 708 c 2,25,-1
 1108 -14 l 2,26,27
 1108 -374 1108 -374 930 -474 c 0,28,29
 871 -507 871 -507 774.5 -507 c 128,-1,30
 678 -507 678 -507 650 -493 c 1,31,-1
 650 -377 l 1,0,1
EndSplineSet
EndChar

StartChar: OE
Encoding: 338 338 297
Width: 2057
GlyphClass: 2
Flags: W
LayerCount: 2
Fore
SplineSet
1094 74 m 1,0,1
 957 -16 957 -16 789.5 -16 c 128,-1,2
 622 -16 622 -16 498 40 c 0,3,4
 247 154 247 154 153 450 c 0,5,6
 110 585 110 585 110 743 c 0,7,8
 110 1124 110 1124 311.5 1331 c 128,-1,9
 513 1538 513 1538 832 1538 c 0,10,11
 982 1538 982 1538 1094 1472 c 1,12,-1
 1094 1522 l 1,13,-1
 1917 1522 l 1,14,-1
 1917 1391 l 1,15,-1
 1263 1391 l 1,16,-1
 1263 852 l 1,17,-1
 1748 852 l 1,18,-1
 1748 720 l 1,19,-1
 1263 720 l 1,20,-1
 1263 134 l 1,21,-1
 1991 134 l 1,22,-1
 1991 0 l 1,23,-1
 1094 0 l 1,24,-1
 1094 74 l 1,0,1
1094 1323 m 1,25,26
 983 1409 983 1409 812 1409 c 0,27,28
 591 1409 591 1409 446 1253 c 0,29,30
 280 1075 280 1075 280 755 c 0,31,32
 280 481 280 481 415 296.5 c 128,-1,33
 550 112 550 112 793 112 c 0,34,35
 972 112 972 112 1094 218 c 1,36,-1
 1094 1323 l 1,25,26
EndSplineSet
EndChar

StartChar: oe
Encoding: 339 339 298
Width: 1979
GlyphClass: 2
Flags: W
LayerCount: 2
Fore
SplineSet
1451 -16 m 0,0,1
 1156 -16 1156 -16 1030 215 c 1,2,3
 962 102 962 102 851.5 43 c 128,-1,4
 741 -16 741 -16 603.5 -16 c 128,-1,5
 466 -16 466 -16 371 34 c 0,6,7
 187 130 187 130 130 360 c 0,8,9
 105 462 105 462 105 574 c 0,10,11
 105 851 105 851 252 1003.5 c 128,-1,12
 399 1156 399 1156 626 1156 c 0,13,14
 912 1156 912 1156 1041 920 c 1,15,16
 1177 1156 1177 1156 1471 1156 c 0,17,18
 1650 1156 1650 1156 1760 1038.5 c 128,-1,19
 1870 921 1870 921 1874 728 c 1,20,21
 1874 600 1874 600 1866 553 c 1,22,-1
 1118 553 l 1,23,24
 1118 543 1118 543 1118 533 c 0,25,26
 1118 311 1118 311 1230 202 c 0,27,28
 1324 111 1324 111 1492 111 c 0,29,30
 1618 111 1618 111 1745 158 c 0,31,32
 1782 171 1782 171 1805 186 c 1,33,-1
 1838 89 l 1,34,35
 1746 16 1746 16 1560 -8 c 0,36,37
 1504 -16 1504 -16 1451 -16 c 0,0,1
1717 665 m 1,38,39
 1718 685 1718 685 1718 723 c 0,40,41
 1718 846 1718 846 1667 930 c 0,42,43
 1601 1037 1601 1037 1454 1037 c 0,44,45
 1248 1037 1248 1037 1165 834 c 0,46,47
 1136 764 1136 764 1125 665 c 1,48,-1
 1717 665 l 1,38,39
955 561 m 0,49,50
 955 888 955 888 770 997 c 0,51,52
 705 1035 705 1035 623 1035 c 0,53,54
 460 1035 460 1035 367.5 918 c 128,-1,55
 275 801 275 801 275 589.5 c 128,-1,56
 275 378 275 378 359 240.5 c 128,-1,57
 443 103 443 103 607 103 c 128,-1,58
 771 103 771 103 863 225 c 128,-1,59
 955 347 955 347 955 561 c 0,49,50
EndSplineSet
EndChar

StartChar: Scedilla
Encoding: 350 350 309
Width: 1154
GlyphClass: 2
Flags: W
LayerCount: 2
Fore
SplineSet
313 -327 m 1,0,1
 342 -345 342 -345 402.5 -345 c 128,-1,2
 463 -345 463 -345 502 -307 c 0,3,4
 549 -261 549 -261 549 -125 c 0,5,6
 549 -65 549 -65 535 -15 c 1,7,8
 335 -9 335 -9 194 46 c 0,9,10
 155 61 155 61 136 74 c 1,11,-1
 177 213 l 1,12,13
 276 150 276 150 448 126 c 0,14,15
 503 119 503 119 570 119 c 0,16,17
 720 119 720 119 811 181 c 128,-1,18
 902 243 902 243 902 363.5 c 128,-1,19
 902 484 902 484 800 565 c 0,20,21
 732 619 732 619 598 679.5 c 128,-1,22
 464 740 464 740 392.5 783.5 c 128,-1,23
 321 827 321 827 265 883 c 0,24,25
 140 1008 140 1008 140 1162 c 0,26,27
 140 1415 140 1415 401 1502 c 0,28,29
 507 1538 507 1538 605 1538 c 0,30,31
 865 1538 865 1538 991 1456 c 1,32,-1
 956 1323 l 1,33,34
 828 1405 828 1405 630 1405 c 0,35,36
 495 1405 495 1405 398.5 1348 c 128,-1,37
 302 1291 302 1291 302 1178.5 c 128,-1,38
 302 1066 302 1066 390 986 c 1,39,40
 453 927 453 927 584 864.5 c 128,-1,41
 715 802 715 802 792 760 c 0,42,43
 1068 611 1068 611 1068 385 c 0,44,45
 1068 205 1068 205 951.5 103 c 128,-1,46
 835 1 835 1 639 -13 c 1,47,48
 671 -81 671 -81 671 -188 c 0,49,50
 671 -405 671 -405 524 -452 c 0,51,52
 484 -464 484 -464 454 -464 c 0,53,54
 343 -464 343 -464 301 -436 c 1,55,-1
 313 -327 l 1,0,1
EndSplineSet
Substitution2: "'locl' Localized Forms lookup 7 subtable" uni0218
Substitution2: "'locl' Localized Forms lookup 6 subtable" uni0218
Substitution2: "'aalt' Access All Alternates in Latin lookup 0 subtable" uni0218
EndChar

StartChar: scedilla
Encoding: 351 351 310
Width: 984
GlyphClass: 2
Flags: W
LayerCount: 2
Fore
SplineSet
221 -327 m 1,0,1
 250 -345 250 -345 310.5 -345 c 128,-1,2
 371 -345 371 -345 410 -307 c 0,3,4
 457 -261 457 -261 457 -125 c 0,5,6
 457 -65 457 -65 443 -15 c 1,7,8
 290 -6 290 -6 180 38 c 0,9,10
 145 51 145 51 123 66 c 1,11,-1
 149 192 l 1,12,13
 217 145 217 145 374 118 c 0,14,15
 558 86 558 86 657 152 c 0,16,17
 727 199 727 199 727 285 c 0,18,19
 727 397 727 397 555 471 c 0,20,21
 506 492 506 492 447.5 516 c 128,-1,22
 389 540 389 540 330 572 c 0,23,24
 132 682 132 682 132 863 c 0,25,26
 132 1007 132 1007 245.5 1081.5 c 128,-1,27
 359 1156 359 1156 511 1156 c 128,-1,28
 663 1156 663 1156 779 1116 c 0,29,30
 808 1106 808 1106 823 1097 c 1,31,-1
 795 970 l 1,32,33
 741 1010 741 1010 618 1026 c 0,34,35
 578 1032 578 1032 536 1032 c 0,36,37
 413 1032 413 1032 350 988 c 128,-1,38
 287 944 287 944 287 872 c 0,39,40
 287 758 287 758 434 686 c 0,41,42
 480 664 480 664 536 642 c 0,43,44
 689 584 689 584 766 522 c 0,45,46
 883 428 883 428 883 295.5 c 128,-1,47
 883 163 883 163 794 82 c 128,-1,48
 705 1 705 1 547 -13 c 1,49,50
 579 -79 579 -79 579 -186 c 0,51,52
 579 -405 579 -405 432 -452 c 0,53,54
 392 -464 392 -464 362 -464 c 0,55,56
 251 -464 251 -464 209 -436 c 1,57,-1
 221 -327 l 1,0,1
EndSplineSet
Substitution2: "'locl' Localized Forms lookup 7 subtable" uni0219
Substitution2: "'locl' Localized Forms lookup 6 subtable" uni0219
Substitution2: "'aalt' Access All Alternates in Latin lookup 0 subtable" uni0219
EndChar

StartChar: uni0162
Encoding: 354 354 313
Width: 1279
GlyphClass: 2
Flags: W
LayerCount: 2
Fore
SplineSet
365 -327 m 1,0,1
 394 -345 394 -345 454.5 -345 c 128,-1,2
 515 -345 515 -345 554 -307 c 128,-1,3
 593 -269 593 -269 598 -180 c 0,4,5
 600 -147 600 -147 600 -98 c 128,-1,6
 600 -49 600 -49 582 0 c 1,7,-1
 553 0 l 1,8,-1
 553 1391 l 1,9,-1
 62 1391 l 1,10,-1
 62 1522 l 1,11,-1
 1222 1522 l 1,12,-1
 1222 1391 l 1,13,-1
 724 1391 l 1,14,-1
 724 0 l 1,15,-1
 684 0 l 1,16,17
 723 -66 723 -66 723 -189 c 0,18,19
 723 -406 723 -406 576 -452 c 0,20,21
 536 -464 536 -464 506 -464 c 0,22,23
 395 -464 395 -464 353 -436 c 1,24,-1
 365 -327 l 1,0,1
EndSplineSet
Substitution2: "'locl' Localized Forms lookup 7 subtable" uni021A
Substitution2: "'aalt' Access All Alternates in Latin lookup 0 subtable" uni021A
EndChar

StartChar: uni0163
Encoding: 355 355 314
Width: 849
GlyphClass: 2
Flags: W
LayerCount: 2
Fore
SplineSet
183 -327 m 1,0,1
 212 -345 212 -345 272.5 -345 c 128,-1,2
 333 -345 333 -345 372 -307 c 0,3,4
 419 -262 419 -262 419 -121 c 0,5,6
 419 -54 419 -54 402 -6 c 1,7,8
 240 36 240 36 240 270 c 2,9,-1
 240 1014 l 1,10,-1
 81 1014 l 1,11,-1
 81 1105 l 1,12,13
 109 1113 109 1113 137 1119 c 128,-1,14
 165 1125 165 1125 204.5 1136.5 c 128,-1,15
 244 1148 244 1148 253.5 1172.5 c 128,-1,16
 263 1197 263 1197 278.5 1279.5 c 128,-1,17
 294 1362 294 1362 306 1400 c 1,18,-1
 406 1400 l 1,19,-1
 406 1140 l 1,20,-1
 760 1140 l 1,21,-1
 760 1014 l 1,22,-1
 406 1014 l 1,23,-1
 406 364 l 2,24,25
 406 203 406 203 440 156 c 0,26,27
 467 118 467 118 550 118 c 0,28,29
 611 118 611 118 678.5 137 c 128,-1,30
 746 156 746 156 772 175 c 1,31,-1
 801 78 l 1,32,33
 731 21 731 21 592 -6 c 0,34,35
 549 -15 549 -15 511 -16 c 1,36,37
 541 -84 541 -84 541 -195 c 0,38,39
 541 -344 541 -344 473.5 -404 c 128,-1,40
 406 -464 406 -464 309.5 -464 c 128,-1,41
 213 -464 213 -464 171 -436 c 1,42,-1
 183 -327 l 1,0,1
EndSplineSet
Substitution2: "'locl' Localized Forms lookup 7 subtable" uni021B
Substitution2: "'aalt' Access All Alternates in Latin lookup 0 subtable" uni021B
EndChar

StartChar: Tbar
Encoding: 358 358 317
Width: 1279
GlyphClass: 2
Flags: W
LayerCount: 2
Fore
SplineSet
553 666 m 1,0,-1
 254 666 l 1,1,-1
 254 778 l 1,2,-1
 553 778 l 1,3,-1
 553 1391 l 1,4,-1
 62 1391 l 1,5,-1
 62 1522 l 1,6,-1
 1222 1522 l 1,7,-1
 1222 1391 l 1,8,-1
 724 1391 l 1,9,-1
 724 778 l 1,10,-1
 1025 778 l 1,11,-1
 1025 666 l 1,12,-1
 724 666 l 1,13,-1
 724 0 l 1,14,-1
 553 0 l 1,15,-1
 553 666 l 1,0,-1
EndSplineSet
EndChar

StartChar: tbar
Encoding: 359 359 318
Width: 849
GlyphClass: 2
Flags: W
LayerCount: 2
Fore
SplineSet
240 617 m 1,0,-1
 80 617 l 1,1,-1
 80 742 l 1,2,-1
 240 742 l 1,3,-1
 240 1014 l 1,4,-1
 81 1014 l 1,5,-1
 81 1105 l 1,6,7
 109 1113 109 1113 137 1119 c 128,-1,8
 165 1125 165 1125 204.5 1136.5 c 128,-1,9
 244 1148 244 1148 253.5 1172.5 c 128,-1,10
 263 1197 263 1197 278.5 1279.5 c 128,-1,11
 294 1362 294 1362 306 1400 c 1,12,-1
 406 1400 l 1,13,-1
 406 1140 l 1,14,-1
 760 1140 l 1,15,-1
 760 1014 l 1,16,-1
 406 1014 l 1,17,-1
 406 742 l 1,18,-1
 759 742 l 1,19,-1
 759 617 l 1,20,-1
 406 617 l 1,21,-1
 406 364 l 2,22,23
 406 203 406 203 440 156 c 0,24,25
 467 118 467 118 550 118 c 0,26,27
 611 118 611 118 678.5 137 c 128,-1,28
 746 156 746 156 772 175 c 1,29,-1
 801 78 l 1,30,31
 729 19 729 19 582 -8 c 0,32,33
 539 -16 539 -16 493 -16 c 0,34,35
 377 -16 377 -16 318 36 c 1,36,37
 240 102 240 102 240 270 c 2,38,-1
 240 617 l 1,0,-1
EndSplineSet
EndChar

StartChar: Uogonek
Encoding: 370 370 329
Width: 1474
GlyphClass: 2
Flags: W
LayerCount: 2
Fore
SplineSet
1065 -450 m 1,0,1
 982 -512 982 -512 823 -512 c 128,-1,2
 664 -512 664 -512 607 -396 c 0,3,4
 551 -283 551 -283 650 -148 c 1,5,6
 708 -71 708 -71 790 -15 c 1,7,8
 779 -16 779 -16 768 -16 c 2,9,-1
 744 -16 l 2,10,11
 305 -16 305 -16 204 360 c 0,12,13
 171 483 171 483 171 644 c 2,14,-1
 171 1523 l 1,15,-1
 340 1523 l 1,16,-1
 339 684 l 2,17,18
 339 226 339 226 576 144 c 0,19,20
 653 117 653 117 746 117 c 0,21,22
 941 117 941 117 1038.5 244.5 c 128,-1,23
 1136 372 1136 372 1136 685 c 2,24,-1
 1136 1522 l 1,25,-1
 1304 1522 l 1,26,-1
 1304 645 l 2,27,28
 1304 116 1304 116 945 10 c 1,29,30
 814 -95 814 -95 768 -201 c 0,31,32
 753 -237 753 -237 753 -271 c 0,33,34
 753 -399 753 -399 902 -399 c 1,35,36
 983 -397 983 -397 1065 -358 c 1,37,-1
 1065 -450 l 1,0,1
EndSplineSet
EndChar

StartChar: uogonek
Encoding: 371 371 330
Width: 1249
GlyphClass: 2
Flags: W
LayerCount: 2
Fore
SplineSet
916 117 m 1,0,1
 726 -16 726 -16 487 -16 c 0,2,3
 407 -16 407 -16 341 19.5 c 128,-1,4
 275 55 275 55 240 119 c 0,5,6
 183 223 183 223 183 471 c 2,7,-1
 183 1140 l 1,8,-1
 349 1140 l 1,9,-1
 349 464 l 2,10,11
 349 255 349 255 398 188.5 c 128,-1,12
 447 122 447 122 575.5 122 c 128,-1,13
 704 122 704 122 837 192 c 0,14,15
 873 211 873 211 897 229 c 1,16,-1
 897 1140 l 1,17,-1
 1064 1140 l 1,18,-1
 1064 -12 l 1,19,-1
 1052 -12 l 1,20,21
 836 -143 836 -143 836 -276 c 0,22,23
 836 -399 836 -399 985 -399 c 1,24,25
 1068 -397 1068 -397 1144 -358 c 1,26,-1
 1144 -450 l 1,27,28
 1061 -512 1061 -512 903.5 -512 c 128,-1,29
 746 -512 746 -512 690 -400 c 0,30,31
 671 -363 671 -363 671 -311 c 0,32,33
 671 -217 671 -217 751 -132 c 128,-1,34
 831 -47 831 -47 933 2 c 1,35,36
 916 17 916 17 916 56 c 2,37,-1
 916 117 l 1,0,1
EndSplineSet
EndChar

StartChar: florin
Encoding: 402 402 342
Width: 1119
GlyphClass: 2
Flags: W
LayerCount: 2
Fore
SplineSet
1037 1532 m 1,0,1
 1008 1551 1008 1551 919.5 1551 c 128,-1,2
 831 1551 831 1551 789 1536 c 0,3,4
 651 1485 651 1485 626 1256 c 1,5,-1
 612 1141 l 1,6,-1
 932 1141 l 1,7,-1
 923 1013 l 1,8,-1
 602 1013 l 1,9,-1
 489 -356 l 1,10,-1
 325 -356 l 1,11,-1
 440 1013 l 1,12,-1
 219 1013 l 1,13,-1
 225 1101 l 1,14,-1
 450 1141 l 1,15,-1
 458 1209 l 2,16,17
 488 1456 488 1456 606 1571 c 128,-1,18
 724 1686 724 1686 900 1686 c 0,19,20
 1010 1686 1010 1686 1047 1669 c 1,21,-1
 1037 1532 l 1,0,1
EndSplineSet
EndChar

StartChar: dotlessj
Encoding: 567 567 349
Width: 562
GlyphClass: 2
Flags: W
LayerCount: 2
Fore
SplineSet
-95 -370 m 1,0,1
 -44 -389 -44 -389 21 -389 c 0,2,3
 121 -389 121 -389 166 -306.5 c 128,-1,4
 211 -224 211 -224 211 -41 c 2,5,-1
 211 1139 l 1,6,-1
 377 1139 l 1,7,-1
 377 23 l 2,8,9
 377 -385 377 -385 186 -476 c 0,10,11
 123 -507 123 -507 27 -507 c 128,-1,12
 -69 -507 -69 -507 -95 -494 c 1,13,-1
 -95 -370 l 1,0,1
EndSplineSet
EndChar

StartChar: circumflex
Encoding: 710 710 350
Width: 833
GlyphClass: 2
Flags: W
LayerCount: 2
Fore
SplineSet
48 1345 m 1,0,-1
 345 1692 l 1,1,-1
 494 1692 l 1,2,-1
 785 1346 l 1,3,-1
 682 1302 l 1,4,-1
 419 1565 l 1,5,-1
 145 1302 l 1,6,-1
 48 1345 l 1,0,-1
EndSplineSet
EndChar

StartChar: caron
Encoding: 711 711 351
Width: 824
GlyphClass: 2
Flags: W
LayerCount: 2
Fore
SplineSet
48 1648 m 1,0,-1
 145 1691 l 1,1,-1
 419 1428 l 1,2,-1
 682 1691 l 1,3,-1
 785 1647 l 1,4,-1
 494 1301 l 1,5,-1
 345 1301 l 1,6,-1
 48 1648 l 1,0,-1
EndSplineSet
EndChar

StartChar: uni02c9
Encoding: 713 713 352
Width: 643
GlyphClass: 2
Flags: W
LayerCount: 2
Fore
SplineSet
50 1867 m 1,0,-1
 593 1867 l 1,1,-1
 593 1743 l 1,2,-1
 50 1743 l 1,3,-1
 50 1867 l 1,0,-1
EndSplineSet
EndChar

StartChar: breve
Encoding: 728 728 353
Width: 775
GlyphClass: 2
Flags: W
LayerCount: 2
Fore
SplineSet
530.5 1366 m 128,-1,1
 466 1335 466 1335 385 1335 c 128,-1,2
 304 1335 304 1335 239 1366 c 0,3,4
 111 1427 111 1427 66 1562 c 0,5,6
 48 1615 48 1615 48 1648 c 128,-1,7
 48 1681 48 1681 49 1694 c 1,8,-1
 167 1694 l 1,9,10
 167 1624 167 1624 193 1579 c 0,11,12
 259 1465 259 1465 368 1465 c 0,13,14
 544 1465 544 1465 596 1612 c 0,15,16
 611 1655 611 1655 611 1694 c 1,17,-1
 725 1694 l 1,18,19
 726 1682 726 1682 726 1648.5 c 128,-1,20
 726 1615 726 1615 705.5 1556.5 c 128,-1,21
 685 1498 685 1498 640 1447.5 c 128,-1,0
 595 1397 595 1397 530.5 1366 c 128,-1,1
EndSplineSet
EndChar

StartChar: dotaccent
Encoding: 729 729 354
Width: 330
GlyphClass: 2
Flags: W
LayerCount: 2
Fore
SplineSet
280 1527 m 0,0,1
 280 1428 280 1428 203 1397 c 0,2,3
 181 1388 181 1388 158 1388 c 0,4,5
 111 1388 111 1388 80.5 1419.5 c 128,-1,6
 50 1451 50 1451 50 1490 c 0,7,8
 50 1557 50 1557 88 1593.5 c 128,-1,9
 126 1630 126 1630 176.5 1630 c 128,-1,10
 227 1630 227 1630 253.5 1598 c 128,-1,11
 280 1566 280 1566 280 1527 c 0,0,1
EndSplineSet
EndChar

StartChar: ring
Encoding: 730 730 355
Width: 713
GlyphClass: 2
Flags: W
LayerCount: 2
Fore
SplineSet
470.5 1348 m 128,-1,1
 414 1332 414 1332 348 1332 c 128,-1,2
 282 1332 282 1332 224 1351 c 0,3,4
 110 1389 110 1389 67 1490 c 0,5,6
 47 1538 47 1538 47 1568 c 0,7,8
 47 1668 47 1668 75 1718 c 128,-1,9
 103 1768 103 1768 147 1798 c 0,10,11
 233 1858 233 1858 358 1858 c 0,12,13
 578 1858 578 1858 644 1709 c 0,14,15
 666 1661 666 1661 665.5 1596 c 128,-1,16
 665 1531 665 1531 639 1480.5 c 128,-1,17
 613 1430 613 1430 570 1397 c 128,-1,0
 527 1364 527 1364 470.5 1348 c 128,-1,1
354 1429 m 1,18,19
 489 1429 489 1429 533 1522 c 0,20,21
 548 1554 548 1554 548 1596 c 0,22,23
 548 1676 548 1676 495 1719.5 c 128,-1,24
 442 1763 442 1763 357 1763 c 0,25,26
 230 1763 230 1763 183 1677 c 0,27,28
 166 1646 166 1646 166 1584.5 c 128,-1,29
 166 1523 166 1523 215 1477 c 128,-1,30
 264 1431 264 1431 354 1429 c 1,18,19
EndSplineSet
EndChar

StartChar: ogonek
Encoding: 731 731 356
Width: 619
GlyphClass: 2
Flags: W
LayerCount: 2
Fore
SplineSet
564 -438 m 1,0,1
 454 -511 454 -511 295 -511 c 0,2,3
 134 -511 134 -511 68.5 -387.5 c 128,-1,4
 3 -264 3 -264 141 -124 c 0,5,6
 221 -43 221 -43 330 1 c 1,7,-1
 404 7 l 1,8,-1
 477 4 l 1,9,10
 390 -29 390 -29 324 -88 c 0,11,12
 200 -199 200 -199 200 -279 c 0,13,14
 200 -401 200 -401 351 -401 c 0,15,16
 434 -401 434 -401 549 -347 c 1,17,-1
 564 -438 l 1,0,1
EndSplineSet
EndChar

StartChar: tilde
Encoding: 732 732 357
Width: 917
GlyphClass: 2
Flags: W
LayerCount: 2
Fore
SplineSet
305 1512 m 0,0,1
 205 1512 205 1512 114 1408 c 1,2,-1
 48 1462 l 1,3,4
 80 1531 80 1531 152 1584.5 c 128,-1,5
 224 1638 224 1638 312.5 1638 c 128,-1,6
 401 1638 401 1638 476 1564 c 0,7,8
 525 1517 525 1517 552.5 1503.5 c 128,-1,9
 580 1490 580 1490 611 1490 c 0,10,11
 717 1490 717 1490 803 1594 c 1,12,-1
 870 1538 l 1,13,14
 811 1420 811 1420 696 1378 c 0,15,16
 656 1363 656 1363 611.5 1363 c 128,-1,17
 567 1363 567 1363 536 1374 c 128,-1,18
 505 1385 505 1385 481 1401.5 c 128,-1,19
 457 1418 457 1418 438 1437.5 c 128,-1,20
 419 1457 419 1457 387.5 1484.5 c 128,-1,21
 356 1512 356 1512 305 1512 c 0,0,1
EndSplineSet
EndChar

StartChar: hungarumlaut
Encoding: 733 733 358
Width: 1017
GlyphClass: 2
Flags: W
LayerCount: 2
Fore
SplineSet
47 1387 m 1,0,1
 54 1396 54 1396 74.5 1427.5 c 128,-1,2
 95 1459 95 1459 122 1501 c 0,3,4
 260 1711 260 1711 311 1796 c 1,5,-1
 435 1711 l 1,6,7
 353 1572 353 1572 200 1407 c 0,8,9
 158 1361 158 1361 126 1333 c 1,10,-1
 47 1387 l 1,0,1
539 1387 m 1,11,12
 551 1403 551 1403 598 1471.5 c 128,-1,13
 645 1540 645 1540 677 1586.5 c 128,-1,14
 709 1633 709 1633 736.5 1674 c 128,-1,15
 764 1715 764 1715 785 1746 c 128,-1,16
 806 1777 806 1777 812 1787 c 1,17,-1
 930 1702 l 1,18,19
 853 1568 853 1568 694 1406 c 0,20,21
 650 1360 650 1360 617 1333 c 1,22,-1
 539 1387 l 1,11,12
EndSplineSet
EndChar

StartChar: pi
Encoding: 960 960 362
Width: 1567
GlyphClass: 2
Flags: W
LayerCount: 2
Fore
SplineSet
1133 -24 m 0,0,1
 940 -24 940 -24 940 212 c 0,2,3
 940 230 940 230 941 249 c 2,4,-1
 991 999 l 1,5,-1
 640 1000 l 1,6,-1
 608 428 l 2,7,8
 595 207 595 207 510 114 c 0,9,10
 483 83 483 83 437.5 41.5 c 128,-1,11
 392 0 392 0 302 -24 c 1,12,-1
 199 70 l 1,13,14
 253 82 253 82 309 123 c 0,15,16
 403 192 403 192 432 282 c 0,17,18
 451 341 451 341 463 487 c 1,19,-1
 500 1000 l 1,20,-1
 429 1000 l 2,21,22
 305 1000 305 1000 242 924 c 0,23,24
 223 901 223 901 215 876 c 1,25,-1
 129 915 l 1,26,27
 129 961 129 961 169 1026 c 1,28,29
 247 1140 247 1140 456 1140 c 2,30,-1
 1179 1140 l 2,31,32
 1241 1140 1241 1140 1279 1156 c 128,-1,33
 1317 1172 1317 1172 1334 1215 c 1,34,-1
 1444 1215 l 1,35,36
 1434 1103 1434 1103 1369.5 1051 c 128,-1,37
 1305 999 1305 999 1174 999 c 2,38,-1
 1128 999 l 1,39,-1
 1093 251 l 2,40,41
 1093 243 1093 243 1093 235 c 0,42,43
 1093 107 1093 107 1180 107 c 0,44,45
 1233 107 1233 107 1283 160.5 c 128,-1,46
 1333 214 1333 214 1356 275 c 1,47,-1
 1439 239 l 1,48,49
 1421 137 1421 137 1334 56.5 c 128,-1,50
 1247 -24 1247 -24 1133 -24 c 0,0,1
EndSplineSet
EndChar

StartChar: endash
Encoding: 8211 8211 385
Width: 1692
GlyphClass: 2
Flags: W
LayerCount: 2
Fore
SplineSet
240 840 m 1,0,-1
 1452 840 l 1,1,-1
 1452 705 l 1,2,-1
 240 705 l 1,3,-1
 240 840 l 1,0,-1
EndSplineSet
EndChar

StartChar: emdash
Encoding: 8212 8212 386
Width: 2343
GlyphClass: 2
Flags: W
LayerCount: 2
Fore
SplineSet
240 840 m 1,0,-1
 2103 840 l 1,1,-1
 2103 705 l 1,2,-1
 240 705 l 1,3,-1
 240 840 l 1,0,-1
EndSplineSet
EndChar

StartChar: quoteleft
Encoding: 8216 8216 387
Width: 498
GlyphClass: 2
Flags: W
LayerCount: 2
Fore
SplineSet
294 963 m 1,0,1
 207 992 207 992 154 1088.5 c 128,-1,2
 101 1185 101 1185 101 1287 c 0,3,4
 101 1455 101 1455 167.5 1570 c 128,-1,5
 234 1685 234 1685 311 1737 c 1,6,-1
 383 1690 l 1,7,-1
 383 1665 l 1,8,9
 305 1602 305 1602 270 1444 c 0,10,11
 258 1392 258 1392 258 1346 c 0,12,13
 258 1264 258 1264 294 1195 c 128,-1,14
 330 1126 330 1126 380 1106 c 1,15,-1
 380 1059 l 1,16,-1
 294 963 l 1,0,1
EndSplineSet
EndChar

StartChar: quoteright
Encoding: 8217 8217 388
Width: 498
GlyphClass: 2
Flags: W
LayerCount: 2
Fore
SplineSet
123 1010 m 1,0,-1
 123 1035 l 1,1,2
 191 1103 191 1103 222 1257 c 0,3,4
 233 1308 233 1308 233 1354 c 0,5,6
 233 1440 233 1440 202 1510 c 128,-1,7
 171 1580 171 1580 126 1602 c 1,8,-1
 126 1649 l 1,9,-1
 234 1737 l 1,10,11
 306 1706 306 1706 348 1624.5 c 128,-1,12
 390 1543 390 1543 390 1436 c 0,13,14
 390 1256 390 1256 330.5 1138 c 128,-1,15
 271 1020 271 1020 195 963 c 1,16,-1
 123 1010 l 1,0,-1
EndSplineSet
EndChar

StartChar: quotereversed
Encoding: 8219 8219 390
Width: 498
GlyphClass: 2
Flags: W
LayerCount: 2
Fore
SplineSet
311 963 m 1,0,1
 178 1050 178 1050 118 1241 c 0,2,3
 96 1311 96 1311 96 1382 c 0,4,5
 96 1513 96 1513 149 1610.5 c 128,-1,6
 202 1708 202 1708 289 1737 c 1,7,-1
 375 1641 l 1,8,-1
 375 1595 l 1,9,10
 296 1560 296 1560 263 1436 c 0,11,12
 253 1399 253 1399 253 1354 c 0,13,14
 253 1261 253 1261 293.5 1168 c 128,-1,15
 334 1075 334 1075 383 1035 c 1,16,-1
 383 1010 l 1,17,-1
 311 963 l 1,0,1
EndSplineSet
EndChar

StartChar: dagger
Encoding: 8224 8224 394
Width: 1026
GlyphClass: 2
Flags: W
LayerCount: 2
Fore
SplineSet
438 1149 m 1,0,-1
 126 1147 l 1,1,-1
 127 1272 l 1,2,-1
 438 1269 l 1,3,-1
 435 1658 l 1,4,-1
 591 1658 l 1,5,-1
 588 1269 l 1,6,-1
 900 1272 l 1,7,-1
 900 1147 l 1,8,-1
 588 1149 l 1,9,-1
 579 200 l 1,10,-1
 446 200 l 1,11,-1
 438 1149 l 1,0,-1
EndSplineSet
EndChar

StartChar: daggerdbl
Encoding: 8225 8225 395
Width: 1026
GlyphClass: 2
Flags: W
LayerCount: 2
Fore
SplineSet
126 622 m 1,0,-1
 437 620 l 1,1,-1
 437 1149 l 1,2,-1
 126 1147 l 1,3,-1
 127 1272 l 1,4,-1
 437 1269 l 1,5,-1
 434 1658 l 1,6,-1
 591 1658 l 1,7,-1
 587 1269 l 1,8,-1
 900 1272 l 1,9,-1
 900 1147 l 1,10,-1
 587 1149 l 1,11,-1
 587 620 l 1,12,-1
 899 622 l 1,13,-1
 899 497 l 1,14,-1
 587 500 l 1,15,-1
 575 -356 l 1,16,-1
 449 -356 l 1,17,-1
 437 500 l 1,18,-1
 126 497 l 1,19,-1
 126 622 l 1,0,-1
EndSplineSet
EndChar

StartChar: bullet
Encoding: 8226 8226 396
Width: 852
GlyphClass: 2
Flags: W
LayerCount: 2
Fore
SplineSet
418 548 m 0,0,1
 348 548 348 548 301.5 598 c 128,-1,2
 255 648 255 648 255 721 c 128,-1,3
 255 794 255 794 310 848 c 128,-1,4
 365 902 365 902 434 902 c 0,5,6
 504 902 504 902 550.5 853.5 c 128,-1,7
 597 805 597 805 597 730.5 c 128,-1,8
 597 656 597 656 543 602 c 128,-1,9
 489 548 489 548 418 548 c 0,0,1
EndSplineSet
EndChar

StartChar: ellipsis
Encoding: 8230 8230 397
Width: 1983
GlyphClass: 2
Flags: W
LayerCount: 2
Fore
SplineSet
1570 18 m 128,-1,1
 1538 52 1538 52 1536 93 c 0,2,3
 1534 161 1534 161 1571.5 202.5 c 128,-1,4
 1609 244 1609 244 1647 244 c 0,5,6
 1709 244 1709 244 1738 210 c 128,-1,7
 1767 176 1767 176 1768 134 c 0,8,9
 1770 65 1770 65 1733.5 24.5 c 128,-1,10
 1697 -16 1697 -16 1649.5 -16 c 128,-1,0
 1602 -16 1602 -16 1570 18 c 128,-1,1
910.5 202.5 m 128,-1,12
 948 244 948 244 985 244 c 0,13,14
 1049 244 1049 244 1078 208.5 c 128,-1,15
 1107 173 1107 173 1107 123 c 0,16,17
 1107 120 1107 120 1107 105 c 0,18,19
 1107 63 1107 63 1071.5 23.5 c 128,-1,20
 1036 -16 1036 -16 988 -16 c 128,-1,21
 940 -16 940 -16 917 10 c 0,22,23
 877 54 877 54 875 107.5 c 128,-1,11
 873 161 873 161 910.5 202.5 c 128,-1,12
251 202.5 m 128,-1,25
 288 244 288 244 325 244 c 0,26,27
 387 244 387 244 417 208.5 c 128,-1,28
 447 173 447 173 447 132 c 0,29,30
 447 64 447 64 411 24 c 128,-1,31
 375 -16 375 -16 327 -16 c 128,-1,32
 279 -16 279 -16 256 10 c 0,33,34
 215 54 215 54 214.5 107.5 c 128,-1,24
 214 161 214 161 251 202.5 c 128,-1,25
EndSplineSet
EndChar

StartChar: perthousand
Encoding: 8240 8240 398
Width: 2767
GlyphClass: 3
Flags: W
LayerCount: 2
Fore
SplineSet
2072.5 749.5 m 128,-1,1
 2184 861 2184 861 2347.5 861 c 128,-1,2
 2511 861 2511 861 2596.5 750.5 c 128,-1,3
 2682 640 2682 640 2682 457.5 c 128,-1,4
 2682 275 2682 275 2570.5 165.5 c 128,-1,5
 2459 56 2459 56 2303 56 c 128,-1,6
 2147 56 2147 56 2054 170 c 128,-1,7
 1961 284 1961 284 1961 461 c 128,-1,0
 1961 638 1961 638 2072.5 749.5 c 128,-1,1
2166.5 250.5 m 128,-1,9
 2222 168 2222 168 2318 168 c 128,-1,10
 2414 168 2414 168 2473.5 244.5 c 128,-1,11
 2533 321 2533 321 2533 456 c 0,12,13
 2533 664 2533 664 2416 730 c 0,14,15
 2380 750 2380 750 2354.5 750 c 128,-1,16
 2329 750 2329 750 2303.5 749.5 c 128,-1,17
 2278 749 2278 749 2238.5 728.5 c 128,-1,18
 2199 708 2199 708 2170 670 c 0,19,20
 2111 592 2111 592 2111 462.5 c 128,-1,8
 2111 333 2111 333 2166.5 250.5 c 128,-1,9
1225 1530 m 1,21,-1
 1370 1530 l 1,22,-1
 712 0 l 1,23,-1
 567 0 l 1,24,-1
 1225 1530 l 1,21,-1
694.5 795.5 m 128,-1,26
 583 686 583 686 427.5 686 c 128,-1,27
 272 686 272 686 178.5 800.5 c 128,-1,28
 85 915 85 915 85 1092 c 128,-1,29
 85 1269 85 1269 196.5 1380.5 c 128,-1,30
 308 1492 308 1492 471 1492 c 128,-1,31
 634 1492 634 1492 720 1382 c 128,-1,32
 806 1272 806 1272 806 1088.5 c 128,-1,25
 806 905 806 905 694.5 795.5 c 128,-1,26
354 820 m 0,33,34
 392 798 392 798 440 798 c 0,35,36
 538 800 538 800 597.5 877 c 128,-1,37
 657 954 657 954 657 1086 c 0,38,39
 657 1294 657 1294 540 1360 c 0,40,41
 504 1380 504 1380 478.5 1380 c 128,-1,42
 453 1380 453 1380 428 1379.5 c 128,-1,43
 403 1379 403 1379 363 1358.5 c 128,-1,44
 323 1338 323 1338 294 1300 c 0,45,46
 234 1221 234 1221 234 1089 c 0,47,48
 234 890 234 890 354 820 c 0,33,34
1249.5 749.5 m 128,-1,50
 1361 861 1361 861 1525 861 c 128,-1,51
 1689 861 1689 861 1773.5 750.5 c 128,-1,52
 1858 640 1858 640 1858 457.5 c 128,-1,53
 1858 275 1858 275 1746.5 165.5 c 128,-1,54
 1635 56 1635 56 1479.5 56 c 128,-1,55
 1324 56 1324 56 1231 170 c 128,-1,56
 1138 284 1138 284 1138 461 c 128,-1,49
 1138 638 1138 638 1249.5 749.5 c 128,-1,50
1342.5 250.5 m 128,-1,58
 1398 168 1398 168 1493 168 c 0,59,60
 1590 168 1590 168 1649.5 244.5 c 128,-1,61
 1709 321 1709 321 1709 456 c 0,62,63
 1709 664 1709 664 1593 730 c 0,64,65
 1557 750 1557 750 1531.5 750 c 128,-1,66
 1506 750 1506 750 1480.5 749.5 c 128,-1,67
 1455 749 1455 749 1415 728.5 c 128,-1,68
 1375 708 1375 708 1346 670 c 0,69,70
 1287 592 1287 592 1287 462.5 c 128,-1,57
 1287 333 1287 333 1342.5 250.5 c 128,-1,58
EndSplineSet
Ligature2: "'frac' Diagonal Fractions in Latin lookup 10 subtable" zero slash zero zero
EndChar

StartChar: minute
Encoding: 8242 8242 399
Width: 643
GlyphClass: 2
Flags: W
LayerCount: 2
Fore
SplineSet
303 1790 m 1,0,-1
 478 1790 l 1,1,-1
 321 1190 l 1,2,-1
 197 1190 l 1,3,-1
 303 1790 l 1,0,-1
EndSplineSet
EndChar

StartChar: guilsinglleft
Encoding: 8249 8249 401
Width: 1204
GlyphClass: 2
Flags: W
LayerCount: 2
Fore
SplineSet
245 683 m 1,0,-1
 898 1131 l 1,1,-1
 942 1006 l 1,2,-1
 408 615 l 1,3,-1
 942 227 l 1,4,-1
 898 106 l 1,5,-1
 245 542 l 1,6,-1
 245 683 l 1,0,-1
EndSplineSet
EndChar

StartChar: fraction
Encoding: 8260 8260 404
Width: 1026
GlyphClass: 2
Flags: W
LayerCount: 2
Fore
SplineSet
699 1530 m 1,0,-1
 851 1530 l 1,1,-1
 310 0 l 1,2,-1
 160 0 l 1,3,-1
 699 1530 l 1,0,-1
EndSplineSet
EndChar

StartChar: foursuperior
Encoding: 8308 8308 405
Width: 1151
GlyphClass: 2
Flags: W
LayerCount: 2
Fore
SplineSet
112 947 m 1,0,-1
 586 1779 l 1,1,-1
 638 1779 l 1,2,-1
 737 1720 l 1,3,-1
 353 1091 l 1,4,-1
 297 991 l 1,5,-1
 694 991 l 1,6,-1
 694 993 l 1,7,-1
 700 1273 l 1,8,-1
 849 1289 l 1,9,-1
 849 991 l 1,10,-1
 1041 991 l 1,11,-1
 1042 875 l 1,12,-1
 849 875 l 1,13,-1
 849 592 l 1,14,-1
 693 592 l 1,15,-1
 693 875 l 1,16,-1
 153 875 l 1,17,-1
 112 947 l 1,0,-1
EndSplineSet
EndChar

StartChar: Euro
Encoding: 8364 8364 406
Width: 1522
GlyphClass: 2
Flags: W
LayerCount: 2
Fore
SplineSet
940 95 m 0,0,1
 1164 95 1164 95 1325 187 c 1,2,-1
 1371 61 l 1,3,4
 1338 56 1338 56 1304 42 c 0,5,6
 1141 -28 1141 -28 966 -28 c 128,-1,7
 791 -28 791 -28 690 12 c 0,8,9
 388 129 388 129 325 527 c 1,10,-1
 119 527 l 1,11,-1
 119 637 l 1,12,-1
 313 637 l 1,13,14
 311 677 311 677 311 745 c 128,-1,15
 311 813 311 813 323 899 c 1,16,-1
 150 899 l 1,17,-1
 150 1008 l 1,18,-1
 343 1008 l 1,19,20
 403 1254 403 1254 571.5 1396 c 128,-1,21
 740 1538 740 1538 1008 1538 c 0,22,23
 1152 1538 1152 1538 1278 1494 c 0,24,25
 1311 1483 1311 1483 1342 1475 c 1,26,-1
 1301 1341 l 1,27,28
 1174 1411 1174 1411 969 1411 c 0,29,30
 717 1411 717 1411 586 1186 c 0,31,32
 542 1111 542 1111 518 1008 c 1,33,-1
 1105 1008 l 1,34,-1
 1105 899 l 1,35,-1
 500 899 l 1,36,37
 493 843 493 843 493 780 c 128,-1,38
 493 717 493 717 498 637 c 1,39,-1
 1072 637 l 1,40,-1
 1072 527 l 1,41,-1
 510 527 l 1,42,43
 581 95 581 95 940 95 c 0,0,1
EndSplineSet
EndChar

StartChar: uni2113
Encoding: 8467 8467 407
Width: 1214
GlyphClass: 2
Flags: W
LayerCount: 2
Fore
SplineSet
354 217 m 1,0,1
 272 140 272 140 172 60 c 1,2,-1
 40 149 l 1,3,4
 196 253 196 253 328 377 c 1,5,6
 323 425 323 425 323 530.5 c 128,-1,7
 323 636 323 636 344.5 776.5 c 128,-1,8
 366 917 366 917 404 1048 c 0,9,10
 483 1323 483 1323 618 1501.5 c 128,-1,11
 753 1680 753 1680 902 1680 c 0,12,13
 1027 1680 1027 1680 1062 1544 c 0,14,15
 1072 1503 1072 1503 1072 1453 c 0,16,17
 1072 1194 1072 1194 906 898.5 c 128,-1,18
 740 603 740 603 469 328 c 1,19,20
 486 210 486 210 526 156.5 c 128,-1,21
 566 103 566 103 610 103 c 0,22,23
 688 103 688 103 755.5 197 c 128,-1,24
 823 291 823 291 868 421 c 1,25,-1
 1006 396 l 1,26,27
 962 257 962 257 867 131 c 0,28,29
 746 -29 746 -29 610 -29 c 0,30,31
 420 -29 420 -29 354 217 c 1,0,1
459 508 m 1,32,33
 679 746 679 746 805.5 1000 c 128,-1,34
 932 1254 932 1254 932 1453 c 0,35,36
 932 1518 932 1518 903 1547 c 0,37,38
 893 1557 893 1557 879 1557 c 0,39,40
 789 1557 789 1557 691.5 1386 c 128,-1,41
 594 1215 594 1215 527.5 965 c 128,-1,42
 461 715 461 715 459 508 c 1,32,33
EndSplineSet
EndChar

StartChar: afii61352
Encoding: 8470 8470 408
Width: 2569
GlyphClass: 2
Flags: W
LayerCount: 2
Fore
SplineSet
1635 614 m 0,0,1
 1532 758 1532 758 1532 1010 c 0,2,3
 1532 1129 1532 1129 1570 1229 c 128,-1,4
 1608 1329 1608 1329 1672 1396 c 0,5,6
 1802 1532 1802 1532 2021 1532 c 128,-1,7
 2240 1532 2240 1532 2362 1366 c 1,8,9
 2467 1221 2467 1221 2467 976.5 c 128,-1,10
 2467 732 2467 732 2334 588.5 c 128,-1,11
 2201 445 2201 445 1978.5 445 c 128,-1,12
 1756 445 1756 445 1635 614 c 0,0,1
206 1522 m 1,13,-1
 355 1522 l 1,14,-1
 989 492 l 1,15,-1
 1117 235 l 1,16,-1
 1109 461 l 1,17,-1
 1109 1522 l 1,18,-1
 1263 1522 l 1,19,-1
 1263 0 l 1,20,-1
 1117 0 l 1,21,-1
 501 998 l 1,22,-1
 350 1283 l 1,23,-1
 360 1036 l 1,24,-1
 360 0 l 1,25,-1
 206 0 l 1,26,-1
 206 1522 l 1,13,-1
1774 687.5 m 128,-1,28
 1851 563 1851 563 1997 563 c 128,-1,29
 2143 563 2143 563 2223 673.5 c 128,-1,30
 2303 784 2303 784 2303 980 c 0,31,32
 2303 1280 2303 1280 2137 1378 c 0,33,34
 2079 1412 2079 1412 2006 1412 c 128,-1,35
 1933 1412 1933 1412 1877 1385.5 c 128,-1,36
 1821 1359 1821 1359 1780 1308 c 1,37,38
 1697 1201 1697 1201 1697 1006.5 c 128,-1,27
 1697 812 1697 812 1774 687.5 c 128,-1,28
1596 213 m 1,39,-1
 2412 213 l 1,40,-1
 2412 87 l 1,41,-1
 1596 87 l 1,42,-1
 1596 213 l 1,39,-1
EndSplineSet
EndChar

StartChar: trademark
Encoding: 8482 8482 409
Width: 2218
GlyphClass: 2
Flags: W
LayerCount: 2
Fore
SplineSet
1070 1546 m 1,0,-1
 1291 1546 l 1,1,-1
 1479 1072 l 1,2,-1
 1519 933 l 1,3,-1
 1552 1071 l 1,4,-1
 1729 1546 l 1,5,-1
 1937 1546 l 1,6,-1
 2004 767 l 1,7,-1
 1868 767 l 1,8,-1
 1833 1287 l 1,9,-1
 1824 1456 l 1,10,-1
 1776 1320 l 1,11,-1
 1565 762 l 1,12,-1
 1474 762 l 1,13,-1
 1189 1457 l 1,14,-1
 1186 1305 l 1,15,-1
 1163 767 l 1,16,-1
 1033 767 l 1,17,-1
 1070 1546 l 1,0,-1
458 1430 m 1,18,-1
 189 1428 l 1,19,-1
 189 1546 l 1,20,-1
 874 1546 l 1,21,-1
 874 1428 l 1,22,-1
 598 1430 l 1,23,-1
 598 767 l 1,24,-1
 458 767 l 1,25,-1
 458 1430 l 1,18,-1
EndSplineSet
EndChar

StartChar: Omega
Encoding: 8486 8486 410
Width: 1815
GlyphClass: 2
Flags: W
LayerCount: 2
Fore
SplineSet
212 118 m 1,0,-1
 564 118 l 1,1,2
 417 228 417 228 309 435 c 128,-1,3
 201 642 201 642 201 862 c 0,4,5
 201 865 201 865 201 869 c 0,6,7
 201 1195 201 1195 422 1380 c 0,8,9
 620 1545 620 1545 912 1545 c 128,-1,10
 1204 1545 1204 1545 1395.5 1366 c 128,-1,11
 1587 1187 1587 1187 1587 869 c 0,12,13
 1587 639 1587 639 1489 436.5 c 128,-1,14
 1391 234 1391 234 1237 118 c 1,15,-1
 1622 118 l 1,16,-1
 1622 0 l 1,17,-1
 1061 0 l 1,18,-1
 1060 114 l 1,19,20
 1208 203 1208 203 1312.5 404 c 128,-1,21
 1417 605 1417 605 1417 873 c 128,-1,22
 1417 1141 1417 1141 1253 1292 c 0,23,24
 1112 1421 1112 1421 896 1421 c 128,-1,25
 680 1421 680 1421 525.5 1278 c 128,-1,26
 371 1135 371 1135 371 863 c 0,27,28
 371 534 371 534 572 277 c 0,29,30
 657 169 657 169 743 114 c 1,31,-1
 743 0 l 1,32,-1
 212 0 l 1,33,-1
 212 118 l 1,0,-1
EndSplineSet
EndChar

StartChar: estimated
Encoding: 8494 8494 411
Width: 1383
GlyphClass: 2
Flags: W
LayerCount: 2
Fore
SplineSet
1274 832 m 1,0,1
 1274 679 1274 679 1263 627 c 1,2,-1
 350 627 l 1,3,-1
 350 259 l 1,4,5
 474 82 474 82 749 82 c 0,6,7
 901 82 901 82 1058 148 c 0,8,9
 1100 166 1100 166 1126 182 c 1,10,-1
 1163 88 l 1,11,12
 1064 17 1064 17 850 -8 c 0,13,14
 788 -16 788 -16 732 -16 c 0,15,16
 438 -16 438 -16 273.5 166 c 128,-1,17
 109 348 109 348 109 661.5 c 128,-1,18
 109 975 109 975 273 1165.5 c 128,-1,19
 437 1356 437 1356 748 1356 c 0,20,21
 963 1356 963 1356 1114.5 1214 c 128,-1,22
 1266 1072 1266 1072 1274 832 c 1,0,1
1051 1120 m 1,23,24
 948 1257 948 1257 711.5 1257 c 128,-1,25
 475 1257 475 1257 350 1072 c 1,26,-1
 350 737 l 1,27,-1
 1051 737 l 1,28,-1
 1051 1120 l 1,23,24
EndSplineSet
EndChar

StartChar: partialdiff
Encoding: 8706 8706 412
Width: 1366
GlyphClass: 2
Flags: W
LayerCount: 2
Fore
SplineSet
781 1043 m 0,0,1
 924 1043 924 1043 1056 994 c 1,2,3
 1018 1392 1018 1392 757 1514 c 0,4,5
 661 1559 661 1559 504.5 1559 c 128,-1,6
 348 1559 348 1559 241 1486 c 1,7,-1
 185 1582 l 1,8,9
 322 1684 322 1684 555 1684 c 0,10,11
 999 1684 999 1684 1153 1256 c 0,12,13
 1220 1070 1220 1070 1220 824 c 0,14,15
 1220 155 1220 155 856 6 c 0,16,17
 770 -29 770 -29 663 -29 c 0,18,19
 451 -29 451 -29 306.5 104.5 c 128,-1,20
 162 238 162 238 162 482.5 c 128,-1,21
 162 727 162 727 330 885 c 128,-1,22
 498 1043 498 1043 781 1043 c 0,0,1
1063 864 m 1,23,24
 944 926 944 926 761 926 c 128,-1,25
 578 926 578 926 451 809 c 128,-1,26
 324 692 324 692 324 498 c 128,-1,27
 324 304 324 304 416 199 c 128,-1,28
 508 94 508 94 669.5 95 c 128,-1,29
 831 96 831 96 926 222 c 0,30,31
 1063 402 1063 402 1063 816 c 2,32,-1
 1063 864 l 1,23,24
EndSplineSet
EndChar

StartChar: Delta
Encoding: 8710 8710 413
Width: 1577
GlyphClass: 2
Flags: W
LayerCount: 2
Fore
SplineSet
743 1508 m 1,0,-1
 772 1508 l 1,1,-1
 1521 25 l 1,2,-1
 1506 0 l 1,3,-1
 68 0 l 1,4,-1
 55 21 l 1,5,-1
 743 1508 l 1,0,-1
1294 133 m 1,6,-1
 764 1219 l 1,7,-1
 271 133 l 1,8,-1
 1294 133 l 1,6,-1
EndSplineSet
EndChar

StartChar: product
Encoding: 8719 8719 414
Width: 1629
GlyphClass: 2
Flags: W
LayerCount: 2
Fore
SplineSet
339 1396 m 1,0,-1
 130 1396 l 1,1,-1
 130 1522 l 1,2,-1
 1499 1522 l 1,3,-1
 1499 1396 l 1,4,-1
 1290 1396 l 1,5,-1
 1290 -171 l 1,6,-1
 1120 -171 l 1,7,-1
 1120 1395 l 1,8,-1
 509 1395 l 1,9,-1
 509 -171 l 1,10,-1
 339 -171 l 1,11,-1
 339 1396 l 1,0,-1
EndSplineSet
EndChar

StartChar: summation
Encoding: 8721 8721 415
Width: 1508
GlyphClass: 2
Flags: W
LayerCount: 2
Fore
SplineSet
773 680 m 1,0,-1
 200 1459 l 1,1,-1
 224 1522 l 1,2,-1
 1261 1522 l 1,3,-1
 1261 1396 l 1,4,-1
 421 1396 l 1,5,-1
 948 684 l 1,6,-1
 433 -51 l 1,7,-1
 1274 -51 l 1,8,-1
 1274 -171 l 1,9,-1
 220 -170 l 1,10,-1
 200 -128 l 1,11,-1
 773 680 l 1,0,-1
EndSplineSet
EndChar

StartChar: minus
Encoding: 8722 8722 416
Width: 1350
GlyphClass: 2
Flags: W
LayerCount: 2
Fore
SplineSet
247 840 m 1,0,-1
 1103 840 l 1,1,-1
 1103 705 l 1,2,-1
 247 705 l 1,3,-1
 247 840 l 1,0,-1
EndSplineSet
EndChar

StartChar: uni2215
Encoding: 8725 8725 417
Width: 854
GlyphClass: 2
Flags: W
LayerCount: 2
Fore
SplineSet
741 1599 m 1,0,-1
 888 1599 l 1,1,-1
 113 -363 l 1,2,-1
 -34 -363 l 1,3,-1
 741 1599 l 1,0,-1
EndSplineSet
EndChar

StartChar: uni2219
Encoding: 8729 8729 418
Width: 655
GlyphClass: 2
Flags: W
LayerCount: 2
Fore
SplineSet
223 614 m 128,-1,1
 183 656 183 656 183 704 c 0,2,3
 183 783 183 783 228 831.5 c 128,-1,4
 273 880 273 880 320 880 c 0,5,6
 397 880 397 880 434 839 c 128,-1,7
 471 798 471 798 471 736 c 0,8,9
 471 733 471 733 471 716 c 128,-1,10
 471 699 471 699 459.5 670 c 128,-1,11
 448 641 448 641 427 619 c 0,12,13
 382 572 382 572 322.5 572 c 128,-1,0
 263 572 263 572 223 614 c 128,-1,1
EndSplineSet
EndChar

StartChar: radical
Encoding: 8730 8730 419
Width: 1602
GlyphClass: 2
Flags: W
LayerCount: 2
Fore
SplineSet
97 599 m 1,0,-1
 285 714 l 1,1,-1
 431 714 l 1,2,-1
 782 -134 l 1,3,-1
 1406 1870 l 1,4,-1
 1571 1870 l 1,5,-1
 857 -354 l 1,6,-1
 720 -354 l 1,7,-1
 313 566 l 1,8,-1
 169 478 l 1,9,-1
 97 599 l 1,0,-1
EndSplineSet
EndChar

StartChar: infinity
Encoding: 8734 8734 420
Width: 1842
GlyphClass: 2
Flags: W
LayerCount: 2
Fore
SplineSet
846 398 m 0,0,1
 691 230 691 230 506 230 c 128,-1,2
 321 230 321 230 212 337.5 c 128,-1,3
 103 445 103 445 103 618.5 c 128,-1,4
 103 792 103 792 218.5 898 c 128,-1,5
 334 1004 334 1004 521.5 1004 c 128,-1,6
 709 1004 709 1004 852 832 c 0,7,8
 892 783 892 783 927 731 c 1,9,10
 1048 915 1048 915 1209 979 c 0,11,12
 1269 1003 1269 1003 1304 1003.5 c 128,-1,13
 1339 1004 1339 1004 1342 1004 c 0,14,15
 1535 1004 1535 1004 1637 895 c 128,-1,16
 1739 786 1739 786 1739 615.5 c 128,-1,17
 1739 445 1739 445 1629 337 c 128,-1,18
 1519 229 1519 229 1326.5 229 c 128,-1,19
 1134 229 1134 229 996 397 c 0,20,21
 956 445 956 445 922 496 c 1,22,23
 889 446 889 446 846 398 c 0,0,1
1001 620 m 1,24,25
 1080 497 1080 497 1135 447 c 0,26,27
 1246 345 1246 345 1356.5 345 c 128,-1,28
 1467 345 1467 345 1527.5 427.5 c 128,-1,29
 1588 510 1588 510 1588 619 c 0,30,31
 1588 789 1588 789 1440 856 c 0,32,33
 1389 879 1389 879 1328 879 c 0,34,35
 1226 879 1226 879 1147.5 806.5 c 128,-1,36
 1069 734 1069 734 1001 620 c 1,24,25
402 368 m 0,37,38
 453 346 453 346 513 346 c 0,39,40
 613 346 613 346 693 414 c 128,-1,41
 773 482 773 482 850 605 c 1,42,43
 773 728 773 728 725 778 c 0,44,45
 626 879 626 879 527 879 c 0,46,47
 395 879 395 879 324.5 800 c 128,-1,48
 254 721 254 721 254 609 c 0,49,50
 254 433 254 433 402 368 c 0,37,38
EndSplineSet
EndChar

StartChar: integral
Encoding: 8747 8747 421
Width: 1042
GlyphClass: 2
Flags: W
LayerCount: 2
Fore
SplineSet
165 -287 m 1,0,1
 253 -393 253 -393 393 -393 c 128,-1,2
 533 -393 533 -393 604 -311 c 128,-1,3
 675 -229 675 -229 675 -47.5 c 128,-1,4
 675 134 675 134 564 374 c 0,5,6
 517 477 517 477 462 580 c 0,7,8
 248 979 248 979 248 1208 c 0,9,10
 248 1542 248 1542 488 1648 c 1,11,12
 567 1684 567 1684 642 1684 c 0,13,14
 770 1684 770 1684 849 1652.5 c 128,-1,15
 928 1621 928 1621 969 1552 c 1,16,-1
 882 1466 l 1,17,18
 847 1525 847 1525 748 1550 c 0,19,20
 713 1559 713 1559 656 1559 c 0,21,22
 536 1559 536 1559 469 1466 c 128,-1,23
 402 1373 402 1373 402 1207 c 0,24,25
 402 991 402 991 614 597 c 0,26,27
 741 363 741 363 784 219 c 128,-1,28
 827 75 827 75 827 -30 c 0,29,30
 827 -254 827 -254 728 -386 c 128,-1,31
 629 -518 629 -518 421 -518 c 0,32,33
 265 -518 265 -518 156 -442 c 0,34,35
 122 -419 122 -419 101 -389 c 1,36,-1
 165 -287 l 1,0,1
EndSplineSet
EndChar

StartChar: notequal
Encoding: 8800 8800 423
Width: 1397
GlyphClass: 2
Flags: W
LayerCount: 2
Fore
SplineSet
510 428 m 1,0,-1
 241 428 l 1,1,-1
 241 555 l 1,2,-1
 557 555 l 1,3,-1
 713 986 l 1,4,-1
 241 986 l 1,5,-1
 241 1114 l 1,6,-1
 762 1114 l 1,7,-1
 839 1319 l 1,8,-1
 972 1319 l 1,9,-1
 894 1114 l 1,10,-1
 1156 1114 l 1,11,-1
 1156 986 l 1,12,-1
 845 986 l 1,13,-1
 689 555 l 1,14,-1
 1156 555 l 1,15,-1
 1156 428 l 1,16,-1
 641 428 l 1,17,-1
 557 203 l 1,18,-1
 426 203 l 1,19,-1
 510 428 l 1,0,-1
EndSplineSet
EndChar

StartChar: lessequal
Encoding: 8804 8804 424
Width: 1368
GlyphClass: 2
Flags: W
LayerCount: 2
Fore
SplineSet
173 834 m 1,0,-1
 1138 1282 l 1,1,-1
 1138 1128 l 1,2,-1
 340 773 l 1,3,-1
 1138 418 l 1,4,-1
 1138 263 l 1,5,-1
 173 711 l 1,6,-1
 173 834 l 1,0,-1
173 124 m 1,7,-1
 1138 124 l 1,8,-1
 1138 0 l 1,9,-1
 173 0 l 1,10,-1
 173 124 l 1,7,-1
EndSplineSet
EndChar

StartChar: lozenge
Encoding: 9674 9674 426
Width: 1243
GlyphClass: 2
Flags: W
LayerCount: 2
Fore
SplineSet
84 762 m 1,0,-1
 84 775 l 1,1,-1
 620 1516 l 1,2,-1
 624 1516 l 1,3,-1
 1159 775 l 1,4,-1
 1159 762 l 1,5,-1
 624 0 l 1,6,-1
 619 0 l 1,7,-1
 84 762 l 1,0,-1
623 224 m 1,8,-1
 993 768 l 1,9,-1
 993 772 l 1,10,-1
 623 1296 l 1,11,-1
 620 1296 l 1,12,-1
 249 772 l 1,13,-1
 249 765 l 1,14,-1
 620 224 l 1,15,-1
 623 224 l 1,8,-1
EndSplineSet
EndChar

StartChar: commaaccent
Encoding: 63171 63171 427
Width: 335
GlyphClass: 2
Flags: W
LayerCount: 2
Fore
SplineSet
177 -97 m 1,0,1
 239 -125 239 -125 264 -230 c 0,2,3
 272 -265 272 -265 272 -310 c 0,4,5
 272 -396 272 -396 227.5 -467.5 c 128,-1,6
 183 -539 183 -539 134 -560 c 1,7,-1
 76 -528 l 1,8,-1
 76 -508 l 1,9,10
 129 -460 129 -460 129 -362.5 c 128,-1,11
 129 -265 129 -265 84 -222 c 0,12,13
 71 -209 71 -209 57 -205 c 1,14,-1
 57 -167 l 1,15,-1
 177 -97 l 1,0,1
EndSplineSet
EndChar

StartChar: grave.cap
Encoding: 65537 -1 433
Width: 564
GlyphClass: 2
Flags: W
LayerCount: 2
Fore
SplineSet
437 1589 m 1,0,1
 301 1657 301 1657 134 1795 c 0,2,3
 85 1836 85 1836 50 1873 c 1,4,-1
 161 1975 l 1,5,6
 194 1939 194 1939 283 1859 c 128,-1,7
 372 1779 372 1779 419 1736.5 c 128,-1,8
 466 1694 466 1694 508 1660 c 1,9,-1
 437 1589 l 1,0,1
EndSplineSet
EndChar

StartChar: dieresis.cap
Encoding: 65538 -1 434
Width: 805
GlyphClass: 2
Flags: W
LayerCount: 2
Fore
SplineSet
650 1922 m 0,0,1
 755 1922 755 1922 755 1813 c 0,2,3
 755 1727 755 1727 680 1698 c 0,4,5
 658 1690 658 1690 624 1690 c 128,-1,6
 590 1690 590 1690 559.5 1717.5 c 128,-1,7
 529 1745 529 1745 529 1786 c 0,8,9
 529 1851 529 1851 566 1886.5 c 128,-1,10
 603 1922 603 1922 650 1922 c 0,0,1
171 1922 m 0,11,12
 275 1922 275 1922 275 1813 c 0,13,14
 275 1727 275 1727 200 1698 c 0,15,16
 178 1690 178 1690 144.5 1690 c 128,-1,17
 111 1690 111 1690 80.5 1717.5 c 128,-1,18
 50 1745 50 1745 50 1786 c 0,19,20
 50 1852 50 1852 86.5 1887 c 128,-1,21
 123 1922 123 1922 171 1922 c 0,11,12
EndSplineSet
EndChar

StartChar: circumflex.cap
Encoding: 65539 -1 435
Width: 804
GlyphClass: 2
Flags: W
LayerCount: 2
Fore
SplineSet
49 1684 m 1,0,-1
 326 1982 l 1,1,-1
 475 1982 l 1,2,-1
 755 1686 l 1,3,-1
 645 1639 l 1,4,-1
 401 1862 l 1,5,-1
 153 1639 l 1,6,-1
 49 1684 l 1,0,-1
EndSplineSet
EndChar

StartChar: caron.cap
Encoding: 65540 -1 436
Width: 762
GlyphClass: 2
Flags: W
LayerCount: 2
Fore
SplineSet
49 1936 m 1,0,-1
 146 1982 l 1,1,-1
 390 1780 l 1,2,-1
 638 1982 l 1,3,-1
 730 1938 l 1,4,-1
 465 1667 l 1,5,-1
 317 1667 l 1,6,-1
 49 1936 l 1,0,-1
EndSplineSet
EndChar

StartChar: breve.cap
Encoding: 65541 -1 437
Width: 772
GlyphClass: 2
Flags: W
LayerCount: 2
Fore
SplineSet
530.5 1668.5 m 128,-1,1
 466 1642 466 1642 384.5 1642 c 128,-1,2
 303 1642 303 1642 238 1668 c 0,3,4
 108 1721 108 1721 65 1843 c 0,5,6
 48 1891 48 1891 48 1922.5 c 128,-1,7
 48 1954 48 1954 49 1967 c 1,8,-1
 166 1967 l 1,9,10
 166 1868 166 1868 244 1813 c 0,11,12
 299 1774 299 1774 379 1774 c 0,13,14
 510 1774 510 1774 569 1853 c 0,15,16
 610 1908 610 1908 610 1967 c 1,17,-1
 724 1967 l 1,18,19
 725 1957 725 1957 725 1925 c 128,-1,20
 725 1893 725 1893 704.5 1838.5 c 128,-1,21
 684 1784 684 1784 639.5 1739.5 c 128,-1,0
 595 1695 595 1695 530.5 1668.5 c 128,-1,1
EndSplineSet
EndChar

StartChar: ring.cap
Encoding: 65542 -1 438
Width: 713
GlyphClass: 2
Flags: W
LayerCount: 2
Fore
SplineSet
470.5 1474 m 128,-1,1
 414 1459 414 1459 348 1459 c 128,-1,2
 282 1459 282 1459 224 1477 c 0,3,4
 110 1513 110 1513 67 1612 c 0,5,6
 47 1658 47 1658 47 1688 c 0,7,8
 47 1788 47 1788 75 1837 c 0,9,10
 152 1972 152 1972 365.5 1972 c 128,-1,11
 579 1972 579 1972 644 1828 c 0,12,13
 666 1781 666 1781 665.5 1715.5 c 128,-1,14
 665 1650 665 1650 639 1601 c 128,-1,15
 613 1552 613 1552 570 1520.5 c 128,-1,0
 527 1489 527 1489 470.5 1474 c 128,-1,1
354 1556 m 1,16,17
 491 1556 491 1556 533 1643 c 0,18,19
 548 1674 548 1674 548 1716 c 0,20,21
 548 1796 548 1796 495 1836.5 c 128,-1,22
 442 1877 442 1877 357 1877 c 0,23,24
 229 1877 229 1877 183 1796 c 0,25,26
 166 1766 166 1766 166 1705 c 128,-1,27
 166 1644 166 1644 215 1601 c 128,-1,28
 264 1558 264 1558 354 1556 c 1,16,17
EndSplineSet
EndChar

StartChar: tilde.cap
Encoding: 65543 -1 439
Width: 917
GlyphClass: 2
Flags: W
LayerCount: 2
Fore
SplineSet
299 1821 m 0,0,1
 203 1821 203 1821 114 1713 c 1,2,-1
 48 1767 l 1,3,4
 80 1839 80 1839 157 1891.5 c 128,-1,5
 234 1944 234 1944 321 1944 c 128,-1,6
 408 1944 408 1944 483 1869 c 0,7,8
 530 1822 530 1822 558.5 1808 c 128,-1,9
 587 1794 587 1794 617 1794 c 0,10,11
 717 1794 717 1794 803 1899 c 1,12,-1
 870 1843 l 1,13,14
 838 1771 838 1771 760 1719 c 128,-1,15
 682 1667 682 1667 622 1667 c 128,-1,16
 562 1667 562 1667 531.5 1678.5 c 128,-1,17
 501 1690 501 1690 477.5 1707 c 128,-1,18
 454 1724 454 1724 435 1744 c 128,-1,19
 416 1764 416 1764 382.5 1792.5 c 128,-1,20
 349 1821 349 1821 299 1821 c 0,0,1
EndSplineSet
EndChar

StartChar: hungarumlaut.cap
Encoding: 65544 -1 440
Width: 955
GlyphClass: 2
Flags: W
LayerCount: 2
Fore
SplineSet
410 1922 m 1,0,1
 283 1746 283 1746 149 1639 c 1,2,-1
 54 1692 l 1,3,4
 119 1764 119 1764 196 1871.5 c 128,-1,5
 273 1979 273 1979 280 1990 c 1,6,-1
 410 1922 l 1,0,1
878 1913 m 1,7,8
 761 1748 761 1748 617 1639 c 1,9,-1
 521 1692 l 1,10,11
 596 1776 596 1776 672 1874 c 128,-1,12
 748 1972 748 1972 754 1981 c 1,13,-1
 878 1913 l 1,7,8
EndSplineSet
EndChar

StartChar: acute.cap
Encoding: 65545 -1 441
Width: 564
GlyphClass: 2
Flags: W
LayerCount: 2
Fore
SplineSet
56 1660 m 1,0,1
 98 1694 98 1694 145 1736.5 c 128,-1,2
 192 1779 192 1779 231 1814 c 0,3,4
 370 1939 370 1939 403 1975 c 1,5,-1
 514 1873 l 1,6,7
 388 1747 388 1747 226 1644 c 0,8,9
 174 1612 174 1612 128 1589 c 1,10,-1
 56 1660 l 1,0,1
EndSplineSet
EndChar

StartChar: dotaccent.cap
Encoding: 65546 -1 442
Width: 330
GlyphClass: 2
Flags: W
LayerCount: 2
Fore
SplineSet
278 1826 m 0,0,1
 278 1731 278 1731 203 1700 c 0,2,3
 181 1691 181 1691 147 1691 c 128,-1,4
 113 1691 113 1691 82 1719.5 c 128,-1,5
 51 1748 51 1748 51 1788 c 0,6,7
 51 1852 51 1852 88 1889 c 128,-1,8
 125 1926 125 1926 176 1926 c 128,-1,9
 227 1926 227 1926 252.5 1895 c 128,-1,10
 278 1864 278 1864 278 1826 c 0,0,1
EndSplineSet
EndChar

StartChar: macron.cap
Encoding: 65547 -1 443
Width: 643
GlyphClass: 2
Flags: W
LayerCount: 2
Fore
SplineSet
50 1867 m 1,0,-1
 593 1867 l 1,1,-1
 593 1743 l 1,2,-1
 50 1743 l 1,3,-1
 50 1867 l 1,0,-1
EndSplineSet
EndChar

StartChar: caronvertical
Encoding: 65548 -1 444
Width: 305
GlyphClass: 2
Flags: W
LayerCount: 2
Fore
SplineSet
62 1607 m 1,0,-1
 72 1644 l 1,1,-1
 205 1685 l 1,2,3
 265 1632 265 1632 265 1444 c 128,-1,4
 265 1256 265 1256 192 1109 c 0,5,6
 170 1066 170 1066 146 1037 c 1,7,-1
 62 1063 l 1,8,-1
 55 1086 l 1,9,10
 63 1110 63 1110 74 1136 c 0,11,12
 115 1239 115 1239 115 1389.5 c 128,-1,13
 115 1540 115 1540 62 1607 c 1,0,-1
EndSplineSet
EndChar

